<mxfile host="app.diagrams.net" modified="2023-10-20T09:25:12.367Z" agent="Mozilla/5.0 (Windows NT 10.0; Win64; x64) AppleWebKit/537.36 (KHTML, like Gecko) Chrome/118.0.0.0 Safari/537.36" etag="QPoUGqh7nDEJhx223Jhb" version="22.0.5" type="github">
  <diagram name="Страница — 1" id="HFPQekxYmFRuAuq8RWWD">
    <mxGraphModel dx="2104" dy="2023" grid="1" gridSize="10" guides="1" tooltips="1" connect="1" arrows="1" fold="1" page="1" pageScale="1" pageWidth="827" pageHeight="1169" math="0" shadow="0">
      <root>
        <mxCell id="0" />
        <mxCell id="1" parent="0" />
        <mxCell id="wcw3lpg_Nm0PKdcRu7sU-3" value="" style="edgeStyle=orthogonalEdgeStyle;rounded=0;orthogonalLoop=1;jettySize=auto;html=1;dashed=1;exitX=0.5;exitY=1;exitDx=0;exitDy=0;" edge="1" parent="1" source="wcw3lpg_Nm0PKdcRu7sU-38" target="wcw3lpg_Nm0PKdcRu7sU-2">
          <mxGeometry relative="1" as="geometry">
            <mxPoint x="860" y="240" as="sourcePoint" />
          </mxGeometry>
        </mxCell>
        <mxCell id="wcw3lpg_Nm0PKdcRu7sU-21" value="" style="edgeStyle=orthogonalEdgeStyle;rounded=0;orthogonalLoop=1;jettySize=auto;html=1;" edge="1" parent="1" source="wcw3lpg_Nm0PKdcRu7sU-2" target="wcw3lpg_Nm0PKdcRu7sU-20">
          <mxGeometry relative="1" as="geometry" />
        </mxCell>
        <mxCell id="wcw3lpg_Nm0PKdcRu7sU-2" value="Получение всех специальностей с пагинацией&amp;nbsp;" style="rounded=0;whiteSpace=wrap;html=1;" vertex="1" parent="1">
          <mxGeometry x="780" y="290" width="120" height="60" as="geometry" />
        </mxCell>
        <mxCell id="wcw3lpg_Nm0PKdcRu7sU-5" value="" style="edgeStyle=orthogonalEdgeStyle;rounded=0;orthogonalLoop=1;jettySize=auto;html=1;" edge="1" parent="1" source="wcw3lpg_Nm0PKdcRu7sU-12" target="wcw3lpg_Nm0PKdcRu7sU-2">
          <mxGeometry relative="1" as="geometry" />
        </mxCell>
        <mxCell id="wcw3lpg_Nm0PKdcRu7sU-8" value="Получение всех филиалов" style="rounded=0;whiteSpace=wrap;html=1;" vertex="1" parent="1">
          <mxGeometry x="90" y="290" width="120" height="60" as="geometry" />
        </mxCell>
        <mxCell id="wcw3lpg_Nm0PKdcRu7sU-10" value="" style="shape=image;verticalLabelPosition=bottom;labelBackgroundColor=default;verticalAlign=top;aspect=fixed;imageAspect=0;image=data:image/png,iVBORw0KGgoAAAANSUhEUgAAAN4AAAEMCAYAAACr5ggnAAAAAXNSR0IArs4c6QAAAARnQU1BAACxjwv8YQUAAAAJcEhZcwAADsMAAA7DAcdvqGQAABezSURBVHhe7d0PbBTXnQfwbxKC3XIOUHPEBedqlz/tubiEAjVQ0EHKtY0lyEGb0sh1pVAO9S4NCkp1OmFknSyI2uoiItK0EuLISa6Vo02gwZL752jhBDW4HCXJuqhNQnZ7dajh4lKKaO0Eevd+b97szs7u4l17dp9n9vuRVt55szu7Xu3X783b9fvd9n8KxunmzZvmGhHl43bzk4hKiMEjsoDBI7KAwSOygMEjsoDBI7KAwSOygMEjsoDBI7KguMF7eS+ampqwvXvINOSQ7+1yGe/9iUosgj3eEI481qSCuBcx2bx8BNtVKJu+obeIJoTgg3c5hiP72vHIprVo2tqlm3p3NWPVulY88i9d6E1c021pFm5DX18f9qyrNg0FGu/9iUoswC9Jv434C+34+68fw7Vpjfjkp9fjU1W92P7UMcx/qAOfvyeGH/z7i+i9DLX9NTz16ApU3+Hcn6jcBNbjXfvxLnxBhW5kVRsO9+xHx9b1WNEwS++bMWeJCuJXsOd7Pdj/Dx9A4rnteKTzVb1Py3qOFsNeGSLmvGzHERViLdv9zRCT5300EQUUvFfx/Dd+qPq8Ndi5cz1m5erJ7qhCY2sbti0A4t/6No5lGXVm+OsWdDz9DJ7xXDoemm92EoVTMMG7/Eu8clH9XL4CS6Y5TTndUY8PNk1WV36I2BtO0y1Nq8OSjy5Jv8yZYXYShZOVWc2/UGEiKmfBBG/aDMyWn78ewtCo/4z+Nn6bkPO7+XjvVKeFqNwEE7zJS/DJ1lnAxQP4Vo+MOW/hje/iwAvq5/IHcR87PipTAQ01J6Nx89fwpYXymd0X8Mi/9SI+9LbZZ/xxCK9270brF/ciNm0NOv5pPfipG5Wr4M7x3j0fD3/re3hmayPi396OzzWvSvsAvWlNM1p3HUPF/W3ofP6r+KTzSQNRWQp2cuWOaiz54h70HD2Bo8934pnH1uhm+QB9/8EeHD1xFPtVTze/SjfnZ9YMFHJzojAINniuOyaj6p75WOL5AL2xrhpV8inCqK4h/rP/Ru8LR9CrtiZPq1IDWaJoKU7wxiWB7kcfwfavH8FbC76Eb36+0bQTRQcXtCWyYAL2eETRx+ARWcDgEVnA4BFZwOARWcDgEVnA4BFZwOARWcDgEVnA4BFZwOARWcDgEVkQyJekz549a64V17333muuEYVbYMFbvHixvj4yMoI777xTXx+vd955BxUVFfq6PAaDR1ER6FDzz3/+c2ChE3IsOSZR1AQWvLff9i1uFKBiHpvIhsCCN2nSJHMteMU8NpENnNUksoDBI7IgAsFzKsDufdlseunyXaYyrCn7lfV2RCUW2McJixYtMluZ5n2/x1y7tdfubzbXMp07dy7HxwkSvGYkHu7DtoWmySXB2wrs79sGrlVGE0kZDTVTPd5Q93ZdyNLt/fS2WyPdUzNdtz92REXbMPvS7ufdz16V8lSW53jV6/agr7sN8We9oXHEvrMb9fv60PflzD5S9skiu0TjFZngdW31l2pWF1O7IauZH8Ma7EaXt3dSPdqBzhas8Q9ZhRq2bnl9BVaYTaLxiEzwWqSX6vNd9rWYvdlUY/1TPah7tgnNu1Q/1rkFTesS2Jz1fFCdRz4bR9uOzag3LUmndqM5GfYtuEXUiZLKcqjpcCZljn28Bz07VT/Wul8FFdiSnAX1eLkLu+duxvqZZttreRt6kmHfj1tFnchVtsEb6t6lBppt2LnOU6Vv4Tbsb+3CFneiRUugS3q7z3JelIJTpsGLoUsNL1seziyO2fjZNqzoPIAjl03DqS7EP74ze29HNEZlGbyh7gPoUkPElmyTKDPXY3NrL3Z/x+31WrDZ2ysSBSACH6AThU9JghcEBo+ipIxnNYnsYfCILGDwiCwILHg3btww14JXzGMT2RBY8CZPnmyuBa+YxyayIdCh5u23366X5AuKHEuOSRQ1XNCWyIJAgnfz5k1zjYjywXEckQUMHpEFDB6RBaE6x3vppZfMteLiJA4VW+iCx6pEFAWhHGqyKhGFXeiCx6pEFAWhCx6rElEUcFaTyAIGj8gCBi9vcTxx8CieOG82k9LbTx89iklH484GUQ6RCp4sqpTPhcg29ngBW7Z2LW6szVjonSgNgxcwd6g52HcCkw6ewHOXpPUKnnvRNxx9sR+Dl/rx4MEzOO00A3rbvV36fYQ+JoexkcDgFag9pkKjwpG6XEC72edV07QKNxor0RrzBUWF68nrNRh4YAFqTJPrdGwQh811ijYGr0AdjWooucl7mYMOsy9Dw1x0Xh8wvZ5DwrVoXmbocP4MVqrWzkqzTZHG4BXVdDz0QC3ix8+iddjpLZ+sWowdDWZ3khpWvjaMzsbZZjvF28PWJkZMK4Udg1dM+pztLdy3abHuyaS3fBr9Gedp8b5+HKpZgIfuNg0e3h52oM75IjeFH4NXNKoXO30FG1cvxTLTIuTc7yQueCZNrqI1UYnHm6abbSoHDF6RDKperHVKbdZebFljDc7FUrOZHY3p4aToC93/47EqEUVBpIIXBAaPSoFDTSILGLw8eT80d32uN5Zse/43zod18tNtk/0ut00urvHen8KLQ00fDjWpFELX47EqEUVB6ILHqkQUBaE8x2NVIgq70J3jlQLP8ajYQhU8oqjg+IrIAgaPyAIGj8iCQM7xWIqZqDCBBY9VfIjyF+hQk1V8iPITWPBYxYcof4EFj1V8iPLHWU0iCxg8IgvCH7yX96LpsSMYMpspMext2o4jl81mMV0+gu23eqzR9lPZCezjBGuLEEnwnq1Dz1PrUW2aHBK8A6jr3oP1M00T0QRRVkPNoe7taGpqMhdvD2R6x5elZzL703pR2d+EvS+bTUUfy72Nt0fT193HkMtexNJ6POdYqf3qkrXHpiiLRvBOJXDRXM1FgtL84zXo6etDn1z21WP3OhUKsx/oxe6tCWw2+/fP3Y3mMQeiBfvdx+nbhkbTmrICbd3u/h60YTd2dTN65ST8wVu4Rr3Nu3DA/8a9HEfcXJVepmsX0LbDMxxduA37W9Pv17IvFZLGz7Zhxalj+CnPy6gIItDjNWJbdxuwqzl9+PbEMbNf0SFUPdo6z3512dJp9msrUPdec1XMrEe9uk/it2Zb6dqaum/zrl7TOhbe59Ks+rs27FyXfoZK0RaNoebM9diTHNqZy1ObVXC8vMO71GVPAW/4ln2p+/XsXGFaxyL9uehh7TdSg16KvvKYXMnSe2Xy7de9pK8XLJLGVS3A63FOsJSR8gieGo62qB6qa6t3MiVzprLr2dRkSuw7u9HburkkH0XETnQBc+t9H4dQlJVJ8IDqdXv0ZMoWc47W1LQFUEPHbQvNDZSWuQk0m/1bXm9Dz5cz5yODkX6+uaWzBfuL9lg0EYX/A/RASO+XGUSiYilJ8ILA4FGUlM1Qk2giYfC0RmzrY29HpcPgEVkQWPBYxYcof4EFj1V8iPIX6FCTVXyI8hPYxwmlwHU1KSoCCR6rBREVhuM4IgsYPCILGDwiC0J1jsdSzBQVoQue+2Vs+aghyKpE7rGK+2VsIkdoh5pBVyUiKqXQBY9fTaMoCF3wWJWIooCzmkQWMHhEFoR2VrNY8prVvNSPB4//CY9vWoplpinlCp578Sxah82mz4a6xfhu03SzNfGcPnoUK7OsM2jled/ydQ43Bs9n1ODpN8MgDmMqTo76hnBCeKhmYofNSwcPc3BjbfpywCVX0OscPhxqFmCw7wQmqTfDouqppoWKoRxeZwavEFW1GNi0Fjtmme2xkL/kB0/gub4zmHTwqL482HfF7BTSSzrtzuUMTps90hul2jP3pR3nvDr+i/0YlOv6MX33PRrXNxuLzOeR/thp+z2P432Ozm1Szz9NEK/zBMfgFaCmoR415vr4jKB18F36zXVjtTpi4iyeOO/sGezrR+sUNdSTfZsWo7PyKp70vKnlXMvZtxYnq69i5agBUkE+reLnud9AXYXZl8PQhVRwzMV9fq7052EaFemtVl6vcX63TXPQoY6V/odFUX8IntS3yT6EDO51nrgYPEs65i1w3lx3L8Dj6o3bftEJUE3TKs/51e8RzzFJ49pQNc1cy2U66qeYq/mqdoNvLo1T0R5TvfQlsz+nKzg2OIINNbNNcOqxWYX88OCbTs9rDCZUEJO3KU8MnhUVqPf0EnVVnh5IhojJnmYA5ypNu3FY9Y7u/pVDU/G4Z9LGu29S7KppBZatXYun0Z/cV5sYMXvy1DBX9bwjiI9aVcX5Q7GoKvdEkjzH2mu1oZlsKhYGz4r0N3HimhsENSx87apnGLcAG80el3eId6MRWOmex2Xs805MxHFAha2j0dk36lBzzKahXv2hOHfNN7T00M9x1lvjOseMAgbPEndoqc93VAg7ZqWm7w9f+71z5fzrOT8PLMRg3wDaK2uwucE0FEo/j6m4T9//CuLXdWsW07Gmxju0dAKfGnoaDUtxEhcyzhvLCYNnRQU6MOAM/Y47Ex879Jt6Oh6ap3oqd3Lj4gw9cZEMouIfTibPFXNRwX5UervRbufln1yJDaNztUyExPHEQflyQAU21mUfKso56skpg6jV972AdnW+mG1YuWztHKlPlsd5YzTdxg/Q0xX9//Fkav/4FWxcvQoP3W3aqOywxyOygMEjsoBDTZ9cQ00513HJzOC1Gzcx/YVjertq0h248uk1ePOPw3hf90ndNvvdlfj1upX45R+uY8H3T+m2D941Bf33L8eZ3/0By//zZ7pt6Xvuwqm//Sh+cul3+MTxn+u2++5+D360+iN48c3/xadPOrWi/652Jp7/2IfRmfgtHu77hW5rrXsvnm36EL752m+w7ee/0m3/OO8e7P3IB/DV83HsjF3Qbf/cUI9djXP0trQL2ZZ2uZ/cX8j95P5yfHkcIceXx/nMT1/B9wYu67YXVi7EA7P/Uj9fed5Cnq88b/m95PcT8nvJ7ye/v7wOQn5/eR3kdZLXS8jrJK+XvJ7yugp5PeV19b/uUcHg+XDNFSqF0A01ufQDRUHogselHygKQju5EnRVIqJSCt05XinwHI+KLVTBI4oKfo5HZAGDR2QBg0dkASdXsuDkChVbaL+5wmpBFGahHWqyWhCFWeiCx6+MURSELnj8yhhFAWc1iSxg8Igs4P/j+eQ1q6nXTWG1oGKR1ai9a3/KsoTOYlDRweD5jBo8HTpWCyoaWdA3htRrq7dllbNoLQ7FoWYBWC2oBBqW4ob3D1rDDHT4FgCOAgavEKwWpGU+j4CrBZUBBq8ArBaUkv48TKMSRLUgL70KthrWO6tYRweDZwmrBeVRLUj12jLJ0tE4ekDDhsGzgtWCRp1s0pMqVyM5oykYPCtYLeiW55jJmcxohk4weJawWlCOakEyEaR7umjXlmDwrGC1oFzVguT877D62R7zPL66ZEzQhNxt/AA9XdH/H0/+orNaUNljj0dkAYNHZAGHmj65hppynuGSmUFWC2K1oPFg8Hy45gqVQuiGmlz6gaIgdMHj0g8UBaGdXGG1IAqz0J3jlQLP8ajYQhU8oqjg53hEFjB4RBYweEQWcHIlC06uULGF9psrrBZEYRbaoSarBVGYhS54/MoYRUHogsevjFEUcFaTyAIGj8gCBi9vstBP+uI87lLlpVuIR55D+iJA41mKnexh8MbIu1R5aSoBSegGUL/arJvpXmxV9aFxYfDGxFmqvKAl88br/Ftor67lymQRweCNgS4sklzgNUWX8XKHgJ4VntMq92hORSBnQVfvdZE+nEwWM7k2jA1VSKsk5K/Q499OPmbG4/uHzdkf03/MlMznnzp+9mMlb5fcZx5fljv0t5UBBq8gI2g9fhS1g9MzK92oN3dtohIn9RBwMTrV27C24PMveXNewDl3KfbVNTjnWfT1cOIC4vPcYeYcLEqczR4Mszp1fm79mKOSVaalutED0vv7jpWl2Im7jPyNTbKuqAqp1BtMLi0P9fqWR+kuBq8gFXo9f2el5PQ3yOmLV4HqGSaM7orQbxX2Jrr0Jg6pnjRZiERXEhrBIamuI9KWYa/HDvXG9lfi0UE6fQUb6/Isnqkf07MytHrM7+pQOJujkd87ufy8/1im2Eny+fvJ8NlTgqumqRYduIqfJHvJ6GLwxmDZWqduXao2nVNPYPSSWbnpJculxHPlu6D+8Gc3ZUrmOeXwn5AwVzXdA6lzQTUsTTPsLqsulwvqDW8M/QmHUYn6HEFLWzLe98dGnvOTVe7y88oox/KT4TNu9ftGGIM3Jm6PNmCGUU4NOm+Ng0LpIZga5m3wB8moqaoErl/39W5K2hv3TTwh9cOzzXSq3tIpFimXOapnMarfhQ0YRjzH0DK9AGV6IUx5zlL+KzncHeVYfvp3yvH7Rh2DN1ZmGNUac96Iy2Z5h5ZquPead+iZp7tnY6O3Aqw+VzNDN3k8FbsDyWGYOj+KXU2rxHM4MajOr+aO4TG9w0FnciQ1KZKSVsfPqGlagI2D/c4fIP+xdJWh3AVOnPrmqaFlVKu/ZsPgjZnq9ZapHmrIlJtqWIqBumGs1EOys2hVcRjw9jxpQz2puCNDNf8khjrmA86kib6dnnhwz7ecfUhW0XEmMdI+Q1S92tMFf6boe0xzXHf46B1q6smjjN5UXofpOKQnRXzHGrXcljpP1ZM57vFhqhJF321h/X+8Yind/+NJzyIfiLNqUDlij0dkAYNHZAGHmj75Vgv6wzs38J5Dx/X2XXdOwu82rsbAH4dRZ6oF1b67Eol1K3H+6nV8+AdOtaCGu6bglfuX4/SQzA6e0W3Lqqeq86al+NHgEJr/65xu+0RNNXr+ZhGe/80lfK43pts+c8/d+I8VjTjwxkVsPePMRmx+/yzsW9qAp371P/jKS6/qtsc+8Ff413vno6P/DXT84g3d1v6h96N9wfv1beS2Qm4jt5VjyTGFHEuOKY8pjy3kMeWx5bnJcxTy3OQ5yu8gv4uQ30F+lw9//xTOm8pAr3xqORqmTtGvibw2Ql4TeW3ktZPXUMhrJ6+h/zWOMgbPh2uuUCmEbqjJpR8oCkIXPC79QFEQ2smVICv8BHksonyE7hyvFHiOR8UWquARRQU/xyOygMEjsoDBI7KAkytZcHKFii2031zxVvgZL++x+M0VKoXQDjVZLYjCLHTB41fGKApCFzx+ZYyigLOaRBYweEQWMHh5c5cmz7LSsSyRLvvSlkknyo3BK0gFNlRmrnSsV5EmKgCDV6BFUyrQfjFutoSsIl2BjurMNSeJcmHwClQ/azo2eGsiSL0ATMd9/iXT06rgqIuvgIlb1DJjnztsNZfkKs36eN5hrhQIMQvP+veZx862KC1NDAxeoaqd1Z6Tqx/Lqsk1s33r/0vhkFQVHL00e3K5d6ecl1vUUlcWun7BBExWhx7WhVH0/aQoSeL1zHPKUZyODeKwuU4TE4NXsOlYU1OBc9ckKE6BykVV/tWbZUXltb5iHi7nPqml153bOitC12OHp1KPLupRKNVjrlRH7qw02zQhMXhjIMU2dHksU1Yr21r/aUPJ14axwbQDv0dc5SkzrMIZPrr3ezRjivSqWSJeLs4y8OmkZoPqMRtnm22aqBi8sZBiG8NXcCB2BYezFSYxxUaSQ8Zl3pBNQ73qjZwe00cX+ZhqiluqXnCev9tK7dNDVN/ueF8/DtUs4JLwIcDgjUk97qseQfvQSKooY4YRxE1V1vRzLmeo6i0oqXvH5ASLW+bKVBzK21W0JipTRS1pQmPwxkiX5cpVUkpXcjXFJtWw8CezpB5dKog1TatMVVlnv55okSo8bumv49LeD8yrKajeXEdjeVTaiYLQ/j9esfD/8agU2OMRWcDgEVnA4OXJneKXi5AqOe62W/lHKvG4bW71Hqm847a5FXikeo7bJlV05OJuu9WG5LZum1sxSI7ptrlVf+Sx3Ta3co+7LReamHiO58NzPCqF0PV4XPqBoiB0wePSDxQFoT3HY7UgCrPQneOVAs/xqNhCFTyiqODHCUQWMHhEFjB4RBYweEQWBDK5QkSFYY9HZAGDR2QBg0dkAYNHZAGDR2QBg0dkAYNHZAGDR2QBg0dkAYNHZAGDR2QBg0dkAYNHZAGDR2QBg0dkAYNHZAGDR2QBg0dUcsD/A+VM8o0elQC4AAAAAElFTkSuQmCC;" vertex="1" parent="1">
          <mxGeometry x="105.27" y="120.88999999999999" width="89.46" height="108" as="geometry" />
        </mxCell>
        <mxCell id="wcw3lpg_Nm0PKdcRu7sU-11" value="" style="edgeStyle=orthogonalEdgeStyle;rounded=0;orthogonalLoop=1;jettySize=auto;html=1;dashed=1;exitX=0.5;exitY=1;exitDx=0;exitDy=0;entryX=0.5;entryY=0;entryDx=0;entryDy=0;" edge="1" parent="1" source="wcw3lpg_Nm0PKdcRu7sU-10" target="wcw3lpg_Nm0PKdcRu7sU-8">
          <mxGeometry relative="1" as="geometry">
            <mxPoint x="420" y="260" as="sourcePoint" />
            <mxPoint x="420" y="300" as="targetPoint" />
          </mxGeometry>
        </mxCell>
        <mxCell id="wcw3lpg_Nm0PKdcRu7sU-13" value="" style="edgeStyle=orthogonalEdgeStyle;rounded=0;orthogonalLoop=1;jettySize=auto;html=1;" edge="1" parent="1" source="wcw3lpg_Nm0PKdcRu7sU-15" target="wcw3lpg_Nm0PKdcRu7sU-12">
          <mxGeometry relative="1" as="geometry">
            <mxPoint x="210" y="320" as="sourcePoint" />
            <mxPoint x="530" y="320" as="targetPoint" />
          </mxGeometry>
        </mxCell>
        <mxCell id="wcw3lpg_Nm0PKdcRu7sU-12" value="Распарсить строку адреса и получить информацию на какой улице и в каком населенном пункте филиал находится&amp;nbsp;" style="rounded=0;whiteSpace=wrap;html=1;" vertex="1" parent="1">
          <mxGeometry x="490" y="290" width="230" height="60" as="geometry" />
        </mxCell>
        <mxCell id="wcw3lpg_Nm0PKdcRu7sU-17" value="" style="edgeStyle=orthogonalEdgeStyle;rounded=0;orthogonalLoop=1;jettySize=auto;html=1;dashed=1;" edge="1" parent="1" source="wcw3lpg_Nm0PKdcRu7sU-14" target="wcw3lpg_Nm0PKdcRu7sU-12">
          <mxGeometry relative="1" as="geometry" />
        </mxCell>
        <mxCell id="wcw3lpg_Nm0PKdcRu7sU-14" value="" style="shape=image;verticalLabelPosition=bottom;labelBackgroundColor=default;verticalAlign=top;aspect=fixed;imageAspect=0;image=data:image/png,iVBORw0KGgoAAAANSUhEUgAAAgAAAACbCAYAAAAURiNTAAAAAXNSR0IArs4c6QAAAARnQU1BAACxjwv8YQUAAAAJcEhZcwAADsMAAA7DAcdvqGQAADB7SURBVHhe7Z1faB13lufPLPvQq+baPeguiTSY1p0OkaDbxrOWSNumeyOTAe9DrCDaTsfthwVjiLOw0Zrep44zTOy3hYyyMEnABObBE0/sIKLkRTCNFWaIM0Eya5wOSCHZ60aslGYluu1La/K2e875nV/Vr+pW3f9X/+73Eyq+qrpV9au699b58/v9zvdPjhw58v/IOPf2PE2NFogezNLoz67YWgAAAADsNf6N/Ut09i06z8a//OEojD8AAACwx4kdAKVC61/ZSwAAAADsWVIOAAAAAAB6gdgBeKJIBVqn1XftbwAAAADsWdgBOEdvzS/S4vg6TY+eJvT+AwAAAHsfdgCu08XxURqdL9LU4i26bBsAAAAAsHeJuwC+WqcKFWnwrP0NAAAAgD0LBgECAAAAPQgcAAAAAKAHiR2Ady/SO4tEY5cWafF9jAQAAAAA9jKJUsAAAAAA6A3QBQAAAAD0IHAAAAAAgB6kaw6AKAsuLi7SrVdtBQAAAAB2DK07AGffonkz8Jffb2HgYLC/8uotdhjm6a2zrjLh/NvnbEMrfI/++vBh+rtoGaKf25YfPzYSrD9Mbz72HdsCAAAA9A6tOwDvrtK6vczi+ovjNDo6SqdfsxX10EJEneIP9Ff37tF/1uUB/ZYdgpND39Mt//K7JVt/j95e+5b6BoboEnwAAAAAPUabXQBZ8sGX6RZH9pL+r+4CMN0B2XZpjAq2NiZPjMjv13qp4s1//dZepfmWVvM2AQAAAHuU7k0DlJT+qRKVP4yzANJVMNG/QNPjF+m6dAGwE7AebM9HHIApGiuUabZRwaL9Q/R3JRf107dr9PbS7+hf9I/v0KWRETpkUf9vy/forx661wAAAECvsIWzAC7ToSGiyvIndN3WNI4JFjWjVvjwgaX6l+g+DdCLI4/Rj3XDt/T6knUPlP9A3y8dpr/erxsAAACAnmELHYDt4lu68/tvOfD/d8T+R5KHf6Df8j///jsYBAAAAKC32EIHoEzrFaJCsaR/XZ7MGgOQRztjAL5H/2mADfy3/0oPbI3nx489Tt/nf//vt8EgAJ2NwOdCOWQAAAB7mM47ADa9T/r/hdIpb7iv08VrC1QZmlADO8EOQVnf0QW+8xi9GUwB/H4wBuDnQ/EUwBfZMagaA+BnI/QPstsBAAAA7E2gBVCFDTjcmKXRnzU84gAAAADYVfTAGIDGcdULYfwBAADsfZABAAAAAHoQZAAAAACAHgQOAAAAANCDwAHYNsbozGcv08u/PkkHbE1bvHCSLsjx3huzFY3Q4TYAAADYNbTuALSrBtgJOt2GV87Qy59doJMvHKCTv36ZLrzpzOLYe2wkxVCGC4xmg5iTES1neI1hTsuZV+weN+W8AAAAaIfWHYA6aoBbQqfb8PUj2rSXVVSWaeapN+gNXu6kKwq1xALdlOM9M0crtqYtbszRNTne8wu2ohE63IZM7By63KE1GqBj3tDf2CDIMAAAwPbQZhdAhhqgRuXzdOt9mVInRYBiRUA3zc6t08VH7FJ9b37eFRBavMX7JveLqvPZ9mScn6VI6NCsALflrbO2oiEe0sYNe9kQLlsQRbhhFOvT8n6xrMGBNy9UrXPYsewYPvMgEbKiGQrbT5bU+8J1SpTRcH/qedtpQ/p6wmi+CTY3vrFXwiY9+tpeAgAA2DLacACu0OnRcbr4Lr/62Whq3nyBSv1LND06SrMcLZfG39KqetdfHKdRXqfL664qYGTkC0RLr89SmUpUXJ/W/YqDvJc4FKeKtPC622/2QYkm5t3xarehBTSKvskx6wrNPfMGXXupflw89t4kDZNlB6aXaXPoWNR1QD/YR31s4Jan36CZu3FuYeWlaxwNz9CylhzMRgz0sSG3782rtm5QVIvW6A6fK8xCLDzvo+vGaakNPsugi+wbRPO1iByXYzRQWaa56L5KduAazbHDpdfQVPYCAABAO3RtEGB5/mKG6t9luuUj+UtpLYB1WmVDrq9W3Z6iG3DupyP8vgKNXXL7TVQp+uSjToE5CN1hjErcns0vv3Ap9Bv8LxvUvv7Hdauj2YwCw07E5JE+WvvIGccElUcUxs/16aPhKRexyzEbJqcNcbaBHZ9GxRyu3oydBnaXJjF+AgAAtp2uOQDVSIndCSpVFjQzoBkA21KfMs36zIEs41nOxc5DI/amDTbzYE2j+YGDyej68X424BsbTfbXuwheDHCYhahLRhvCjEC97EE2K/TFl9yGwj4KXSQAAABbzxY6AMbGqhrvRtUAr6/KML8SnXi7eWme1sYANMM39Egi/id/6CLaF/hfvqi1zyWVfYB++GQrBlso0810d4LPNiT6z7tJVhsEy2i8crTxDEDEGB2VLESjThGUGQEAoGtsoQNwnS7Ol4lMDfDE+kJjaoCvnabpxQoVRqecMdhRBkHGCtyhtcIwTUpafGqY6O4M3bwqA+kkRb5GdzL6tV0a3VLotm/SyDI35miOI/a+I5O87Rk6U9V/7vGDEHm7/MkGW1L00cDBHJpvwwFaeemeG8Uv1/r0I1puZDZEYuCgu4aZRmcdQJkRAAC6BrQAwA4GyowAANAttr4LAIAGgDIjAAB0F2QAAAAAgB4EGQAAAACgB4EDAAAAAPQgu8YB6P6UPrDX8eWP682QAACAXqB1B6CbaoA6/7s7xj6hRxCVFI5J6xVEpYo7RlANMVy6NLVRPxu5TtNoaO+eBjoBWt431AJIqv5VTSnMwRnltKaAn9rY/PF0euNWVBoMlAwT5ChKAgDATqN1B2CL1QA7VdbX6RFM00JGFTsx/lOjFOkOyHL6NdvYMUS/QI4tugdElcVpd64ujXQvrzddrq8GK1LXKAMxdsdo4MEdV/L3ozXqO3IyEiFqmcTxJtuO3J3+Qayt0BVqKUoCAMAOos0ugGolPok45+ctin7/lkW7sYKfS+Xbkoh6g8j4VMnWMZZpcPtkRLAJpUC/PR1lNxL5XqaJ0QIbndvVTkaiDbKkrmeer3O+elvdtqepynzIPHjeV+6TbouVEjPfZ+eaT1dNtOqLVfj2NZl9qKpGqFUBN2n5Ayt6dLVMbLLpwE84+k1FylGEbuudPoEVF8qKqAU9HtH+wfh4cXbAsgcmOHRMtCJ8YaZICTGZnUifI9Y34CUSN7II/r0z8fl0m2Unpob5Crnlz6b3E1rQfwAAgC2mDQcgX4mvQEs0/aFU/SvSuir8FWmQjZVE2BP9pgUgEfDQhBkr0wl4MOuiYdnX8+5FGud1Ug2wCjGK7CyUP5TjyeIzBD7KdsvsgwKNXahO9yc4O8itZJdmPaM+obXBHU+yByWaCI1mgR2Wednm1Axd2WJ2Qi6N0bq1bXqRDc2ltJRxitfu8/4FGvmptfTVCRorVGhhxt/bEv/n7lF4TZfft/ny0r7X2QiPTkVdF5rxkM9Gr6H9DIqo9qlKogr8iHJiFlYiOSGKlMKUBZ0+gVM4zI3OXymxi7BJK//M581TJDTBIVVJlGqDut0LGYnqoMskpFF9g37//ju0lip93De0n1ZE+0D2HTrMDoVTilTlR96+9pHsx4uv+Kjta05REgAAtoPuDAKMIk6v8Feg4hPn6LjUnS2M0ZRGqmzw9T3M2eM0wpvK95tLg18+xEeoLNBsRpo+7MtvRkEwjzhzwcZWyueGRG1wjsf4i3z1rx7S6yudcvtNSXahLldoVsoeDx93hl2vb4k+iYx27Axoar9Q5HNcpkNyfVZiuVplsQbesdmphXasrPHLzw4kVAnjiL0JRcJMTK8hyhhYOeWQB/eqFRkBAGAP0B0HoBY+yrdFjWWnefWWGlyfGZhtpGa9jWkQCeI0mrkYYuOrYwOyxw9k4/fxy2k28bW5/k9LVCmM0PGzzrBnyypXE40lsKXzYxeap23hIj8GgBefGWhfkTCD4DyyIGoHAPQCW+gAXKdVGUA2dKK6L9yMb3FQ4t5z9NZ4tRHO4sr9smYUJjJH6tv4hLNv0YmGMgBX6L44ClntUyyboWl5t6YmKmRToLHJ5vrXJSq/Len9S046OSu7Id0LbrzCfW51mTQZMDpRu3shixbHAFRhff7Dz1k/uI0J0JR9yAsn6XAHsjHtKRKG2KBGTe27Nd3GZ5I6P7sEAACaY0szAFd+JtGzGDf3EIwfhFfo9IdlU/ybopGNMhtPwwb5uRS67eun75lSoE+zRwPjXpuNz3OpSEvB+AH3ALY0vnVH+EFzMpZB+9ZT7bv+4m3t25+QdePrtNBQRuEijes4CEvNy5Ix7TALdWyYyvInqejft805B9Oaur9OF8fd2ANtny6NDHrsJAuRdHBVyv7GHN3j+6WD5aYO0MMHyTHyCYVBXuqN9K+nSLjwAbcjPQjQDxzkdglu4J4bPLjwvGQR2HmZcudvpA1KeF2yX2IQYD5+VoZzdgEAYPuAFsAOxE1HXKfZsMtABzwWaeH19gfygW1Esi42OHQndNMAAHqXrR8DAPKJsh0p4w/2ADZVE8YfALBDQAYAAAAA6EGQAQAAAAB6EDgAAAAAQA8CBwCAbWGMzmyFaBEAAOTQ+hiAYDTz/UOLNCElapupKFdrNPR2jXiPzvsO0YUpGlmebqtQkVSs0zKzfLiTUwdoZVqmxkkt+eoKdpt3Z7QAje4TzJWXUrNhERxXO1+Q8rm+FG/qmFLYxkrTJo4nJXKfmaNWy9y4Y0kRHjfFL/03qEf4OYWf3+4E34duILoVx2i/PQ+i78xG/JsGLSJ6ITYVmJ+40fc0+Vw12nxWClm/B7fOvRai57tMVTZ9ESU8v217yO8tH+T9qXPfhdYzAFusBrglaPGezvHNRpYunNWSt6pzrhZ+XDRHau37bVLXfuDZWOxm8gjxl0m2BTXwmbH3+AFBVs/e5uPrXHYtvOPr7N+htcIwnWxDnnbheT6GL/hjRX02787hYd8QwYNcP4/dbfwFfB/A7oF/f09LfRL/bOXv7XmXgfMqobqYxsfml1+0Yfzlt5409J7c53uocSJtCJ/VNzbooXvVcf6t/dsiVm3vkPvLIUp8QZ1/fk8cyctUqGQt/diJqN5P8ZmCB2UqDbmtUvbWR+ZS2Ceq9S9lhn0WQqP5+GhSFthlGlJtkII642G5XVfxb/CC/Rnh9ys3N0VvY4O/SP32RxqrRc8Re+5Ds/KIpKDu2EH2XNkr/ELf9zjtk/YXSvrlKemD176wP9inXmTfQd5ylb9U0XGdQM+ACvS0+tVeoJsfldiLPkwXzvdRn3ipUdncMLqV9lgEo96rFADicw85/zbMauR55T4SirbY8Zy3/jCKntWjDjzizCyJtcFlYGyToftLloa9bbJ987Ix0TXVJLvdvjri2sZhEs0BIbwPuZFBJ7F77dr0uGtnW5HOFn4fakZv+d+H5ki22eG+QxR8T/QK9TpcVKZtT7SPCbJwHaXm/eHWPhjg+xpuS2UU0r+FzOP5++Cu/Rv7XUSfU9NtkNc5v03bx39+Ifm/Tfvu2vvS58nGBV4eDc6G9vGTNPk0FAVTvlK6U/d3XgP5rYuj/7H8Nvbbyhzs+Z7Fw9WwDZv06Gv+56D7q1O0MQYgTw0wX4lPVev4Y1Y1wNcXgmhbjCsb/yw1QKPUv677SeU/X/Y2X12QnQk2/mF9fN/NcO7t82bE3frR0PirOI4Yd6muN9q2ToF6lvIQUO8u4wtqpWzXPg+/+vKDddXlNH30jjxwDlC/+BDqTMj2w/TorgrkUv//6Of/25dFfky+Oh7vkIj1X/ghHeBztV2f/+qnWjmvT9r9cWw4NAvho1v2YCmh39/HjseKZigk4xFmNeRBIg8W5xX7eyQPIP6B+xr9H3GcmTheNu4B47MkslQ/VHLhtviHnDfyobfu2nCyTsngeu3m+0D3dFviPvjPV/eTqLq79D3J3wVVWGQK7iHYMlvxfRCjFazX6G3K37su4D8/jQYHqMTtXvicP5UCO+z2+Y89N6wOz6fmuBwYlF+hGDVTpGwZU9KUz8jWRNS9D2x4xfnx2yzCzaWB45VesSCFieS4W2hDZ3+bpu5pS0PXmsCuqcr4jtFRcVA42Gy4bVmIMmmu85f1fHfIPdKqotIVwN/BOACQ63W/BX0mddCx7MogwGwlPiduU13elmlADdCL4qi8rRrpGuqCUX18KS2cLIt7fVVyDlY2t6ka+M4paETQp1F8VO8fIo74yz1zl/jH5TXthX41MCRldldtlWdQfpjsSbO3LOXtk7BhOu8eWHPteLaKZR8YfSAoY5qFiNT7wr4swxuHlVVJZrHjwteUff2MOSuRY6RaA+H54tLBcdTssyl56n3yoHL7yBJK/qoaID/UJLpIRN3ysLP3xxFPDWq0OzIQ9uMN74OnbeesDtqGyiZtsiE7enA/bT5YYwPXLt3/PviorGzr1Rgn7l3W96ENgnaT/06YoyNt8ddXlSauEc01jkSqrrvOlbOOMxL17wMblA/c90sj3MC5E0c0/VnkH899ppv8XRk4eJRfr3FU797TWhvq/Tbjz0+WhKOf89uMjCUvzX7mB948yfc0aXwVkx337e8O+c/3uCuCP3/5DjZYXrwdOu8AvNqCEl87ZKoLmrHWLIPVz/fG/rXTcbu0Tv9W18032Lhon2mNviYZF7DJP7d9P/CiNcO072OXhnMG5SFt/HfXPzRwZB/dU686zBYIls6TMQItp3pjDrx5mH8ka7TMkVs6IpYfqffKZUkY047iIi05R+PRFv+wffSRjswr/ICrirrYUzdP3O/TDlkGP8Y9cJMpvy6xcY/uccQkKdqVzx/xirw2Ncbu/T7UwH/m/CB+yN8T5yyu0Bdf8jVG2ZM1uhc404/3s4GLfnPtEka4nVG8jD4L6+OuzyatfMzPnyGO6Dkilpxsn3YfdoP483MZoSDoyfptBhmBZj/zOBORzsjyc/JpcUD5c850UjpP/Hy3FRELVJZrSmdxu0CXpgFmKfFZVG5yu5cnA936ltQAa6gLejSlb/K9/YPaDeHRbgvtaihQ8Qm3rjbSTSGZhlva/dAumkJMPUTSuPe4vh/naVs/EH8tnEctqSr7svjoIxWFjkkqVvrysoy/j3AbnY7G7z+p/XCf0pyK8nBUrQqAlrY8cpTNZi2SPzK9Jvbwj4Yev2CDXgZkHINgnnmVumAC94BuXNnP30vhEX3qo66U1+2icmt3PWq1++tH/MpHkPy5aLRrDxt7X9yeFJIal8+pKiIQ506ioDBLlI8aKUbvu5z7ampw0Q79PjjnyaXihcS9q0fuvWseFaKKItJP+ZfnsYxAXganQ21o/D40lsrOPR65bkX6moMT/hzlWeIHNLfWBt7e1G/T1D6VvN+m/V4skGqIyHFIG3/Gd8cG3VgRzf4uGiR8vifw19SgQ9mOwmjnHYBcJT6Oyq9xRG7qeBPsEMQ9/TXUAGuQry4oAwr9Ohm4V6GFa64LIeye0EGCD2a3oS67pUirfqD+ge6WxBSSqzctZSTbLKK3dLIq2vEaTRmGaUv+wrv0WJhiC/rr/OjShvqBuW3SjRA5LQv0KXvrki4984qlLRPnSRolp5qXckb0msTjT+/DEZBEKj4Vq32OGT/aFJJCc32S/nhh32SwXh/g6dHqfE6J8qPUm7s+lzqdpH1fNhI51Wi3jAOxzINsOyazM+Q+iHHIbE8jWGaIr606ishGjZT0UUYOYeP7JtnC70NqfXTvZJ96qOPFNBNN+c/PBknG3WbmbPMRY2fUDbJLvq9L1L0P/jvu2uOfD7nUPJ4YYTdwLsrcyD1ssQ21f5vx98QZ6PT4gNRv07pj9FhT+2iF21Mf/pz4dybE36+4u0EdGf7G+q6NBE09JxnvMOj5rJ3qPNR4vnsnURafeWywr78dhVFoAfQ44Ujbrjy+5MfAX+hotDToLOpA7M9Iae5Qtvz7IA9ddjQ6Mo++k8fqMDvhe7DbvotN0PXnZDu0oTDapS4AsOMxj3PHfqlBHWw08R594HYCN1CsMwZbDECnjgV2ETv6OWnd0m0ojCIDAAAAAPQgyAAAAAAAPQgcAAAAAKAH2QMOgI34n3fVBgEAAABQn+1TA2yUusqApiFQVdO/Sex6otoEFGoYtEhKjyDUMJDpiFOj683pCtRANRGkLHLqHkTrrxGdvzRCS21dUzAK+nOpcx3W8LbpUPqaSAqP+JK6bnSw30JawKP+CPD847liHm5Ou0zdyaojXkWiDcH0G39N/oMPp99Eo5rn+OZN0oEvg2sCAIBdTusZgB2jBmjaA+0Y/wBfwXB6kU3QpTaqBIpDwcbfHy+uUri1+DmincHPO08jRpSNdVA1L6oKJ9O+2PD6ql1uDnE4BziLGsdjo5yniphLqg1h7XAtlJSlpCj4OeQAALAHabMLwCr+RbhpCU6QxxOu89X0bAlq8Ws1o/lbdCvanlFxT4xqkO5PFPUJuwD0ffN06/14e1wlKSwSlLGvcf3F21SmAo38lLf480aLtU0i/EQpYbs+ua4nikE2IcCOJeWSI00CXnz7fFUnv0T30va79b6cM9imbTDNhUgXIeW4bKxmO0f+uprSRLBiMiGp6oOuTHFc9U6I68QzYc10XzQjNOI1jpesPGZ16IecKqJi03bCWv/J+uVWKlmFXVI13U1JMarkp4RVyQAAYO/QhgOQpwaYzfrqdTZuKTXASL3PKJSI5iVanmXjW6ITaUfiwhgVglS/EwayUr9VFKjUv6Tnkrr/pXGvSGjdBdIGLQVcptl62QMtKeyieHc+NtxiNF+7HzsJwqsTrurgDN8LrYjI5z2VMuR2LFE11HPbcf0cTr2X/lxaHfF8wphXqSKG2gb+uuxzEfQeyWej522zS4MRNSpNg1+9ydG0pd7VcLqSlpqe71/R+uVaO/zGHM1x1O8r4Gn0nhbhSJN7vOFA50C6CAJVxKDKXBotgatOh0v3u6p+fbTvL+soKaqKo1yjq4iG9D8AYC/R4UGArj6/1vvXyFQi5RIV2Siuf5VSA3z3E1rih7rXBlDYgM2qIXRp/ThlLuV+TYu/iVS/VxCsIi8irkEcmUs7bCW3c1YM8fBx51wc4mupLNEnamRDQSK+Ailz3MhAxTDbEIwf8FSrIraBd2w6NXbjJ2do8skVmnn+C1vh8DXoHX1WL95QI/tGdnGVnOOxhdYugkxVRHVMso31D99z/fg3/9lWeGoqKQIAwN6k47MAfJ/z5UNFKj8o0iFNba/TaluRZ4WPJcct2fFa58p9jvpNj0AMbGVxNtuInh2kIv8jmQvpapgYkkGBEl0nMw7X/2mJKoUROn7WOThVTocZWY3QC0W+glpcplsyENErHGqGYhdgQjfDTz6yalkmJypdBRxZu5rXrv9dxgDUFQXJPd6yG4OQpYpYI03vZEmH6cCGDeLzGYZ/NPGeXCVFAADYu3TcAVC9/f4TdKJ/iWbvr1Np/AQVK+sk0j+qBmjRMp09TiP8UC/fbyz6XJ95x1Lq7ajxnVOlQRmN79PseQPznFphme5H5RXNidE0v1ujsIG//UAyFK5rwWUw0pyjQTEseh/qU1mXd7m2dpUWxwBUccOphkWGs0q9Ly04ExjsrDEANY6Xr4poZIwBkP1kMJ+X243HEdRWUqyNH8+yTXLSAADQJh13AOirdY6IC1SQNLv0kctr3SAp8Vn+2waqcaRLbIgbr19s++vAOecEuLS8peTtuIkxBVXwMea96qDs65ZQRtH32U8MSf+8S7G7AYE2YG98nRbEaARoVoGJujcEG5znlurui8QxeXFtsC4FU0UsLrvug0a4MsPvzRsE2HVM/S1LBe/qTdXr9gpc2WpfaWofL08VMRdT4stSMMtVUqyLyVHzt7sxOWkAANhZ9JgWgKsZUIzm40sUx8Z5o70aBp2e0w92CVrnoVaNCgAA2Ln0nBiQFsZRjXxPHOk3jRoASdO3cQywC7HiU50oFgUAANsE1AABAACAHqTzYwAAAAAAsOOBAwAAAAD0IHvAAbDSvlADBAAAABoGaoAeu554in+7A7z8QLEAKfDTzD1KXHswY+H+IV5P7Q08lPn3U8P08KM3qHzwZTpGaRW8LOU8K827FUp8NchvQ76C4Nh7fI39yzTzDtHJqQO0ElwTAAD0Iq1nAKAG2BBh0aH2HCQ/77xD3HBV8Kpho/x0tnKeGPItU+LLI7cNNRQEGa0GCAAAIKLNLgCoAeaqAdZAr/V9vtbM8wfty9ACcFUCM9C21CuElMZX1Atxwje+GI4ro7uPHufXW67El3G83DY0oEiIEr8AABDThgMANcCaaoBGWHUwca1stEiyDXIfCmM0oQ6KOBDcvhwtALnPWsBIFQDbrTuwQDefcmlwUfjLTr1bqV1T0ttSJb5MarThL2soEjIrL11z16jiQ0j/AwBAhwcBQg0wVgN05OoOZOkGNKmPkMBkgfO0DVrhwJsnabiwmZLv3UIlvtzj1WhDroIgAACAkI7PAoAaYGfGImw3bqCd9LX7aHlFAu9tVuKr0YZ/rKFICAAAoIqOOwBQA7T1rWADK4uDcodcWxumpTEAOehAOxHtSabKt1yJL+N4uW2oq0hYg9TYEgAA6AU67gBADTBJ4lx1ZXev0OkPffumaGSj3LAaYOcYozM2Zc+r58mio/N3ghJfbhtqKAjWw89oKRT5UwYAgN4AaoBQAwSMikT1t1lLAgAAdhFQA+TYHmqAPYz/DIPZJQAA0AtADRAAAADoQTo/BgAAAAAAOx44AAAAAEAPsmscADfiv/3a/ABsJ1JfIZpVAQAA20jrDoDNnZYpdGqc605x6zy5WgCMtknWmS5Ae46DlLF9mV4W0Rmdm34mrn8PuoKo9/kpiHrfu4nVG3DL1n+23inQ5dcmvLTViGgTn18cE7333b7nAIBtp3UHYIvVAFVvwLQHPLW0AHxFws5gFejAlqH6BE/dISn701XE+D+739QFRa2wAYXDNlBNAj5PWO/ArRNlQ1uxHeSqQwIA9iptzAKQOfUnaP31cVqdXKQJCubSS9Qdaeubrj7JuhH+s0CFgpT2JSoNFbQqn8zJT0/P8+szj5UoK2xz+UVkKJjGpXPzi7dpdGZQz7sU7ueP2YQ+v0RFh6Wc7epRNhgUadCrzjybqbWhAadDX1m2UrROm37/AzZhvE2U7mK9+xo6+KbTr+/3yPYP+p1+Px9vgI8neL17bUNw78L1h/s3qa8g1fJ8G9fozvQjOjzFcWalj7dt0hp/FgNDfYF+frJ90XprW1Yb8tC2iQ6/Ff+JjvHRG/TpYKjrz4T3QTF9//R6Ndru/CTXE34W/XydfJUD2na3jXLbMEOPnp6Mygorus3KE2d+Fl/Qcv8P+Q65+7rpP1/73B/P+Syia3GrVR45WfTI7rkUNvLtrEvymHnn8utzvw96/2Sfw/Ro+hptPMfXQOnPAgCw12hjDECeGiA7Bmxc1xO6+r58b4HW5yViL1CJbvO2SiQG5CJ8W7Qa3nmXtjclPnlvM2h2QNqk+6edhuaRiFQfripQ4wxOhBhD1bvniLUwTCeD0rV9bAzumT49DR1WffosHXxX7paNwHk2OGLweNvM3U3nUAQP4oH+R7qfbOs7cpQf2z5atiWlg9/HpmRGz72fH+4SUe+n/v/gtjz8WKLOPjYC99zxTDlP27fh2iDtoyOTiT7rrDbkoaV7Vf7X/a3ywHxNn7Lx89GwP4/ch7p942KU0xF7mDYv8GfBBt1lDwboMN/XdBvGnuN7LG34WsoPr1GZ4i6AMz/wkXDeZ8H3g+nbsHsmn6+03SST8z8LUV906zpD4BzZ+ZzxF0ciWK9tiD+/zO9D1D5XOTFfHRIAsJfo/CDAVw9pOVVfUndq1Ie5gqgC2iuva98/6PrubUyB9udn6OB3FC/v20b1vwRm0Ii+oUfsp3hDKmze/dQ5C+o4yAM2pYNvNewT+9QQsFn72EWHzniaIyJG0fchR5GxEYnreNGePtonojtRPf3gfCrF69pHvqRuOgJmMtuQx9VP1clwuvyudn907WrErN0Z58lCHQj+z5UCTkbbSvRZOIPrnLawDcH9F2Eivvelpwf4c1pmY8j3hJxMsSfvs4jWey0Db0hrfRadxLQOlj9I3f20psLVMl8Xt27QXKSs78MPdAUAoMfo0iwAr5znl3pV8lzWQFPylgHoTVboiy8lqp5UA6KCPGZs82EjKsYziPg6gaSNfWQpS90a/bnYNT3JhkmNkxfosUhVomo5h0TRbocGkLR13LY36qbMgzao4Vyje+wYqJLgxiM2+iJWZIM8BsUpEKO+cz4LAADoBp13AEQMiAo0Ntn8rACXFWhSBa8VfLah0zMXXjmq/eYJRbsqLEsgxkj+TERsY3RUVfhi49ao4XURKRtVjmbbw9pXJ7WfiR9NnxpEt/LSPVorHKCjz3H0/uBeUqDHIlJNy7s1NVlZVRFhTe03g2vDME1yVB5lZZQNHeA58Kz0mffR8BF2D9TQ74TPwsi6rxrZc3ufS31KNphv4KCtb0YVsRamNrkds30AAN2h8w6ApNclgvea+7LUlVm9QrMyHsBU8IrLC+xEGPbgcV0JIrsbH8/VBmhGDbBLiGGxlK9EzrUNhanW+X04YoxV8Bbo07ubCRW+lz+7EPXnZ+P2cZHqJO37splIOgtrH5uNYw23oR4i/dunAw1j54jP87H0RbuuhsMbkoL3SHZAzmsD2ew92o+taoBxZK5LQ6P2TX44MIbqTPT30zdhv31k6Dv8WfiuAesWcMd1Uw5lcJ4qG+r32H0vQgnkbBbopo2b8O1z+6TW8/kaVkWshTr2jO+yAwDseqAF0CZVo9zbwUadywh5Z4TcQK/90ehu0DriVNjgxmiAW437i88iRWeUMwEAOwc4AG3SUQfAGymJBD3SR96RY/cu+hnJYEHpm0+PbjdD77sf4ql0+Cw8Tu6ab0QT02YBADsfOAAAAABAD9KlWQAAAAAA2MnAAQAAAAB6EDgAAAAAQA/S+hgAq6cvJX/vH0ppAeSg9f77kzX7u4EftJTUE0jpATSDTEU8VaRqHYIWaeHe1SQYsV4+GNZxdyPX49nocd38qkFuiQFuyf3igXFCcr9ETfuwRn9wPFG7i2v+h21wRNvTg/SyjpcatCf4NkSD/Yx0vf1we3RNqeNVX4+UHZ4jOj9JB77s1RkAAIC9SOsZgC1WA2yFwuiEaRDsMDp973KV3Kz+vC42t9/mzCf0CBIaBmLg2fgnasn7evbiGPB+XieAF28sVdI2qNEfVedjIzp5hGy9aA+k1PbYAJ/k7ZtR4QdH7vGUzXh90IawDv8dETh61kv7yjXZbA3b7g25FCCSOgyyTuoLxPswXz9qs6YCAADsXNrsAohr+0dolb15uvV+rNV/61XbphRpYj6rQJCoC9p6XqKCPloI6BYfz29Lavu7YkC2hFXKKhVuXYlOpAoD6fv9ea0ioLZPzjM/b3oE8fnCthcn/TWFbZD50e69ssSFiNz1zL9/K9Y4SFRRy7h3Hit+1FxRo7i2fy0Ste1NwMbzcFUi4rAyIZtOKZfL8bHW0bcyuneqhGKsxv/duaqCM25/X3feldeloVJsmFVw5x7dS8gt5x+vKXydfitBvPxO6EQ4IpEnxlUZ9OI4Ht92AADYW7ThAOSpAQoFKvUv0bSp+JVOeTVAplAimuf3v75AlcIYTaiBFSM6QaVAC0CqAsbGt8T/yTanJOjLDEuqX7sUVG9glspDE4HRXKIljgILw8cDJ6MObPiWXufj8NmK69M0y/sXB/3eTsFQ2jf7gNtwwVcjtOIo0ga+Jkq0m/caIrpt10RDJ8xxqHXvWqGGkpsvIysp/coyzZmxW3g+rPbnIn6NpEUgx5wJTc33r6hOvYgVOWPOn8Z7rvJcXBnvcdonXQL9R2MhnER1vtioPt4fJO+1dHKWQ1HveLEY0MuhEqBmKNz6Y0OBwddrItr33AW3Dy9ZqoNjB6W7ITD4N+bomnZXSHXE2FEAAIC9QNcGAZbnXT//9VVJdhdp0EfMlQWafc1ee84epxF+4JfvmyF87T4b4dD4VmhhJm0kz9Fx6Yi2EsCLi+xA2BbPJzPmZPzUVtRlnVatj3991Y1S8HLFYRvK62wRC0U+32U6JH3KvuyxCBrpO2Iqi7NOCOm10+wkNDiGQN876sYvtIuqEErae4aWaZgmvcF8Ial656WKI35yhiafXKGZ57+wFd54s5H83I5XYUN8no9nx+rrf0Rzci6Vm3XSvisvzbn3mcEWPXoHG2stnRzW5TdqHM8ZZTm/LFZSOXIO4i6PmbvE53QOis9i7N+Y023J7gGDHSUZH7D2UR11QwAA2CPs/lkAPmtgS8JovnuRbvPDvjQ8Yiu6gww2DNtwOu3g7Ags/a5pf5969335kg0wYRnt9+bXTz6yQXwuGpeug282xHivUVn73IPj2RiESOY3IUHromd3njfo3gY7EZKa1+4ENstW018H50n9enFQah4vxAkXZSH1/uU6ROrWpfZjDYCFz/VocarfBhumBw0CAMBepssOgCn7VZbok1qRrw2KKx2yjoJXD3F0XaGlf6oVAV8nVXCN0urZXLlfZiNVqIrMhcuT1RF7fS7ThJZFvc+RfZk0GdDpwYYtjQGoh1O3i/Xrmf7+IH1u4wNusNEVo+p14wM1uWQfueunpwdljphNQbDfRhTkKdC9cJIOS5QtantRZsItEpXrLAB1Oho9nhuvkBjXYDh1QRsXYU6N173XVH+FHRhJ9cssAM1E1BNxSuPHfiTHpAAAwG6haw5A6ZQ8HEWpr0yzdaf9XaHTMibAp9JPlaj8Yf10+ZWf2ZgAUQjUboD0gEPmtVl+j71mrli3gHQbTLABl66GxvDnmaBSZYGmtd/+Ol0cd2MGJuz8O8ogiHGzPm8/BsBF9RyVv7NMm16RMDE+wNQAs9TkVIlPUuuyj80i0P77GvuEbUiI69Si8ePJCH7XN+9G+ut6XnQMwLTtI90GH61Fyn7Hhtbojt4Hy4TwW0J1wfpKfII5oPy9KD6hKwAAYFfReS2AYI77zkyFA9AhOl0fAgAAtpDdPwYAgC3HpqzC+AMAdjFQAwQAAAB6EGQAAAAAgB4EDgAAAADQg8AB6DJSrTBzdgIAAACwjbTuAAR19LW+fqLOfTbeGOqS0AGwY/htDRyrJta26HjB1LxabdjZ2LxzuTemj9Bu7YFfnD9Fn/3NCfqV/Q0AAKB3aN0BaEHR7vqL4+Tq+duKAK2JL/X87e9OUP7QVebT2v2XnMGs1YZu4M7XiSmRft45AAAA0D5tdgFkKdolVf06URgnEbX7yDcrCs6JjLUaYKhHkEMiC8FLfUVCF5VnK/4l70PYBeAyJnw8vz3MRFRlL3gJMiKV9RwXSdvYYPXA0SP06795gf7rj77LfzxGp/j1Z7z8w3Nu869+yX9fPUH/cNWtj7IEz53g16fob0fljz+lv5Xtv/xz+SP+24716/N/ausBAADsRNpwAPIU7WR9XBc/VM5rCTZsU2xwFl6X40nkXqKJWqn7ynpVFuHyoQbKETMuC2GLKhKeD5yXbEVCoTBUpCVpX5Xin63LYojbJBmKtCrihTEqmL6BKCmKeJKrOujap1oHKhZ0ms/QIot36Zn/doP+52/+yH/8jj7k10/x8vMP3Gblu4/x+2T9Z3w/H6PxOgb9V788SaN/+EyP89Tff0n0o5ORQwEAAGDn0ZVBgGHEPiEiL22QNN7X6RPRphUlvq/WqaJRvUXhHPmeGywSbaxGZYddOWJpQyPliJkw+j7lVQA9WYqExoPbzReDyVJFNHKj/Fp0UkFQ+OOX9JE6BP+bfs5G/Zl3fq+rs/lzOvhn/M+fPeUyAL94sgWNBQAAAFtJ5x0AjdgLQf+7re80fgzCE8dpZKNM68PHOUJPGk/fhsai5ct0S+R8vbpgXuTeVZyDUxidUidE76PJKu8GKr+ZcxmArIwCAACAHUVXMgASLevYAI6oT7SZAXDa+yN03Prcjw+HSnwFGhkfofX7s+wMjNAJ3uZ1/FvFORDnnIrhluOUBmPHpYnBg82MAegEz/0FjcoQAuX3tPFH/ph+9BeYUQAAALuEzjsAqr5nynmXirQk/diGG2QnCoH8hynyOYNlU9xEaU/eaKqAMnBORtG7Ufy2L8VKfDIqvsDHWv9KImf3uh75bbhCs9xWF31PUXF5gd2YNvDdCdaV4Loj6k3dc23wXRdu6Z664N+/8xvt308PAszlg/9Fi3/8Lo3+gt//H9k5+z+2nh2A//KKGyvgjxUPFgQAALAT+RNoAewgxGlIKCnKTIIJKi5Od65vHwAAAGDgAOwoJBNi2QmPzAJoZAAjAAAA0ARwAAAAAIAepEuDAAEAAACwk4EDAAAAAPQg6gBEhXt2lTgOAAAAAFpFHQAnWDNL5agkLQAAAAD2MkEXgBTWISoOIgcAAAAA7HUwBgAAAADoQQIHwCrrFbejBC4AAAAAtpJEBkDkZqfXT3S1/CwAAAAAtp+EAyB18qeKt2nUdP4BAAAAsDcJHIBzNNiflNMFAAAAwN4EgwABAACAHiRwAEpUbEBOFwAAAAC7H3UAXCXACSpVFugdyM4CAAAAex6oAQIAAAA9CMYAAAAAAD0IHAAAAACgB4EDAAAAAPQcRP8fAMaCcEM2DlYAAAAASUVORK5CYII=;" vertex="1" parent="1">
          <mxGeometry x="485" y="156.23" width="240" height="72.66" as="geometry" />
        </mxCell>
        <mxCell id="wcw3lpg_Nm0PKdcRu7sU-16" value="" style="edgeStyle=orthogonalEdgeStyle;rounded=0;orthogonalLoop=1;jettySize=auto;html=1;" edge="1" parent="1" source="wcw3lpg_Nm0PKdcRu7sU-8" target="wcw3lpg_Nm0PKdcRu7sU-15">
          <mxGeometry relative="1" as="geometry">
            <mxPoint x="210" y="320" as="sourcePoint" />
            <mxPoint x="490" y="320" as="targetPoint" />
          </mxGeometry>
        </mxCell>
        <mxCell id="wcw3lpg_Nm0PKdcRu7sU-15" value="Написать запрос для получение всех филиалов" style="rounded=0;whiteSpace=wrap;html=1;" vertex="1" parent="1">
          <mxGeometry x="270" y="290" width="120" height="60" as="geometry" />
        </mxCell>
        <mxCell id="wcw3lpg_Nm0PKdcRu7sU-25" value="" style="edgeStyle=orthogonalEdgeStyle;rounded=0;orthogonalLoop=1;jettySize=auto;html=1;" edge="1" parent="1" source="wcw3lpg_Nm0PKdcRu7sU-20" target="wcw3lpg_Nm0PKdcRu7sU-24">
          <mxGeometry relative="1" as="geometry" />
        </mxCell>
        <mxCell id="wcw3lpg_Nm0PKdcRu7sU-20" value="Написать запрос для получение всех услуг с фильтрацией по выбору филиала с пагинацией&amp;nbsp;" style="rounded=0;whiteSpace=wrap;html=1;" vertex="1" parent="1">
          <mxGeometry x="980" y="290" width="160" height="60" as="geometry" />
        </mxCell>
        <mxCell id="wcw3lpg_Nm0PKdcRu7sU-26" value="" style="edgeStyle=orthogonalEdgeStyle;rounded=0;orthogonalLoop=1;jettySize=auto;html=1;dashed=1;" edge="1" parent="1" source="wcw3lpg_Nm0PKdcRu7sU-22" target="wcw3lpg_Nm0PKdcRu7sU-24">
          <mxGeometry relative="1" as="geometry" />
        </mxCell>
        <mxCell id="wcw3lpg_Nm0PKdcRu7sU-22" value="" style="shape=image;verticalLabelPosition=bottom;labelBackgroundColor=default;verticalAlign=top;aspect=fixed;imageAspect=0;image=data:image/png,iVBORw0KGgoAAAANSUhEUgAAAZYAAAKZCAYAAACbRg3eAAAAAXNSR0IArs4c6QAAAARnQU1BAACxjwv8YQUAAAAJcEhZcwAADsMAAA7DAcdvqGQAAGZcSURBVHhe7d0PdBzVnSf6b4JlG4gDnmaNEQ5WB0NmHBqHMUwj2T4PxU5IdI5EIAOG6VHeWtFqZxejY71kdudZGp89Xsk7M0tiH8VJZrWKvLvaDv8SHKSzmvyxI94xluhgjyOaeCdg0jJjhK2lY8ABbGSHd++tW923+n+rq2119/eTU+OqulW3/oi5v7p/qusjHwooURcuXNBzRERzx2WXXabnKtNH9b9ERESuYGAhIiJXMbAQEZGrGFiIiMhVDCxEROQqBhYiInIVAwsREbmKgYWIiFzFwEJERK5iYCEiIlcxsBARkasYWIiIyFUMLERE5CoGFiIichUDCxERuYqBhYiIXFVWgeWDqUN46u/+Cs2N6+D3+8W0AQ/++0fx1C+ieou5JoqhLfI8exHWayhXvHdEc1WZBJYP8PJ/a8X6ex9G74FzWPUvu/Dtb30b3/6Pm3Dzmz/Go4804MHdYbEVEREVW1l8mjjyw4fxlb87hOubv43/+m9uxyLzq6AXzuDQd/8VHh58HXVdT2BnY7VOICIqDn6auNRND6FXBJUPajvxzcSgIl22CLe3dSJQ/QHGvvl9HGK1hYioqEo+sESefQpj4t/7N34B1ekeEub78IV7bob3lncQPaXXiYDUofph0k3JbffRXwSxra0B61S67L/pxU9+kxCp7Hx3J7f8R4c7xH4dGJrWK9L1E5x5GT/Z/Vdo3rhBn4sfGzY+jG2DhxC1KmlxE72xbVJOW4bEUSzh3XJdDn0SeV2DJfrSU3j0kQexQR13HRratiGYrm9LX9+Dd1vnuGHjX6H3pxHdVGnfkwyTOi/2sRDNVSUeWKJ4+Rcvi3/r4Lt5vrUqjZv/5SAe/9Z23P0JvcK2vt3qj4lN2xH4I50W8wHCfc340iO9GFvwBfzlo7r/5vWnsO2hr6B3wsVq0Fuj6PnTZmz74Zv4wwf+UvcVfR1fWPJrURg/jIcH5fUmu/mh7TlcR3FMiWDzpa8+ih/jdvzr/yiO/ehf4gsLxtD7yJfQ+t9edvZtTYmg1SSv73Xc/OfynLdjU80kgn/9FXxVXZuoYbbGr2P7Qzer3eq3xNd9u6FGrSOiuanEA8sUfn1A/utFtUetyF/1rbj9T253TDVX6zTbK0H0fO9lXPPQtzHyrXY0rRPbfT6A7f/9CXTWRhDc0utaE9vU+Kh4Aq/GX3ynH51fvts6p8/fj6/v+q9oF4Ei8t9/nvIJ/ZobndeQ8jqK4Z9FcO0WdcZ1nfgfu76O+z8vjr2uCe279mLnl0Ut6bui5vKK3hZnRHDswdh7degMDmJ7s7y+uxH42/+htn159wB+8tZ8VN9iXMeN16g9q1ca6z65SK0jormpTEaFFVf4JwOIiFrRpj+7HY560WXV+MLG+4H3nsKzh92JLNVf3I7Hf7IXmxJrG5d5cevt4t/3XKwdueDl/d8Xge5mtG9ucjZFXrYIdQ+0i5QIBkZ1KIyO4cf7gfnNLWhyjKGYj7q778eiJa/j1//7jF5HRKWq5APL/Cv0TNFEETkmC/MFODN5CId+4ZxenDoHWVma+OfX1dau+eAMopNhcYyf4Km+Xmx75EF0DOq0ggTRavZX3P0gHv4PQRxK6DPJjbg3L02Jf++AN7GJUar5Q5EiLuVoRGwpnPi16g+7fXmKkXmr2rFveBDttayNEJW6Eg8sNfjUWvlvBFNFewdyCpPj8t9R9D7yMB5OnP7O6hx/efp3cqPCXYji0PcexoZ1G9CwsVUcYxt6h1/AB5/4MprW620KUo92u69C9mG0iWrQeC8e3tiBIRkjTIOt8QCkpwbZ7GU4d976d0Flj64kIkOJB5ZF+NRnfOLfMYRfztxE9MH4o2j487/CowcSS89sPKhZLf6p/gsMhkIIpZs2y/Mo3MuDIlj1HcI1D2zH48P7cGAshAPiSf5v/t09uN2VPpNq3Gr3VYjp7i9/Hd/e9Reofm8M//nphN6bpIEN8c5024J51r/nEkerEVHFKvmmsOr194tncOCpJ36MqbSF2xkcHHkG0Vd+Dc81+b4geQ2ukYOQpl7EP6VoLpIBa11jMx591o0q08s4+ExE/BvA17fcDe+SRZgfqwm8jteP6lm3/dHt6h5+cEw3WdlSDGywO9MtHnhvkfdzFOHfWGscJv8JL4h/5q/0quZCXFeDOvHPoeMpgvvUEB6++0F0/FBePxGVstLvvL/6brT8Gy8w3oP/57uHcCZFcJn60TZs++kHmP/5dvxp3kNw5+P2uwPiOX8Me76fkP+FlxHc9RQ+mL4evs/MdliaqQofu0r+ewYfnFMrYqI/3YPe/y3nPsCZFJWz668poG9CBIAXxT/zV+gAkIeb1/8ZfJjCwH8Zcgb2C2cw9mSvCJXVaFmna3NL6vGF9eIKfjiQ1OwWeW4Ih946h1tFECKi0lb6gUW4ufnb2PmAF5HBh9HwpQ48+sOfqI71seG/x7avbsC9/2kMWPUX+N7/W4/ZFL/zxb7bm72Yeuxh3LulF0MHDuHQT4PY9n9/FX8/OR91Xe24O7GZStRwEjv6D736pkh4E5O/PITIW9ZmTl589svymX4I/94+zoEh/P1fN+NL/ymCNetkM9TreFPu+1ZE5DmGp4Zln8d8fGxR5vd44qbwYuycxjDUtw2t//pRhK+ow1/eN4vmvE/cj+1d4pwP9OArWx7FUz+1zrl3y72i9iH+Nl8136dZhLs3d4payxh6Nj2MXnHucnBCUFzfV74Rhrf54r17Q0TFUxaBBZd5UPe1xzHS14n7V76JQ6KwlB3rHd0/wMuiwGx/VKR9dxNunvUIsvnwbRZ5fKsdded+jP/89Yfx8F//PQ5dUY/27/wo9e+P7e91dvKLadtj8gVAUcv564cxfNzaLJGn8W/xeNf9+NQbT6FHHqf7+5i89s/xvaFBbP/yKrHFIbw8Kaosx4dFniKIDr8JX9t30HKLtX925iCEDvR8bwy/+0wA27/3twlDgHNX3bgTP/qOuDfi3P6LuLaHv94rQoe479/6EQbbfM4h2tVN2CmupVPUXMZ2d4hz2IY9L1+P+//j4/gfmxO2JaKSVBY/Qllawuj1twJ9IbTLOEFEZYc/QklEROQiBhYiInIVm8KIiFzGpjAiIiIXMbAQEZGrGFiIiMhVDCxEROQqBhYiInIVAwsREbmKgYWIiFzFwEJERK5iYCEiIlcxsBARkasYWIiIyFUMLERE5CoGFiIichUDCxERuYqBhYiIXMXAQkRErirpD30dPnxYzxXXZz7zGT1HRJRdpX/oq+QDy2233abmZ2ZmUFVVpeYLZeZ15MgRBhYiygu/IFkm3Aoqkpt5ERFVmpIPLOfPn9dz7itm3kRE5arkA8u8efP0nPuKmTcRUbniqDAiInIVAwsREbmKgYWIiFzFwEJERK5iYHHDRC/8fj86hqN6BeVseggd/g4MTevlrMLoFfe6d0IvlonocAf8W4bA/4KoHJTNC5LFkv0FySiGtjRgckUAwUGgP9QOn04hosrEFySpMNMHMToeQP3meojQgtGEJ+nwbj/8u8NqXj2VyqftZ1M8pataT694Hk/x9CrTEpf1thbrKV7mrSZ9PEXVCMS2ulaVlC7Y52VN+rzM7c1JnofKM2G9I08ZbNOlJchUY0k6jrxms8aSXHtJfvJPf28c2+rrjdc6nfs5aqOprj9xG8f9c16f836LSZyT87wTzllN5t+baG5jYClQNDSKseZ6UUvxob4ZCB5I9//+YQS7gc7hENrvWoP62jGMhuIFUfhAEHVdgVnUdmQh1Ar0hRAKyWkEncdaE5rlgmjdU4MRIz1WwIoCsKHbK2paev8+L3oaRSG2qj2eXy0QsPPf1QSP2jEQ3yfUj8Bgqy7grRpcz4r++P7m8fJmHiff2mAu90YS57wnqK5xZ6O8Omu/SNeI3q8f3u6GhP3q1N/SSg+hX/ztY2RQaYvE09U9TQiezfb9EdNm51WFd7ciWNup/15iGu4URyMqHQwsBZHBYgyBdVbB4HtAFACDA6mfvidGEWxuQdMSueDBmvV1GNt/MPaEOjpYh3q/VWTnIzo8IPLtR/sqvULk3bS1E+gOilxtohDcagcEkb4pAAyOinSrQHUENBVQCmjOmwiiR9Tg+mOFpXU+ae9LEeV2bwRZ60QnAno7tZ8o2LtUkJF8aO8LYCxxv5Tse9ql/9aCuKf9zWPoeTL34Fq3fo3+exGVHgaWQshgIQogu0DCkuSaiCKe5v2yxmA8mXr89agbn8SUXJiOIFJbjzV2QZSHqeNjVv5ms0ljD8RagxdeM+/rakSoEcecnsLkuEi9YTZFmKgFxY4pnrB1AR59LQLU1qBab6UsEcfXs8UQbItfe4MI9Lac7s14DxoaJ9ESq4np/VZ4nQW7ume5SH1Pq5fnXufwrRNBLPbQQVR6GFhmzXoyVQVTrOBqEE/rSH6yFYXuyPpRNJht/yoIWX0ysjkNhTyhms0qsanYgwjMJqp0TUwXR6yZTkwjXQkFeLZ7I5uc+iCC5Bzqw5C1xq2iYpUuGBLNcQwss6U67Z3t7GpS7eHJnfiexhYERBAKxtZbzWHBA0M4uB+zagaT1JPwsUiWp1tZO9Gz0huToqCStZhq1NSK1NcKDQi6ae/4FDw3iLqJXROzyRqZnr2Ycrs3wqoAOkWQH9CBMeV+6p7lIvU9VbWgnImHlh0imNhBkX0sVGIYWGZJddqnar5a0oSWlJ34PgTE03RwT7zWoprDBnvQg9k1g0l2wOo2agvJI6PM9n2zX8Xqb3HUsDKN0korKoLjGOqWV8cK6dZYZ71dSNr9SxdPbvdGct6H5P3C6G3LdXCFnVd3/B5O9KJ1UDyEPJBjHTKpn4qotDCwzIrVaZ+ug1W2kSNFZ3VSgaWaw9J01IrtYk1solBLWo7xoV080aK7QTfH+dGwvx4jRp+B7LwPYECnWyO2rNFPwqp2jHRF4v0ljT3w9u3MIQiYfSwiT9id3aJg3aVHghnHSxz5dHHkcm80R0AU++mRYNZ+1ggxec9UYJJNU5n6xGRTlhoJpu+PGiGWyz2V8gliRHMTX5DMorhfkBRP81u6ga25FjqzIGsgjaOoz7lgI6JC8QVJunTUMNfZN4MREc1FDCyXiHojX9YkYu+XEBGVh5JvCvP5fEX70qP8NHE4HC5iUxgRlSM2hZU4fpqYiGhuKZumsJmZGT1XODfzIiKqNCXfFHYxsCmMiPJR6U1hJR1YLly4oOeIiOYO9rEQERG5iIGFiIhcxcBCRESuYud9Dth5T0T5YOd9iQcW+7fC5BDhqqoqNV8oM6/i/lYYEZUjdt6XCbeCiuRmXkRElabkA4v82ZViKWbeRETlquQDC3/ShYhobuGoMCIichUDCxERuYqBhYiIXMXAQkRErmJgccNEL/x+PzqGo3pFZYkOd8C/ZQiVefVElIiBpWBRDO0JItAcwFh3EGG9tpJ4GncitIufWCYiCwNLoaYPYnQ8gPrN9QggiNEJvd42PYQOUZuRNRpzctRudI3HnnqNPOS38TuGwxjaYqd3YGhaJ4ow1mvsF08TwS62vZh2G+Eul/NJyNdMU7UTI03mnVhjUd/zN7cRk3lNRFTeGFgKFA2NYqy5Hj7xv/pmIHggVZ2lDp3DIYRC1tQvtouRQaUN6NdpoeFORNrM4AFRE2rF5Cad3udFT6OZbua9E01LZFBpQM+Kfr1uBJ3HWp3BJdP5qKDSikjXiE7vh7e7wRl4mu28xbTZp1dq4npaB838xfFrdRoRVQQGloKEEeweQ2CdVbj6HuhE3eCAIyhkppvR+tpFWNKWNKGrC+h50ggEoiBvX6XnVwVEQT2G0ZBZwzBMBNEjalD9sQLfg6atuZ9XdHgAwdpOdDXaDVs+tPfl2cxXW481S/Q8EVUcBpZCTIyqQjhgF/pL1qA+U6GfZAqT46KW0+ZsNmoQwcpUt7xaz0keeFeIWszxKb3sFH0tIgr2Gph7YIkXXj2bzdRxcewVXmd/yXU1oo6To1X1CIyP4mDOwZWIyg0Dy6xZtQ2M96AhFhQaRG1BNl3l14kf6LObjYwpsYmpZIgaTkhUuXY47wkRVQ4GltlSnfbOvgo1DXeKp/sUnfgpVaOmFoi8lrmG46ydRBE5lliLifPcIOom45OiLmSYjkDUY3JSvVzUTY5FYh3xyhuTcNahMosOd1vNceqesI+FqNIwsMyS6rRP1ZewpAktaTvxE3nQtEn2X3Qb/R/WiC5HZ7nZP6L7UFpifSAJVB9MEK2xznqR344ejDW3oCmHfg9PYwsCohbWHTt+GL1tQdR1BeL9QBnpfiez34iIKgoDy6xYhWfd+jUp393wrQuoYPDY9zvgbxSFeqbO7FXtGJGd9Y3xpqPR9SPYaQaOZi8m7fS2iKglZSq0RbDapUeC2U1RcoTYZp81LDjb+aimLGskmLW/NULMcT4ZhHe3OvudiKjilM0XJIvlUn9BUr4T0gorMBBRaeAXJImIiFzEwEJERK4q+cBS7p8m9m0OsRmMiEpKyQcWfpqYiGhuKZumsJmZGT1XODfzIiKqNCU/KuxiuJSjwoio9FT6qLCSDiwXLlzQc0REcweHGxMREbmIgYWIiFzFwEJERK5i530O2HlPRPlg532JBxb7t8LkEOGqqio1Xygzr0v9W2FEVHrYeV8m3Aoqkpt5ERFVmpIPLOX+ky5ERKWm5AMLf9KFiGhu4agwIiJyFQMLERG5ioGFiIhcxcBCRESuYmBxw0Qv/H4/OoajekVliQ53wL9lCJV59USUiIGlYFEM7Qki0BzAWHcQYb22kngadyK0qwkevUxElY2BpVDTBzE6HkD95noEEMTohF5vmx5Ch6jNyBqNOTlqN7rGY0+9Rh7h3XLbMIa22OkdGJrWiSKM9Rr7xdNEsIttL6bdRrjL5XwS8jXTVO3ESJN5J9ZY5Dk7thGTeU2JkrePX6NKM89f3SsrPelc7Eltn3hv5NRrBX51D8z7mHycpHMyz4GIMmJgKVA0NIqx5nr4xP/qm4HggVQFUB06h0MIhaypX2wXIwvKNqBfp4WGOxFpcxZ6Y92tmNyk0/u86Gk00828d6JpiQwqDehZ0a/XjaDzWGtCwZjhfFSB3IpI14hO74e3u8EZeJrtvMWU+D1+cT2tg2b+4vi1Oi2DQJ/eXlx/nV6XzKod2lRNSZ9jwLwmcU7h3a0I1nZiRKVny9dJBpXWY8a+fQFgsDVjcCSiOAaWgoQR7B5DYJ1VuPoeEIXX4IAjKGSmm9H62kVY0pY0oasL6HnSCASiIG9fpedXBURBPYbRkFnDMEwE0SNqUP2xAt+Dpq25n1d0eEAVyF2NdsOWD+2iYM2rma+2HmuW6HkXRYe70SPCQ64Bom79mlk1z/k2i2BiNu2tkrVRIsoVA0shJkZVIRywC/0la1CfqdBPMoXJcVHLaXM2uzSIYGWqW16t5yQPvCtELeb4lF52ir4WEQV7Dcw9sMQLr57NZuq4OPYKr7NAvq4m58JcFcLjoziYR3CNHKtDzXV6MS0ZxL3o31qvlzPzrRPBcP/BWPOcg7of2f9O8aY2UfvR64goOwaWWdPNMuM9aIgFhQZRW5BNV/l14seagcwpsYmpZIgaTkhUuXY470l6MriKgj5LDUfWpCJdgXjNLptV7QhtBbrtv01jjwglNnGOw50isUGfox+tgzpJsANKgwxk6u8hm9qIKFcMLLOlOu2dfRVqUm35KTrxU6pGTS0QeS3zk7OzdiKf8BNrMXGeG0TdZHxSFNeG6QhEPSYn1ctF3eRYxPmk/8akUShnp5qsZHOcuidZ+ljkuSXWsJKImqEo5FtizXO5EIF/hwgmdn9QYh/LkibsNP5u8X6mKA7uH9PB3miiJKKcMbDMkuq0T9WXIAqslrSd+Ik8aNok+y+6jf4P2fmeMErL7B/RfShpC1nVBxNEa6yz3i5gW9CUQ7+Hp7EFAVEL644dP4zetiDqcq4t6H4ns98og/CTPUC2vpBBUTPMMb+YpL6m/MSDvfx7sCmMKB8MLLNiFZ7pOodl+74MBo99v8NqgsnUmb2qHSOys74x3nQ0un4EO83A0ezFpJ3eFhG1pEyFrAhWu/RIMJ2fGiEmCljVxJPtfETO7XokmLW/NULMcT4Z2KOxYv1OGajRV4Oy6TDeJGU1WY05R77lmF9cvsHQZA12iDeTNWByk1Xryu1hgYjK5guSxXKpvyCpCl9YgaHcyGsbWJ4iaMn3TBpHUT8sh0/rdUQlhF+QJCIichEDC10y8n2RlE1sqmOdtRWiUlXygaXcP02sXtYrw2YwIipfJR9Y+GliIqK5pWyawmZmZvRc4dzMi4io0pT8qLCL4VKOCiOi0lPpo8JKOrBcuHBBzxERzR0cbkxEROQiBhYiInIVAwsREbmKnfc5YOc9EeWDnfclHljs3wqTQ4SrqqrUfKHMvC71b4URUelh532ZcCuoSG7mRURUaUo+sJT7T7oQEZWakg8s/EkXIqK5haPCiIjIVQwsRETkKgYWIiJyFQMLERG5ioHFDRO98Pv96BiO6hVlTH6P3t+BoWm9TESUgIGlYFEM7Qki0BzAWHcQYb22bPGzwUSUBQNLoaYPYnQ8gPrN9QggiNEJvV4L7/bDv9sIN0lP/GH0itqOrPHEpi1DIlzpVLF/x3AYQ1vs9MTagghssTQxmcdKlXeWbcxaV3S4I3m/hPNX12duI6behHtARJWFgaVA0dAoxprr4RP/q28GggdmU2cJoD8UQkhMI111el3cWHcrJjdZ6aE+L3oa7YJdBpUG9Kzot9JCI+g81poQOETufXrfpPxlUGlFpGtEp/fD293gbNJrtvMWU+K39yd60TpYh85hO39x/FqdRkQVi4GlIGEEu8cQWGcVuL4HOlE3OOB+/4Mo3NtX6flVAVF4j2E0JAr/iSB6RG2pP1bge9C0NfdziA4PIFjbia5Gj17jQ3tfnk16tfVYw2YxIjIwsBRiYlQVzAG70F+yBvV2oW8aFLUIu6mosQdjerUyHUGktgbVejGVuuVmqgfeFaIWc3wK0dciomBP2HeJF149m83UcXEmK7wiR8N1NUiuM6Wxqh6B8VEcdDuQElFJY2CZNavTHuM9aIj1LzSIGoRsukp44jebk4ZFjUKvVt6YxFhi4V4yRA0n1AXscF4/EVU2BpbZUp32Zv+CGTiSO/HTkbUOZ40kmaydxEUROWbVYjw3iLrJ+CTMVFUD0rPZVC8XIe5YJDZQQJGBTs/mIjrcbTXHqetnHwsRMbDMmuq0T9W/sKQJLTl34ss+GqDen6W+YvaZ6H6VFtkvovpbgmiNddaLWtSOHow1t+Q0HNjT2IKAqHF1xzrrw+htC6KuKyDqIrnQfUx97TluT0SVgIFlVqwCtW79mpRNWL51AWcwSMkakRUU9YOeRrspyY8Gka9qXjOGHKPZi0l7m7aIqCXZBbkHTbv0SDC7KUqOEJOd+eqlTZl/APV2H1AS2ZRljQSz9rdGiO2MdeZnFt4t8jf7mIiIhLL5gmSxFO8LkjKwDKBmOPllQ/n+SMP+eozsasLUbj9aoYMFEZUEfkGSiIjIRQwsl4xshkr90yiexp0IidpKaY4UI6JKV/KBpdw/TezbHGIzGBGVlJIPLPw0MRHR3FI2TWEzMzN6rnBu5kVEVGlKflTYxVCcUWFEVK4qfVRYSQeWCxcu6DkiormDw42JiIhcxMBCRESuYmAhIiJXsfM+B+y8J6J8sPO+xAPL6tWr1fy5c+dQVVWl5gslhxsvWLBAzctjMLAQUT7YeV8Gfv/737sWVCSZl8yTiIjyV/KB5YMPPtBz7itm3kRE5arkA8ul+0kX+bP3+hspCVNH7MNZNNfITxL4zW/dEJHr+D2WLNJ/j8X6UBf6Qmjnh66IyMA+FioO9QVHsybTK0JRnHpyjqV1WF+bTNpHT+oJWwYysd3EEDoc603OWlRSzSkh/17ju/zh3WJd7BPHwrQ8jjyvKIa2xPdJtX/Ka1FyOeeE/M1zSLieXLYxr9l5XtZ+iTUWdd3mNmIy7wsRzYKssZSqQ4cOfXjhwoWiTvIY58+fTzEd+fCbq1d/+M3DKdIOf/PD1asf+fDpKXudte3qXUeM9G9+eMSxvbF8/tSHT29OzFvnYWx3ZJdY3vz0h6eM9Ef2nnJsH1tOPMbU0x8+Ypyjyss+vxTpapJ5xI5nTaf2PuJc5zhOtnO2rjN+3MRla3/zPqjjJaSnu2bntsb+9vHVuZrXmOq+c+KU/1TpyrrGctM/jOQ0uW5VO0KOj3j5UN+sZ+UT+p4g6roC+rv1gtre/o59ZoG++Ha+BzpRNz6Kg6KGEB0eUN+f74p9r96H9r4AxrqD4pneOqa5L5Y0oasL6HnSfPrPl/z2P9C51fgombiW/uYgBoyaQ7pzxkQQPeMB9Me+N+NB01aRPjhg1HrSy3zNOaqtx5oUH1sjotljU1gxqeYkq3mldVCvwxQmxwHvDbP5PmQdaq7Ts9ISL7wYw+QbItfjY8AKr/Ork9fViD0k65jBNmeTT0O32Mc02BpPb+wROWcxHUFEbNXT6Mw3fq1S+nOOvhYRBXsNqnWSotJzk/mac7CqHgE7yBGRaxhYisEOKKJw9vaFRG0kJJ7iddolFNDn4pjMr1M298fXD4uag16dWR06h4389LQzVouYy+TnoUW1bYcdFBtEDUonEdGsMbAUQTQ0ijFdSCePGKtGTS0QeS2hYz0n1pN+jKoxWDWC6uUiDByLODvG35jUtY5CjpmBUftIL/05e24QdZPxSVGfMqj03GS+5txEh7ut5jgVEEfQKe4TERWGgaVYjAJPjkSKNw950LQpoR8gNgJLL2cQ3GOMaHqyRwSwFtWX42lsQWC8B92xvo0wetvsvhz7mN3GMazRWIW9c+NDoKsOwTZzxJs1SsscWZXunLEqIAryIFpjo7zEOe0w0rPIfM25kH1EY86+JyIqGANLEXgau9CJHjToPoeG4y0YEQUwBketAnhVu1iOoFWnW01mZmd/eoEVk7F8W491YiTWlCWbdfrh7W7QzTqtiHSNxJuk1DFh9Ic0YHS9kT5LnsadqrM+di0p3u1Jf84i4O0StYRjdt9OA3pWiJqeTFdDo1sRRAD1ad8TynLNWYR3i/xrOxHge0hErirrFyRzHfH1yhcb9Fyy9C9IXmyyJlBqL2SW4jkTFY4vSBIREbmIgYWIiFzFwFIyZH9CqTUpleI5E1Gh+COUWcydPhYiKhXsYyEiInIRAwsREbmKgYWIiFxV8oHl/Pnzes59xcybiKhclXxgmT9/vp5zXzHzJiIqV2XRFPbRj34UMzMzeqlwMi+ZJxER5a/khxtfDBxuTET5qPThxiUdWC5cuKDniIjmDr7HQkRE5CLWWGbpl7/8pZ4rLjbDEZUeNoUxsMyKDCz2z8nIzv6qqio1XygzL/6cDFFpYlMYFcytoCK5mRcR0aXAwFIAvpxJRJSMgaUA8+bN03PuK2beRETFxMBCRESuYmAhIiJXMbAQEZGrGFhK1fQQOvx++BOmjuGo3qBCzcn7EsXQlmKcQxi9juvsFWuKI7xb5L+7WLlTuWFgKWkB9IdCCOmpv1mvrnh16ByO35fQcCfQ3YDeCZ1cDlQAbUWkayR2nSNdEbQWMbgA76gAKe9jdLiDgYbSYmCh8rdkDeprgchrl6rW4kHTrhB2Nnr0cuHCT/ZgrLnfkaensQudtUEMFKF25tssgtfmNeo62lfJY+0Uyz6dSuTEwFKWrKYX8wk9/oSZmCabUzowNK0X1ZOw9dQrmz8czTcTvfBvGRI5JMxLctnOx8jDbpqK5+NsvomdR4omrKRjp0vLZvogRsfrUO+PF8Lqftj5GddhNfkMqXtkpSfUABznmfq+Wcz7bDaFJa+PHT/xHqStEYQxOijqq+sSC/bkAKauJ0V+Ga8z4V7L/RxNYebfPtPfLeM9kfT1x/ZNuNdUshhYypIHa9bXIXjA/n/TKA7uH0tRELlFFBB7gnreST5Ze/vswk4WJEbzTV8AwTajcDab9lTzVbdOE8GoLRJv3hL7jXUHMxRCY+hpNAqsRnkOO9G0RCeLgrGh2xs7Vv+KHjSYhfhgDyY36bTmIFpjgUech8rLShvpgjhOAYXhRBA9K/oR2tUk/mLi3uyI5y2vv25wwLg3hukIIqhDzXV6OQ0ZPFuPdWJEXecIOo+1OgNy2usUau39xJS1ZpLu75ZZdLjbun61rzi/ItW26OJjYClTHn+9KJhGrUJPPbEHUL9KJblOFhCj6ztF8ZJIPlkbx02sOawKiMJkDKOhdIWJF14VDHxoD8UDQ/S1iDWTVkIfS6gfaIs/SYcPBFHXFRC5WnwPyEJc3ytJFKoBfc4qbXwUB2VBOTGKoLhK+3o8jS1iKYjR2BN4fuR5xIO9VduQzUzKG5MiPBZCP0xskkFLEvlvEgF5/0FH8Eh5nQWz/26ZOZvTpjA5rmep5DGwlCvVr6ALPVlINdfHCtJ8jHU3xJ/821LVSsIIiqf/lkavXraJJ2D/AGqG2+PHVYVlpkJH7hOvZSBW+DubTLr3q5V58CHQVacL1SgixxKuSxxrTNQBInahusKrC2NhiThfPasCWm0NqvVyMuP8/Q3oyVBQBkWgG1g+Eg8kgqPZao+sk6ShzmkMk2/o5ZSsgloeJ5an/PuNT4oULc115i/d303KcE8cTW4DiNTq9VTyGFjKVrw5zPlknJ86Y9SRbIJKdHB3K9BnBI8Y2TzSBewwmrquqxGFpVGAJzFHuY2gfr8eySWbjESNy07buWn2RaC8L94VCdelJqOp7Fgk/lSvmp0snhvEcc2COYnz/DszFJSBvhC60O3ojxgYNGpaW+ut9Sn5UN8siuxYU2dcvC+kGjXi+PI4zus0/lZprjN/af5uSrp7YjWfxv8OXch0xVRaGFhKUHhCFBzy6T/j07MoCFVzWCtaRYGVrT1+VsZ70HMs3pySzIMmUUCO7tBt96oWZTR9qYDh7FRPzw5I6ftz0pO1qjHUrV+jntB965x9NFZHvtFXYjQJqdFXtfVYI4POqnpRTMabvqLDA2Jp9k2MchRX/X6zPyJeC1HHtWZTsprvEvpMRA1A/q07H5ChQz9Y7In3m6igY/ajpLvOi2jsuA7T6r8Fa5ZKHwNLCap+bUA1a9gFZVp6mC1SFBjxJpJWUTgand2qWShXohDbarfhp7GkCV3rR3XnuOxH6IfXboYS1xAwO9UTm02gg5bui7HOsRvYJArVjDWfhM57eY3m0NxV7fqdDyu9QWTZaTbZNXsxqfdvHRRP3KpzXfKhfbgTEX3vkvbLmw68cgCAuE8tshai8x5d1y9CVobmLrH9zpBxL+XUBlE7iN9P2YehBibodOe1CGmvM19p/m4ZWX0+EMFR7XegXr2HFQs0VNL4oa9ZMj/0VSxufOhLPqXKtnw336EoZ/J+taK/7N/RqJTrvFT4oS8qY3JUVq5NTURE7mBgKVdqxI18Z6TLaGoiIio+NoXNUqk0hRHRxcemMJo1fpqYiCgZA0sB+GliIqJkDCwumJmZ0XOFczMvIqJLgX0ssyT7WC4G9rEQlZ5K72NhYCEichk774mIiFzEwEJERK5iYCEiIlexj2WW2HlPROmw856BZVbMN+/lEOGqqio1XygzL755T1Sa2HlPBXMrqEhu5kVEdCkwsBSAP+lCRJSMgaUA/EkXIqJkDCxEROQqBhYiInIVAwsREbmKgaUUnRzHM4//DL/Si9KvfvY4nnn+lF6SfoWfPf4Mxk/qxbImr/VxPP4z845cXKeefwaPPzMO8y/gKvU3r5S/J5U6BhYqfUenEPV44IlOOYItEV0aDCxU4k5h/JUoPNffio9dHsUxR62tjCytxT0P3oPapXqZaA7jm/ezdEm/eS+bRZ79HVY8+Dl8Wq+STWHHFtXjnjuvtdfgZ48fw8fu0oWR2uc43rcSAY8PD35O7i0K5mdGcTyWYLm8Jp6XzDscVbPGfno9lmP5e8f1/h74jHNyHvNyLLfP5ejP8PiLdoYWz60P4nMr9UJCunkuSYx7cc3zz2D01BLU31OL2NaJ163Ez9NxbVr8eIn3JuH6DLIpLHbsLNfnPGbCfXnlY8b5G39DyOuYxhI5/9sM+WfKI+N/B+QmvnlPFUAUkKHjuEIUPg8+KKa7luPy6DFHe70smFSamHwevVKQBWb4veWoV2k+eKJhZ19O9Dh+d5O9XxThWD+DKNBEAWYfs74GOP6s0S90uZ2nmG71IPqinSb2e/E9UdjG096ffDG+X4JTk9N431OtCvtr71wBz/vT+E1SP4QMCDo/ee16rU0GEpUmJue1P4/jV4iCV6XVY3k+NaJ01ycK/vj9lMd7H8fDs2jAS3v/Msn+3wGRGxhYKsK1qL3HqBH89ncJT/DpnMJvTr2Py6/9pH76/TRurbkc75/6jQ4egijgbtX5ftonCiq7YJf9HqJAr9ZpqtAXa6aOWstJLv8YrlEzn8bnjCafU++8Z82kJM8PWO6zn7g/jWpRUE9P5lj4Z3HtnfcYT/Nv4ne53bTU7Otb+Tk8GKtNnELGy8tH7P5lMtv/Dojyw8BSIWTzy+Ny5JScXnkv6ak9NaswveLjVjGY0hUf14WksPTjuELPqoCQqbB7/zhG7fN5UYSgm+KF7fgz8XPNWEE4+iKOvy+e+J+Nby+bmDLVcPIim5V0vo8/fgzv5XbTLOmuTzZFxfJ8HtNqY4O53+NhEYrTSHv/hAx5zO6/A6L8MLBUAlGYHYvKtnzdBOJfohOyuQYfEyXPe+9kKN3feydeezn5DuwH8Gs/LkLM+78ToSkNsynnQR/woh5Kq4JFvOnqnpvsUJXsV69HHc1Ydl4Za0Y5EwHuFTP/O5HrXVPSXN+vwsfxvuzXUOvvwYrEy0vYz2iZc0p3/1KkxfKY9X8HRPlhYKkY7+N3v7XmVOFmzWZxLT55rdn09Su8OGk2jQlGn4bK9/Il+KRsxlpZ7SjgTz1/TCzFm8Yyew/vqDytwj21X2FKFJJLamJnosnmMCD6uq6zZGzuyd4U9f4ZHRpVwLNmC2YHY1XQqzUX0Wz+OyDKDwNLyYoiHGvusJuARuPNHGYTyNJarJCF7YtW2tT18ik2XsBkIvsZfFfYTSsiT/G07Rih5bkCv9NNUeGoqGnE+g8+jc/dtRzv6WOOTkI8KRsjqhKbazwrrH6Vlbdi+eV289bzwE2ys90ONHEqUNlBLMGnr5cXewyjo89Yo6d0576THC0lR3ylCk7Stai9SeYTts7x9WrVsR8LNNmkuT6rH0qnhYAVNapKqAN3HtLdv0wK+O+AKB8cbjxLl3S48RxhDTfmcFWiRBxuTERE5CIGFiIichUDC83apz/3IJvBiCgJA0sB+GliIqJkDCwF4KeJiYiSMbC4YGZmRs8Vzs28iIguBQ43niU53PhimMvDjYkotUofbszAQkTkMr7HQkRE5CIGFiIichUDCxERuYqBhYiIXMXAQkRErmJgISIiVzGwEBGRqxhYiIjIVSX9guThw4f1XHHx7XciygffvC/xwGJ/xVH+xlZVVZWaL5SZ11z/iiMRzT18875MuBVUJDfzIiKqNCUfWPhNFCKiuaXkAwu/iUJENLdwVBgREbmKgYWIiFzFwEJERK5iYCEiIlcxsMxaGL1+P/wppo7hqN6G5procAf8W4bAvxBR8ZTNC5LFkv4FSRlYWoG+ENpX6VVERAJfkKTimOhNqMn0ilAUp56cY2kdGJoWK5P20ZN6wpaBTGw3MYQOx3qTsxaVVHNKyL93Qq8XwrvFut3GGU7L48jzimJoS3yfVPunvBYll3NOyN88h4TryWUb85qd52Xtl1hjUddtbiMm874kSt4+fr1J91Ddbys96VzsSW2f6jr1fy+xv4NcsCQeJ+mcHPeH6BKQNZZSdejQoQ8vXLhQ1Eke4/z58ymmIx9+c/XqD795OEXa4W9+uHr1Ix8+PWWvs7ZdveuIkf7ND484tjeWz5/68OnNiXnrPIztjuwSy5uf/vCUkf7I3lOO7WPLiceYevrDR4xzVHnZ55ciXU0yj9jxrOnU3kec6xzHyXbO1nXGj5u4bO1v3gd1vIT0dNfs3NbY3z6+OlfzGlPdd+ckzz+WnvEe6mtJvIfqHJ3rnPdETCpffc9S/B3M4yTtq64p8zVwKv5U6VhjKYZV7QiFdqJpiV6GD/XNelY+oe8Joq4rINZqavv2+HIGgb74dr4HOlE3PoqD6ol4AMHaTnQ1euxUtPcFMNYdFE++1jHNfbGkCV1dQM+ThTzdhhHsBjq3NsE+qryW/uYgBoyaQ7pzxkQQPeMB9G+2Uz1o2irSBwccT+jpZL7mHNXWY03s7+Se6HA3elAn/pebuvVr4vcwD77NIYR2mfe/HgE9S3SpMLAUk2rGsJonWgf1Okxhchzw3jCbYqQONdfpWWmJF16MYfINkevxMWCF11k4XVejCzbrmME2Z5NJQ7fYxzTYGk9v7BE5ZzEdQURs1dPozDd+rVL6c46+FhEFew2qdZKi0nOT+ZpzIAthO8jlJIrIsYTrSUkGXC/6t9br5cx860Qw3H8w1jznoO/XaChlaky8qa0VQb2O6FJhYCkGO6CIwtnbJ54oQyHxFK/TLqGAPhfHFKstCM398fXDouagV2dWh85hIz897YzVIuYyUcMJiWrbDjsoNogalE5KSQZoUdBnqeHImlTErJFmI2usW4FuHZidQV2co/hboLtBn6MzcNsBpUEGMnXv+1ljoUuOgaUIoqFRjOlCOnnEWDVqaoHIa5mfQFOznvRjVI3BeoKuXi7CwLGI86n3jUldQBVyzAyM2kd66c/Zc4Oom4xPiuLaoNJzk/mac6OarGRznCqUR9Ap7lNa8twSa1hJRlVtpSWvwBrF0A4RTOzAnhjUlzRhpzo/a4o/pERxcP+YfmDIrSmV6GJgYCkWo8CTT5Xxp0wPmjYl9AOkGPmTTnCPMaLpSVkYtai+HE9jCwLjPeiO9W2E0dtm9+XYx+w2jmGNxirsnRsfAl11CLaZI96sEU7myKp054xVAVGQB9EaG8VkF7A6PYvM15wL2WQlC+bcCmV57sjWFzIYBHLMLyapryk/8QcG+TdlUxhdegwsReBp7EInetCgmy4ajrdgRBTAGBy1CuBV7WI5gladbjWZmZ396QVWTMbybT3WiZFYYSSbdfrhjTWZtCLSNRJvklLHhNEf0oDR9Ub6LHkad6rO+ti1pHi3J/05i4C3S9QSjtl9Ow3oWSGe2mW6GqorC8kA6tO+J5TlmrMI7xb513YikMN7SHJIr3w4GDOapKwmK9nHZDwU5JhfXL7B0GQNdog3kzVgcpNV6woeyHn4ApHr+IJkFnPnC5KyJlBqL2SW4jmnJgPLwPIUQUvWNhtHUT+c24MBVQa+IElEROQiBhaiHMj3RVI2samOddZWiEwl3xTm8/mK9qXH8+fPIxwOz5GmMCIqFWwKK3H8NDER0dxSNk1hMzMzeq5wbuZFRFRpSr4p7GJgUxgR5aPSm8JKOrBcuHBBzxERzR3sYyEiInIRAwsREbmKgYWIiFzFzvscsPOeiPLBzvsSDyz2b4XJIcJVVVVqvlBmXnPnt8KIqFSw875MuBVUJDfzIiKqNCUfWOTPrhRLMfMmIipXJR9Y+JMuRERzC0eFERGRqxhYiIjIVQwsRETkKgYWIiJyFQPLrMnvufvhTzF1DEf1NpUhOtwB/5YhVNZVE1E6ZfOCZLGkf0FSBpZWoC+E9lV6FRGRwBckqUgSajS7w3q9fsIX63on9AoliqEtctsODE3rVdND6DDzsNMmeo11xhSrNTiP7ahBJeWZYhtH/sb5CPa5xyZxXc4aS6qaXK9YS0SVgoGlKOK1mVBITiPoPNaa1EQWPGAUt9MHMTqu5yUZABp74DXzqB1Dzw5RgK9qN9YBAXubXU3w6GNHukb0Nv3wdjckHLsOncN6HzH1N+vVkgwqbZF4ep8XPY3O4ILm/ti+oc0+vdIS3t2KYG0nRuz04U5xNCKqJAwsRRAdHkBQFL7xJjIPmrZ2At3B+JN7bQCBY6Ox5WhoVBTYgXghvKQJO0XBbOaxZn32IlodWxTsXY0evcaH9r4AxsxjpyVqTXuCqOvqQtMSvUoEsf5mEdCezL3OUbd+jThbIqpUDCxFMHV8DBhsdTYHidqHWGuoQf36CEZVc1gUB/cD9etqVIpTvGmpoduZQyrq2Cu8zoL9upocaw1TmBS1Ju8NzrBQvTz3OodvnQhi+w/qZjEiqkQMLMViNhfFpnZRf4irvsFrNYepZjAvvNfpBMUOKPFmrZGuEmhUks10W0XlLG1AJaJyx8BSBOoJ/1gk+1P7qnoEBkcRfmMSY831jqCDidFYX8XOWLNWdimPLfPXs5lVo6YWiLzmPHNVC8pZFEM7RDCxAyv7WIgqDgNLEXgaWxAY70G30WGe+l0PH+qbg2htCyKwztkJroxPYkrPyk71XJrCko8taj4i/7qugDNwpeRB0ybZH9Md76wXx20drEPnA9n3ViaC6BkPoD+hU5+IKgcDS1H40C6e1NHdEOtjadhfjxE1astJ9kkAAdQnvgujOs1F0LGblPbUYKRPbDs+ioPmCK0k4th6JJh1bKspTdZ6VHCTTVO19Vhjd84nkk1ZaiSYPq4aIbYz3pmfUT5BjIjKFV+QzIJfkCSifPEFSSIiIhcxsBARkatKPrDw08RERHNLyQcWfpqYiGhuKZumsJmZGT1XODfzIiKqNCU/Kuxi4KgwIspHpY8KK+nAcuHCBT1HRDR3cLgxERGRixhYiIjIVQwsRETkKnbe54Cd90SUD3bel3hgsX8rTA4RrqqqUvOFMvPib4URUb7YeV8m3Aoqkpt5ERFVmpIPLPxJFyKiuaXkAwt/0oWIaG7hqDAiInIVAwsREbmKgYWIiFzFwEJERK5iYJm1MHr9fvhTTB3DUb1NZYgOd8C/ZQiVddVElE7ZvCBZLOlfkJSBpRXoC6F9lV5FRCTwBUkqkoQaze6wXq+f8MW63gm9QoliaIvctgND03rV9BA6zDzstIleY50xxWoNzmM7alBJeabYxpG/cT6Cfe6xSVyXs8aSqibXK9amk2J7o/YT3i2WjXtnnZs8J/t+JU/WfU1/Hsk1LGvb+N8jOe9Kq4USFYKBpShkQWXVZkIhOY2g81hrUuEUPGAUmNMHMTqu5yUZABp74DXzqB1Dzw5RIK5qN9YBAXubXU3w6GNHukb0Nv3wdjckHLsOncN6HzH1N+vVkiy42yLx9D4vehqdwQXN/bF9Q5t9eqUlvLsVwdpOjNjpw53iaNkE0K+3H+nKtLUo8PcE9bwHTbv0MfoCgHFMWYOc3XlIMqg0oGdF/BrlOY11dzvvARGlxcBSBNHhAQRF4RtvIhOF4NZOoDuonpiV2gACx0Zjy9HQqCiwA/HCb0kTdupC0uLBmvXZi0Z1bFGgdjV69Bof2kXBO2YeOy2r4K7r6kLTEr1KBLH+ZhHQnsy+t61u/Rpxtu6LDnejR9yh3ALEbM9DBywjYHr89Tkfk4gYWIpi6vgYMNjqaErxi9qHWGuoQf36CEZV80sUB/cD9etqVIpTvEmnoduZQyrq2Cu8zgL1upocC8YpTIpak/cGZ3FcvTz3YtW3TgSx/QfFFeVoOoJIbQ2q9WJ6YQS7vejfWq+XM8t0Hp4bvMD4KA5mqYGoZriUfzsiyoSBpVjM5qLY1C7qD3HVooBTzWGqGcwL73U6QbEDSrxZK3Mz0Rwhm+m2isqZDoZZC+U3JjGWGAhTkDWxSFfAcf8yynQeIm2kC+hp1GniHtsNbJIdUFqP6aa0nJvRiEhiYCkC9YR/LJL9qX1VPQKDowjLwrW53lloTozG+gh2xpq1skt5bJm/ns2sGjW1QOQ155mrWlDOohjaIQpxO7BmKZSjr0VQtzxbfUXcC1FbacnjPmQ7D0/jTmu9mvoR0OtlQB8d1H1Qqs+KiPLFwFIEnsYWBMZ70G10mKd+18OH+uYgWtuCCKxL8Sw+PokpPSs71XNpCks+tqj5iPzrcnra96Bpk+yPMTqqxXFbZUH7QI51hYkgesYD6E/o1E9NNm8B9f4sxfegqE/0OWt7WeV1HonGMPmGnpX3j01hRHlhYCkKH9rFEzK6G3RTix8N++sxkuIJWPYFyFFR9YnvwqhOcxF09P7+PTUYkaOfsvYNiGPrkWB2M49sSpO1HhXcZCFZW481dud8ItmEpEaC6eOqEWI74535GeUTxGRTn2yCGjOapHQ/kgiMDWYQFjW3QF7vCuVzHomswQ7BNvucBlAzLGs0YxgNOR8LiCg1viCZBb8gWSwysMhCOzloyQCYLhATlQK+IElEROQi1liyYI2FiPLFGkuJ46eJiYjmlpIPLPw0MRHR3FI2fSwzMzN6rnBu5kVEVGlKvo/lYmAfCxHlo9L7WEo6sFy4cEHPERHNHey8JyIichEDCxERuYqBhYiIXMXO+xyw856I8sHO+xIPLPab93KIcFVVlZovlJkX37wnonyx875MuBVUJDfzIiKqNCUfWPiTLkREc0vJBxb+pAsR0dzCUWFEROQqBhYiInIVAwsREbmKgYWIiFzFwDJr8pvtfvhTTB3DUfXddv+WIUT11uUivFtc4+6wXiIiSsZPE2eR/gVJGVhagb4Q2lfpVUREAl+QpKJw1Fimh9Dh78DQtEpSkp78J3odtZ7eCb1eMLdV+Zrpjv2cx7C3dU6ZtukV4dKWWCOz9nOct7oucxsxZaqlpdo+dg+s4yVdt8ovXe1QX0uG80i6z4l/i6R9nfeHiPLHwDIXyODQBvSHQgjJabgTkbZUBVwYwW6gc1jXktR+EbWs9uvzoqcxYb/aTozY+Yb6EdCrJRlUGrq9seOOdEXQ6ggudfG8QzvRtESvVqIY2tGDseZ+nS6mPjP3NIzz6W/W61IRBf7AoJ6HD+16n5GuOiB2THlOszwPSQaVxh54Ra3T2ncEnbVj6NlRfk2YRBcTA8slJwrGPUEE+tpF8aktaUJXF9DzpPGkLU2MItjcogt4a786sWGswF/VLgprUTAm7peSDFJjjuN6GrtEwRrEwHDuxWpgXeysXWQFC9SKIJKjWZ2HuM87RUCJN2V6sGZ97sckotQYWC4aUeA3xptcWmNP41OYHAeCbWZzjF/UJMZ0ujbYCv+eGoxstgtQaz/vDR69bKlenmPBOB1BRNRIaq7Ty4oH3hV6NiurEA4eyCWIaW9MYmyFV+yZxUQQPSv60bVeL2eU+TzU/RgcNWphqcSb2pLuOxHljYHlojGblZKbgQKx5hhjigURobkfI+tH0TCHRpp5GncitG40HhDbgjoltehrIpQtr9ZL6ciaWASdD+ReA8l0HjKtvzmIVjutsUeEeJsdUFoR6RpR91w1tRFRQRhYLrlq1NQCkdeyhwtPYwsC4z0Iqg7u1PtNHc/xiXuJF15RxE6+oZeVKCLH9GxORMEsCvE6XShn69uQ55ZYw0pyQNZW7Oa+XGU+D99mI1gPd4oQr8mmRd3ns7Mxaz2KiHLEwHLJedC0KYCx7m6j0108tW+x3odx8iEgnqiDe2StJcV+E71oHRQ1o5ye9nVebfHO+uhwN3rGA2jJsZCNDg+ogrkrl+1VZ3wA9VmGZgcHgX6zppaDvM4j0fgkpvSsvH9sCiMqHAPLXLCqHSOysz7WB9OA0fUjKZ+i7VpLtww6Yj9rJJjeT40Q0yOlRGCShWTd+jVp+zRkM5E1Esza3xohZgwiyEQEim7Z+b+pKXufiR59NQajSUpMqp9J9h0Zw4HrugK5Hd+Wz3kkUoMdjHOSfViytjM+ioMcckw0a3xBMgt+QdIFKrBMoiVF0JLvmbSi39mfRFTi+IIkERGRi1hjyYI1FiLKF2ssJY6fJiYimltKPrDw08RERHNL2fSxzMzM6LnCuZkXEVGlKfk+louBfSxElI9K72Mp6cBy4cIFPUdENHew856IiMhFDCxEROQqBhYiInIVO+9zwM57IsoHO+9LPLDYb97LIcJVVVVqvlBmXnzznojyxc77MuFWUJHczIuIqNKUfGDhT7oQEc0tJR9Y+JMuRERzC0eFERGRqxhYiIjIVQwsRETkKgaWChcd7kCH/H6+nu+dULNERLPGwDJrUQxt8ccK5bxN9MK/ZUjkcjGF0ev3O4KHp7EL9fsb4BfrG/bXI7BKJ2Qjv2Pv78DQtF4uETJ4yms1p1n/DYkoJX6aOIv0L0jKwNKA0fUj2Nno0evyIAPLnhqM7GrCLPamWZBBpRtds/t7EeWBL0iSS5JrA+rp2KiVhHfHn5J7D8g1kwiKWo+1Lvnp3/l0baabx7JqTn5/r1ibfA4qgKk0yZmuzme3laKobe3jZLmeDDUW6zrtY0pWXqpmoPazr0lP5jnEridFmtpX5KvOM9W+gpnmOL8oDu73ouWGYJr0hOuT9Lk67icRZcXAcrGIAq91MID+UAihUD8wGATGg4iIGk9IrBvpAnp2xAs1WcjJpqkRtb2Y+rzoaTQLa20iiB50iu3a4dOrZkcU6HvEObnAt3kEnbVBDOgmpvDuVgSb+42agn0frHsRGGw1gmQDelb06zSRz7HWhOARRKus6aVKl0GlLYLOYZ23umd28JjCpLjfrW2IH9uRniz8ZA/G9DwR5Y6B5aKwCu26roAu/H0IdNWJfwNo0YWtp7EFgfEeBFUBG0awG+jcajSTrWpHf3O8sLaFDwQR2FR4c1p0uFsEqDrxPzd40LQpgLHubgwN64C6OYewJ4PkuLmtyGdrJ+oGB4zCv864L9ZxMDgq7ph9j7vQtEQl6ns2hp4nReCZjiAiVgX6jABspieSDwLH3LofRJWFgcVlwTa7mcWPhm77eVc+LQPeG+LFv+cGL1Bbg2q9DDFXUwtEXpPNRbIQFAVeYzwvObUO6k01eayB5SNoz7XDPS0ZyLzo31qvl+NSX08O7EK7WwQ+szBXRM0hdl1WbUZeQ/Q1UfQ77omwxAtxpwxi2Q4c0nU1ovAX92s6+R5L1cvN0FCHmuv0rKbSj0ViNUWLDFKi5rO1JeHYRJQLBhaXBfp0M4uYRlStZLbEk7ndpGNMZsdzoG9EjegqdFRTdHgAkVhtysmN61HB0sFsCrOas4o+MispQBlWeJ01PllzWtESr/kQUV4YWC4Kozaiqafz8UlRl7EZT9yqEBzD5Bs6KS27ySmY3PeSs1FVW7Gb5Fxj9yn16SaxNP0Y8hrWrK/D2PEpqxbnuCeCbsKKk7UTPSu9MSnulKzFJN9jaeq4XcuS6cn3VKbXLTfrSJMIytrKAzk03RFRSgwsF0ViAJAjlGSBF8SoHnEkaw3B2k79HonVBxNsSx5ZlTRCaVXA0VGeNzmIIKmpqlDiXNt0E5jdJGYMTHCy7oUq3PW1tMY666MY2tGDsWaz9mD2iZh9V0a/jh14VHATNT8VJKwA5rinOr3ebwRVNaDC6KchorwxsFwsooAd6YrovoUGTK4IALVi2mP3X3jRb7zT4mncqTrrzb4I9IVS9KckF6hmv4hfFPCqTyPdy5ixYOYWUdhvaTWCpBwl1q8GJnTHgp95XQ1qVFuXqjGJa9mlR3rZaXKEmKPjvw4BDDjSY82D4h5bI7103mqE2M5YkJD3NP43SE63xAdUENHs8AXJLIr2BUk5NPYivSAZG7pc6i9jyvdKGkdRnxQMiOYWviBJRETkIgYWIiJyVck3hfl8vqJ96VF+mjgcDhenKYyIyhabwkocP01MRDS3lE1T2MzMjJ4rnJt5ERFVmpJvCrsY2BRGRPmo9Kawkg4sFy5c0HNERHMH+1iIiIhcxMBCRESuYmAhIiJXMbAQEZGrGFiIiMhVDCxEROQqBhYiInIVAwsREbmKgYWIiFxV0m/ef+T7P9FzRERzx4d/dreeq0yssRARkav4W2FERC7jb4URERG5iIGFiIhcxcBCRESuYmAhIiJXMbAQEZGrGFiIiMhVDCxUUd6ZOY+X33kXv5/FKHu5j9xX5kFE6fE9FqoY02c/wOOvncSZmQu47Q8W4fPXejDvox/RqZmd//2H+OmpKI789gwWVV2GB29YiiUL5+tUIie+x0JUAeygImsbH4r/yQAhA4UMGNmYQUXuK/OQeck8iSgZAwuVvQ9+/3v8r6k3HU1YuQaXxKBik3nJPGXeROTEwEJlb/5HP4pbF38M8z7ibPbKFlzSBRVJ5iXzlHkTkRP/v4IqwurFH8fnrvPkHFyyBRWZl8yTiJIxsFDFyDW4MKgQFYajwqjiHD79Dn72hggiCf/pf0T879arP6bmX3zrdwwqNGuVPiqMgYUqUrrgkg6DCuWDw42JKlC6ZrFUGFSI8sPAQhUrl+DCoEKUPwYWqmiZgguDCtHsMLBQxUsVXBhUiGaPnfdE2sRbv8OPp/6Pmv9C9b/AKj1CjChfHBXGwEIU89p7Z9W/N1yxUP1LNBsMLAwsRESu4nBjIiIiFzGwEBGRqxhYiIjIVQwsRETkKgYWIiJyFQMLERG5isONS83RFzAv/LZeSHZvzWo85V+slyjm1Eu4/9nTuO+udXjoWr3ukotgxxOvAr4N2LpSryojJ0MHsOzkYpy45xYs1esqBd9jYWApLTKwvHJ5iv9nPY3HnjmMp5cysBBdagwsDCylJZ/A4qjdLMCg8bT+/L59WIsbcX6D13qynDyH7faTc1Kt6Co8t/EO3KnmrafsbWoe8X2kNPvV6PyTeMTxfe8m1CSs62i+0jq3RPa5mhznoGomJ7FXL8ZqcNlqLBn3i6+3mcd0npN5n1PUSNQ9gr6fien62q2X/xWzBprq2s3jmX/TRMm1h+Rzc+Zv/s0l599d/e02XJ10vjZ5f1rOJB6zcvAFSSpPqgA7KwqdDTi/UUy+hWh+9gAeO6XTYyIYmITaThUwifttvBHb8TbW7ouIRFnwvYojorBTaXctxZGwzjPDfkv964x1siDU26QoAHH0WMqCykEWaio/MfmuwrbwC3heJYjCTwSB20ShZh/vtsnD2HFUJWaQbT/jnDeuxqDxay+xAjt2PvI+2+eTDyOg6rxO1CzA3smXnH+zhUvjx1L30x1WUFkogol97LNY+4R9HQl/d3kP3n0V94eAh+7R5yL+Dua5xQIpVSQGlrIkCoJX3hZPu7fEn85X3oHnPOfQHJYBwnD0TWzzLHNsd36j+VTvxWc9ehaLVUGSsqkt4365EgW8CE73zvJnuk6GTmCbKNxaYoWaF1tzKORmu18sKN9pPJGr+/w2vhE6rVfkyrq3ZrBdWrMY9+r54pLXIWus8RrKUv8tIoDq61DB/ip8LfZ3z/DfAZHAwFKW3kJEPPXftsj5//g1ixboOS36qtWslqrmIJuAntiHeWJaG9XrYmSziEhTT/kJTUsZ98tMFvBHRDD82pV6RTryvPUxZNObXSBOnjkHXHll3s0us90Pp97FEYhg/aw+l1ledyLZpKXyStEEl5V5b2I1Du3sSSyLpRnNWuo6FsDreBBYDK/+O5w8I/5jWng5aqxFoqwYWCqZ50acWHoay555CSf1qlhgMJqGnkuqeVhP9I6msJz2y0Q+NS80noozMJvCzHO4JMxmsvg0m6d5O6CsfVc3KYlry7vGYtwb1Zxl/m2L1IxGlIiBpSxdDe9C4MgZZ3OMejJPsNS/DNvFk+yA7k84OXkae3XhlLUp6Nrrcd/Cc4iIJ/S89kshEpa1lRVGZ3GOjHNQNbJ3340XpDma7X649krcJmos8tiFi+DnUR2kXOrsVk1pZ9/HpF5OK+V1nEbkXWtu6SLxH1Mu+RBpDCxlaTEeuukqZ8fv0RewVhZcvsRmLy9aahZg2yvGk61RyMpO3XjTjtUEFuvUPvU6nj5rNKGk3S+bc9j27mJ8azZt9sY5JAZJq9N5H+7P0t8x2/1i9y42eEBKuEd5MQt3a0BB3k1hBhXsc2rCSr6Ok6GX4v0qK1fE+1s0VbtSAzqIkjGwlCvZma5GKFnNK9aIrYT+EM0uWB8RBYfqtBXhwW6LX3ZmmRqdhOibotDxYqtqetJ5ioIPeoBA5v2y235THk/pZj+CcQ6qic48vyesUVbZm6Vmu5+87nWqs36tfT6Jw4uFbbF8xaSGY4vtzSYqRZyDGuFmb3sC3rtkc9U5PD35mgp0cijwvUuvz3yfjHuzLHFgQQbyOqyRYPa+coSY3ZkvO+utkXJ23qq5LlXfHJHA91iILrLYEOUKfL+jUvA9FiIiIhcxsBARkavYFEZE5DI2hREREbmIgYWIiFzFwEJERK5iYCEiIlcxsBARkasYWIiIyFUMLERE5CoGFiIichUDCxERuYqBhYiIXMXAQkRErmJgISIiVzGwEBGRqxhYiIjIVQwsRETkKgYWIiJyFQMLERG5ioGFiIhcxcBCRESuYmAhIiJXMbAQEZGrGFiIiMhVDCxEROQqBhYiInIVAwsREbmKgYWIiFzFwEJERK5iYCEiIlcxsBARkavKM7BM9MLv96NjOKpXpJHrdukUuj8RURlijcU1UQxt8YtA04uwXJweQocIOv7daomIqGKUT2CZDmOobxse3rgB/ragWjXW3YB1jc14+D8EMTZ5Rq1zWNWOUCiEnY0evSJPhe5PRFSGPvKhoOdLzoULF8T//QCRH27Dv/q7UZy52oe7v9yELywaQ8euUdz80Hb8+SfC+PF/ewZj0xDLf4tdj9TBc5m1PxFRMVx2WWUXMiVfYzmzvxtfEUHl3LpO7B3px/a2JtStrFZp19x4uwg0X8fOH42g/998CpOPdeDhwZdVmpKyjySMXtmElXbqwJAIUkqq/XUTGPtdiKhSlXhgeRk/2P0TUWepR1dXE6rTPSRctgi+5k603wJEvvs/MZqiVSzJHwWw/VvfxreNaftDN+tEIiJKp7QDy/Q/4cUp8W9tHW6/2lqV1mVe/KF/vpj5CcK/sVZldHUNbv+T253TjdfoRCIiSqeiRoV9TAQLIiIqrtIOLFdfg+vlv8ejiMp+/Iw+wBuTsn/lZlx3lbWGiIjcV9qBZf7tuLu5GpgawHdHZJtYBr95CgM/FP/W3o/PsuJCRFQ0Jd4UNh++lr/FX6yS76x8BQ9/bwyR6Ac6TXsvipeHe9D81V6Er67H9n/XBL51QkRUPKXfx3LFzdj03R/h220+RP5nBx5sWOd4QdJf34Dm7lEs+GInBn/wN7jbGolMRERFUh6d95d5cPtXd2Jk3wHs+8Egvr2lXq2WL0j2PzGCfQf2oV/UVG5epFbnpvoa5LM5ERFZyiOw2C6bj0WfuBm3Gy9I+mo8WCRHGWd1BpFfHMLYD4cwJpbmX70IOe1GREQO5RVYCjKJ4UceRsffDeHNW/4C3/lzn15PRET5KIPfCiMimlv4W2FEREQuYmAhIiJXMbAQEZGrGFiIiMhVDCxEROQqBhYiInIVAwsREbmKgYWIiFzFwEJERK5iYCEiIlcxsBARkasYWIiIyFUl/SOUhw8f1nPF9ZnPfEbPERFlV+k/QlnygWX16tVq/ty5c6iqqlLzhZqZmcGCBQvUvDwGAwsR5YO/blwGfv/737sWVCSZl8yTiIjyV/KB5YMPPtBz7itm3kRE5arkA8u8efP0nPuKmTcRUbniqDAiInIVAwsREbmKgWW2Jnrh3zKEqF6MC6PX34Ghab1YTNND6Mh0rGzpRERFUPLDjW+77Ta9lOymfxjRc5m98sUGPZfsyJEjqYcby8CypwYju5rg0assMrAMoGZ4J5qW6FVEVFE43JiKLjrcAb/fryezBqFrNxOyZqHTHbUgme5H74ReFFRe9jZmjUTN28eQUy/CjhqLlVc8XUwpa1xERIVhYCnE+CSm9Gw6MhA07K/HSCiEkJz6vOhpFIW+TgfG0NM2iRad3r+iBw2zLvAD6LePE2qHT6+Nq0PnsJ0+gk70oHuYoYWI3MXAMlur6kUxHsRAYsE8HUFEz8paQrAb6NxqNJetakd/s3O/QF88CPge6ETd+CgOsl+EiEoUA8us+dA+3Al0Nzibl3aM6nRBBRlRI2k00sXUOqjTlTrUXKdnpSVeeMU+k2/oZSHYFt+3oXtMr50N81waRH2lE12Nzh4iIqJCMbAUYkkTdsaanvS0q0UEBpPZ/BSfduZRoAf64vuNdNXptbPhPBfV7LY73ihHROQGBpZiSlH7SJaQrmo5CbWYIvGtCwDHIuzAJyJXMbAUlQ8BUcMItpmd9ckjvYJ74p314Sd7MNbcclGGKocPBIEV3oTh0kREhWFgKTJP407VWd+q+0j8/lagL4T2VXoDIbBiEg06vfVYJ0Y2J4/ncoezv6d1MID+oh2LiCoVX5AUZvWCpCtk7SU50BBRaeOHvso4sLiBgYWI8sU374mIiFzEwHJJ+dAeYm2FiMoLAwsREbmq5APL+fPn9Zz7ipk3EVG5KvnAMn/+fD3nvmLmTURUrsqiKeyjH/0oZmZm9FLhZF4yTyIiyl/JDze+GIo33JiIyhHfYynhwHLhwgU9R0Q0d/A9FiIiIhcxsBARkasYWIiIyFXsY8nBL3/5Sz1XXBwkQFQe2HnPwJKVDCz2j13KochVVVVqvlBmXsX9sUsiupjYeU95cSuoSG7mRUQ0VzCw5Ig/HUNElBsGlhzNmzdPz7mvmHkTEV1sDCxEROQqBhYiInIVR4XlwBwVViw5jQo79RLuf/Z9fG3jHbhTr4o7jceeOYzms3oxwb01q/GUf7Femnue37cPa6N6wXBJzjvjfSbKjsONGViymhOBRRV2J7EXV+G5rAWeFWSeXjq3g4lJBRbciPMbvHrNJZLXfSZKjcONac47GTqAeaKwu81zlV5DxcD7TOQOBpZSsGgZTmzcgK3Venk25JP4EwfwWOgFzHtin5ruD53WiZKs5VjrrekFPK9TZG0ivj45zZHPUZH/My/hpJxXx0zYd19EbTYbyefhPLYj3TiOeY7WNvHzd3DjPhMRA0spWLrSi6V6vjDn0HzyclV4nr9L5Dh5GDuOWiknQy+h+cobcV6mbVyNwYVv4xtGoS37Oqy0DXjO8zbWZg0QIlA9L8KLsd+JmgU6LY3oq/HAoCf7/GzO89ArBVnbWPvuUuvaNt6I7SIvZ+AURKD7htomdROXe/eZqLIxsFSY7TfdYhWe196Cr4mCeduUFSCW+tcZ/RtvIZJmEIDt3kVX67l0FsN7pZ7NlccObHryXYVtYVHLOqXT0zqN0ZPncO/S63Vg8KJFBLG9J1+3ak7ayUkRaGLbEFGxMLBUlAXwGk/5NYuMGoRsworVFE7gyEK9Xtsrajd2+troVfiaMSjATJsXfluvBe7csAHfwkuxtGWT53RKjlauEDWnc4ikGC3mZAXC2xalH6ggz3HZmWUlM5iBqJQxsFQUZyE9ecYu6E/jsVfeNpqZbsF9OsVmNkGd9wFr7X6UpDSz4zuCARFMtvustKxNYbN2NbwiEB45k9D0ZVDnWP1mQX08RJQbBpYKYzd9qf4GEWS2V8eH9+4985Y1c/RY2vdh8nEydALbFi5Fy0q9Il/qPK7CZ9X+pxF5V61NYTHql5pNX1ZAizeNaSvvwHN4NanfhojcxcBSURZgO05YTVPPWh3rW1WhvRgP3SRqGnbn+dQ1qmM8FmiExOauWF9NOiJwPSJrK9m2MyV23ofPYvAu2dEewY4n5MufC3BfTeqmLNlH9NyVJ7FM7fsqtnluTNnsdeeGG4Gc+m2IaLY+whcks5szb94XQg79ffY07rtrHR66Vq8joqLgC5JEREQuYmAhIiJXsSksB5eyKUz2NdjkyKoz5y9g8Q9H1fKieZfh9Jfr8fp7Z7F8+Dm17vorFuJ441r80zvv4pZ/GFfr/vDjV+KlL9bihd++g9qf/UKtu+MPPo7xz/0Jfn7qt/j8s/+o1n322j/AT+/6Yzzz+v/Bl5+bUOu+tGwJfrDmVgxOvoFNoV+pdc0112GP/9P4ziv/jPZ//LVa929v+gR6//hT+JujEXSFX1Xr/mqlF92+G9WyXC/JZble7if3l+R+cn+ZvzyOJPOXx/nTgy/iRyem1bofrl2Fe67/F+p85XlL8nzlecvrktcnyeuS1yevX94HSV6/vA/yPsn7Jcn7JO+XvJ/yvkryfsr7mnjfifLBH6FkYMmqLPpYiOiiYR8L5YSfJiYiyg0DS474aWIiotwwsORpZmZGzxXOzbyIiOYK9rHkQPaxXAzsYyEqD+y8Z2AhInIVO++JiIhcxMBCRESuYmAhIiJXsY8lB+y8J6J8sPOegSUr8817OUS4qqpKzRfKzItv3hOVD3beU17cCiqSm3kREc0VDCw54k+6EBHlhoElR/xJFyKi3DCwEBGRqxhYiIjIVRwVloM58z0W9d369/G1jXfgTr0q7jQee+Ywmq1vWCW5t2Y1nvIv1ktzz/P79mFtVC8YLuZ5nwwdwLLJc3oJ2O7bgK0r9QJRHjjcmIElqzkRWFRQOYm9uArPpQwsJivIPL10bgcTkwosuBHnN3j1movs6AuYF0b83qrlsxi8ax0eulZtQZQzDjemOU8+Sc8TQeU2z1V6Dblu5R04bwbslddgO84hkqIWRUSZMbCUgkXLcGLjBmyt1suzIWs8TxzAYyHxJP7EPjXdHzqtEyVZy7HWW9MLeF6nyNpEfH1ymiMf+aT/zEs4KefVMRP23RdRm81G8nk4j+1IN45jnqO1Tfz8ich9DCwlYOlKL5bq+cKcQ/PJy1WQOn+XyHHyMHYctVJOhl5C85U3iqd2kbZxNQYXvo1vGIW27Ouw0jbgOc/bWJs1QIhA9bwIL8Z+J2oW6LQ0oq/GA4Oe7POzOc9DrxRkrW7tu0uta9t4I7aLvJyBUxCB7htqm2xNiTK/E9iGq/BZ9rEQ5Y2BpcJsv+kWK0hdewu+JgrmbVNWgFjqX2f0b7yFSJpBALZ7F12t59JZDO+VejZXHjuw6cl3FbaFRS3rlE5P6zRGT57DvUuv1wHYixYRxPaefN2qOWknJ0WgiW2Tgah1yU787b7sAYiIkjGwVJQF8BpP+TWLjBqEbMKK1RRO4MhCvV7bK2o3dvra6FX4mjEowEybF35brwXu3LAB38JLsTRzxFVOVq4QNadc+jmsQHjbovQDFeQ5LjuzLPtgBtVp/zZHhBEVgIGlojgL6ckzdkF/Go+98rbRzHQL7tMpNrMJ6rwPWGv3oySlmQMMIhhQT/5WWtamsFm7Gl4RCI+cSWj6MqhzrH4zcx9PbCQYgwpRIRhYKozd9KX6G0SQ2V4dH96798xb1szRY2nfh8mH6qdYuBQtsy2k1XnY/RynEXlXrU1hMeqXmk1fVkCLN41pK+/Ac3g1qd9GkQMNVE2Fw4uJCsXAUlEWYDtOWE1Tz1od69aT+WI8dJOoadid51PXqI7xWKAREpu7Yn016YiC+hFZW8m2nSmx817VHmQ/RwQ7npAvfy7AfTWpm7JkH9FzV57EMrXvq9jmuTFls9edG24EUvTbyP6XveLfbWHj+GJKGgBARFl9hC9IZjdn3rwvhHwif/Y07uMLf0RFxxckiYiIXMTAQkRErmJTWA4uZVOYbOe3yZFVZ85fwOIfjqrlRfMuw+kv1+P1985i+fBzat31VyzE8ca1+Kd33sUt/zCu1v3hx6/ES1+sxQu/fQe1P/uFWnfHH3wc45/7E/z81G/x+Wf/Ua377LV/gJ/e9cd45vX/gy8/N6HWfWnZEvxgza0YnHwDm0K/Uuuaa67DHv+n8Z1X/hnt//hrte7f3vQJ9P7xp/A3RyPoCr+q1v3VSi+6fTeqZblekstyvdxP7i/J/eT+Mn95HEnmL4/zpwdfxI9OTKt1P1y7Cvdc/y/U+crzluT5yvOW1yWvT5LXJa9PXr+8D5K8fnkf5H2S90uS90neL3k/5X2V5P2U9zXxvhPlgz9CycCSVVn0sRDRRcM+FsoJP01MRJQbBpYc8dPERES5YWDJ08zMjJ4rnJt5ERHNFexjyYHsY7kY2MdCVB7Yec/AQkTkKnbeExERuYiBhYiIXMXAQkRErmIfSw7YeU9E+WDnPQNLVjKwrF69Ws2fO3cOVVVVar5QcrjxggXWx68OHz7MwEJUJth5Tzn7/e9/71pQkWReMk8ionLCwJKjDz74QM+5r5h5ExFdbAwsOeJPuhAR5YaBhYiIXMXAQkRErmJgmfMi2PHEATx2Si8Kz+/bpz5EdX/otF5TbPIcrGPGpn0RnUZE5MThxjnI9qGvm/5hRM9l9soXG/RcsvQf+pKF+gl471qHh64FToYOYNnJxThxzy1YqrcoLufxiSg7DjemEnIaoyfPYftNFyuoCEffxDbPMgYVIsoZA0sJORl6Cc1nr8JnV+oVmqzFxJqonnkJJ/V6HH3BuSwC02PP7MOOo4nzkrO5y15/8sxZ3LsIals7zWyCk81yicuxYyYdP7FZL/UxE/OMSz7/eP6p84ptF0vTxz/1Eu5PXEdErmBgKQnn0PzsPqsJbOMduFOvVUThvWxyIZ7buAHnN67GoChml+Xd/yEL31dxpGa1yEPkc9dSHAnHC9u9k68icpPMX0434rbJw6kLflFYfyOq57PKfMysjh5D85U34rxqEkzIy3cVtiXktd1nn79s0hNB6NmTuE2vO1EDcX9fwPN6WyIqDANLSViAwbs24LkrRdB4wlkAPj/1NuC5RgebxXjopquA6Jv5FZKnXsfToib0Nf9ia/naW/A1zzk8PamDx8KlaInVkrzYKgruvSdfN2oikijcnz+N+2rE8XOhjrlAbB8/5lOq0LcWs5HXvb3aay0k5rVyBQYXGuefSDbvIV7zW+pfhu14Gz+P1XKIqBAMLCXkzg2iRrLwbayN1UhOI/IucO+iq/Vy/raF92GeeHrfu/ByiAf31K68MrlP5+z7mNSziqpBLMNDi/Sy7awMhnaT06uiQNei72MvFsKbJpDsFbWiePOVM5jKc/7GotXYage7LHklks17yHS9RFQQBpaSYtdITuhmnsXwXikK4TNvqdTZUE1Edy3FvYmBQlu6aCHw7rsJtRPBUTC/jh1h4LkNugZhErWdE6oJSk43ipqB5rkc9+IsImmavu61m7XE9JzHDKbWOX8LL8Wb47LklUhdU5rrJaLCMbCUGt3M0xy2Cto7q82mr9N47BWzaSxH116P+0RN6Bt2Qa36SnTTkjyeCCsDsWaiiAgib+PepdfHajF7J0/iSM2KWRzTbK6yOt/jne5xNYusX4A2LfXfgvtOvmQF2MS8ZO3JbBpLtPIaR9PXydAJR9MYERWGgaXkiFrLnaKGEX3VKoRX3oETNWexVjUZHUazKO5PmDUHR1OUSD8rm5ISO8lFnvdYnfJqO9Wxbfd3WGmQTWYqD6uT/Cm7P0YStZJvmcs5STimztdu3jKbwtTghKTakLwPi/G06nRPyEsEvu2x80/Fi61qsICdPzB4V8KgCCKaNb4gmYNL+4Kk22TNgC88EhUTP/TFwJJVtsDiBgYWovLBN++JiIhcxBpLDi5ljUX2AdjkCKl3Zs7jD55+Vi1/vGoefnvfXTjx3lnUDD+n1i27YiEmG9fi6Nvv4tYfj6t1Kz9+JV78Yi2ej8rRVS+odXd6rsJzG+7AT09G0fD/HVHrPr/Ug5H/6zb84J9P4cGxsFr3p5+4Fo/X+TDwmym0vWD1drd8shp9d6zErl+/hq//8mW1bsunbsCjn7kZ21/6Dbb/6jdq3bZPfxLbbvmk2kZuK8lt5LYyL5mnJPOSecpjymNL8pjy2PLc5DlK8tzkOcprkNciyWuQ13LrP4zj6DvvqnUvfqEWK6+6Ut0TeW8keU/kvZH3Tt5DSd47eQ8T7zFRodgUxsCSVXk1hRFRsbEpjHJy/rz1lFsMxcybiOhiY2DJ0fz58/Wc+4qZNxHRxcbAkoePfvSjmJmZ0UuFk3nJPImIygn7WHIg+1guBvaxEJUHdt4zsBARuYqd90RERC5iYCEiIlcxsBARkavYx5IDdt4TUT7Yec/AkpX55r0cIlxVVaXmC2XmxTfvicoHO+8pL24FFcnNvIiI5goGlhzxJ12IiHLDwJKjefPm6Tn3FTNvIqKLjYGFiIhcxcBCRESuYmCZ8+SnhPdh3hMv4Hm9JuboC+ojVfOeeQkn9SoiokuNgaUkLMC9C9/Gz60POMY8P2V9RZGIaC5hYCkRt125ANumInpJOo3Iuwuw3bNALxMRzQ0MLCXCW70Y90bfjDeHnXodT2MxPrtIL9tOvYT7VdOZnvaZwUjUcvalSbOb1fR0f+i0tV7lZzbDncZjz+zDDll7SkzTx1ZpRFSxGFhKhed63Gc0h52cFAX/0utRYy1qotB//iRu823A+Y1iumupCEYn8NgpK/Vk6ADWvrsUJ2TaxtUYfPdVHUAi2BE+i8G79H6+q7B38lhyn04Wz4dPYq+eJ6LKxcBSMhajfukCHDkjA8FpjJ48h9sWLbaSYhbjoXs2YOtKvRh93yjorX3uFcFoqVq2tn3KL/PwYuvGdXjoWpWAk2fOWjP5EDWetSLnwYV6mYgqFgNLCVm6aCH2nnwdJ2Uz2Nmr8Fk7gBgcTV2vnMW9ej3wFiIiXiQHI8lq3rL3eyRpiNnbWGvn+cRhNCfFHbG/ONag73q9TESVjIGllKy8BtvPnsZA+DT2eq7BnXp1zKmX8I3ogniT1p1mELkaXlGbsGo8CY4eE8HiKjynmshELeamxGpHPE01oSUkR0Iv4emlt8RqPERU2RhYSooXn/Wcw7boOWyv9up1ic4hErXmnH0eVlOaqvHoNap2E+vAP4uI6ouRtY98hjG/jebJhfiaalIjImJgKTl3Vl8l/m/qZjBcewu+5gG2ha1mq59X34jtRqBZ6l+H5648iWW6WUt15G8QAWrlClELOYfmZ+X6l4CbluLeWKDJbrvvjuTaExFVLH6PJQfm91iKhd9jISof/B4LERGRixhYiIjIVQwsc5w9BFhO0vPRt2PLa/e9oNbt+vVrsXVf/+XLat2DY+HYuh/8s9VZUjP8XGzdiffOqslelmmS3NZeJ/OQZJ72OnksSR7bXifPSbKX5URElYt9LDlgHwsR5aOy+1iA/x+YvtYUYBDw6gAAAABJRU5ErkJggg==;" vertex="1" parent="1">
          <mxGeometry x="1190" y="43.89" width="112.94" height="185" as="geometry" />
        </mxCell>
        <mxCell id="wcw3lpg_Nm0PKdcRu7sU-27" value="" style="edgeStyle=orthogonalEdgeStyle;rounded=0;orthogonalLoop=1;jettySize=auto;html=1;dashed=1;" edge="1" parent="1" source="wcw3lpg_Nm0PKdcRu7sU-23" target="wcw3lpg_Nm0PKdcRu7sU-24">
          <mxGeometry relative="1" as="geometry" />
        </mxCell>
        <mxCell id="wcw3lpg_Nm0PKdcRu7sU-23" value="" style="shape=image;verticalLabelPosition=bottom;labelBackgroundColor=default;verticalAlign=top;aspect=fixed;imageAspect=0;image=data:image/png,iVBORw0KGgoAAAANSUhEUgAAAXoAAAKCCAYAAADfiRJ5AAAAAXNSR0IArs4c6QAAAARnQU1BAACxjwv8YQUAAAAJcEhZcwAADsMAAA7DAcdvqGQAAFlCSURBVHhe7d0PcCRnfSf8L7HXxgQHqPEr24J4NUE4CTAIys4JzbJVTNbERFWSQzivTSbismJOR2rXqtUbcpd3R3FdOTN7l5wPbYl1yOmENoluwNjBYKlKLwT2hqrNjphkXUYecIItGK0Py169TCAYbGyt4vd5nn565un5px5pRppufT9Usz3d03/H+vbTv+6Zfs2rAjzgqofmdR8RUft45fCA7mtfngn6jY0N3UdE1D6uuOIK3de+fk7/S0REPsWgJyLyOQY9EZHPMeiJiHyOQU9E5HMMeiIin2PQExH5HIOeiMjnGPRERD7HoCci8jkGPRGRzzHoiYh8jkFPRORzDHoiIp9j0BMR+RyDnojI5xj0REQ+x6AnIvI5Bj0Rkc8x6ImIfI5BT0Tkcwx6IiKf82zQv7J6AQ//2R9haOAgent7RXcb7v5P9+Phvy/od7SbAuaOy/WcRE4PIbe474i2w4NB/wqe+ssYDn3oKCbPvYye3xvHA596AA/8yRHc/IMv4/57+nH36Zx4FxERSa95VdD9bW1jY0P9m//CUXz0zy7gzUMP4H/+/q249go12LLxAi58+t/j6OyzCI9/HhMDnXoEEVFrXHGFGULtyVst+rU5TIqQf6Uvjk+Wh7x0xbW4dSSOaOcryHzys7jAZj0RkbeCPv/1h5ER/9551wfRWesgelUIH7zjZgTf+WMULulh4gAxpur4tbrK2m/h71O4d6QfB9V4Wf+fxFe+V3bksOd7urJyXJgfE9ONYW5ND6hVZ37hKXzl9B9h6K7b9Lr04ra7juLe2QsoWCcxJUuTxfdU7Y7PiaVYcqflMBc17Ya2wVL41sO4/567cZta7kH0j9yLVK1rI3r77r7dWsfb7vojTP5tXpfW7H1Sp1PrxRo90XZ4KOgLeOrvnxL/hhG6+SprUA03/94sHvzUfbj9F/UA26FRq55f7O5D9Ff1uKJXkJsawm/dM4nM1R/EH96v6//PPox7P/JRTC418TThR2kk/+0Q7v3CD/Arh/9QX2v4BD7Y8R0RjkdxdFZub6WbP3Kfi+1ojVUR/r/1sfvxZdyK//AnYtn3/yE+eHUGk/f8FmJ/+ZTz2siqOIgMyu17Fjf/rlzn+3CkawWpP/4oPqa2TZyBxUrbcd9HblaTRY6Xhj3Q36WGEdHWeSjoV/Gdc/LfIDoDakDjOt+FW//NrY6u6416nO3pFJKfeQrXfeQBLHxqFIMHxft+I4r7/urziPflkTo+2bSS0OpiWrRQO/HxP59G/MO3W+v0G3fiE6f+J0ZFcOf/6n9XbcFe91bnNlTdjlb4P+JglxDnVAfj+OtTn8CdvyGWfXAQo6e+iIkPi7OIT4uW/dP6vXhBHKySyLwYRjw1i/uG5Pbdjuif/rV671OnZ/CVH12Fznca2/HW69SUnW83hv3StWoYEW2dB++6aa3cV2aQF2cNR37nVjjOG67oxAfvuhN48WF8/bHmJH3nb96HB7/yRRwpb41fEcS7bhX/vtjEs4cmeOrsZ8WB52aMHht0ls6uuBbhw6NiTB4zaX1oKmTw5bPAVUPDGHRcE78K4dvvxLUdz+I7//iCHkZEreSpoL/qdbqnZQrIL8twvRovrFzAhb93dk+svgx5MrH0f55V726aV15AYSUnlvEVPDw1iXvvuRtjs3rctqQQM+vdt9+No/85hQtlNXd3xL751qr499cQLC+JSV2/IsaITXkyL94pfP876nrKrfur3PnUM4qvzc9itI+tdaKd4KGg78Ivv0/+m8dqy74TtYqVRflvGpP3HMXR8u7PrIudT639RL5p+zYKuPCZo7jt4G3ovysmlnEvJuf/Aa/84ocxeEi/Z1siGLVr3bIGPiJOExYncfSuMczJzDbNxkoHBN31yzKN4eXL1r9Xt//dZERk8FDQX4tffndI/JtB7qn6JY1XFu9H/+/+Ee4/V55mmwmg6xbxT+fHMZvNIlurOybXY/uemhUHj6kLuO7wfXhw/ms4l8ninGjp/tf/eAdubUrNvRPvsmvdorv9w5/AA6c+js4XM/hvj5RV/ysuVJcujtquvtL69+Xyu4GIqK15qnTTeehO0UYFHv78l7FaM2xewPmFR1F4+jsIXNfoF6auw3XyJo/VJ/BPVcob8gBycGAI93+9GacUT+H8o3nxbxSfOH47gh3X4qpiS/lZPPuk7m22X71V7cNXlnWJxVblQrV9cdQSQPCdcn+mkfueNcRh5Z/wD+Kfq94eVOUt3NiFsPjnwsUqB9vVORy9/W6MfUFuPxG1mrcuxr7xdgz/fhBYTOL//vQFvFAl7Fe/dC/u/dtXcNVvjOLfNnzL4VW49faoaAdncOazZfPfeAqpUw/jlbU3I/Turd72Y9qH179B/vsCXnlZDSgq/O0ZTP6j7HsFL1Q5eXnzdduobYtAfkL8c1W3DuQG3HzodxDCKmb+x5zzQLvxAjIPTYpDVyeGD+qznY4IPnhIbMEXZirKRPm/m8OFH72Md4mDAhG1nreCXrh56AFMHA4iP3sU/b81hvu/8BV1oTQz/xe492O34UP/JQP0fByf+X8i2EocXiWmvW8oiNXPHcWHjk9i7twFXPjbFO79dx/DX6xchfD4KG4vL6uIM4DyC7cXvvsDMeIHWPnmBeR/ZL3NKYhf/7Bs887hP9nLOTeHv/jjIfzWf8njwEFZNnkWP5DT/igv5pnBw/OyZn4VXn9t/e8RlKziieI6ZTA3dS9i/+F+5F4Xxh/+9hbKT794J+4bF+t8LomPHr8fD/+ttc6Txz8kWufis/mYeT//tbj9WFy06jNIHjmKSbHu8mJzSmzfR/97DsGhnbv3n2iv81zQ44oAwn/wIBam4rjz7T/ABRFe8kLpWOJv8JQIsNH7xbhPH8HNW75D5yqEjol5fGoU4Ze/jP/2iaM4+sd/gQuvi2D0z79U/fdzzk46L9qK7t7PyS8EibOAPz6K+YvW28oFBv4UD47fiV9+7mEk5XISn8XK9b+Lz8zN4r4P94h3XMBTK6JJf3FezFMc1OZ/gNDIn2P4ndb0mzMvKo8h+ZkMfvLuKO77zJ+W3fLoXufABL7052LfiHX7H2Lbjn5iUkS52O+f+hJmR0LOW1I7BzEhtiUuWvaZ02NiHe7FmafejDv/5EH89bGy9xJRy3juR828JYfJ3hgwlcWozG0i8h3+qBkREe06Bj0Rkc+xdENEtA0s3RAR0a5j0BMR+RyDnojI5xj0REQ+x6AnIvI5Bj0Rkc8x6ImIfI5BT0Tkcwx6IiKfY9ATEfkcg56IyOcY9EREPsegJyLyOQY9EZHPMeiJiHyOQU9E5HOeefDIY489pvta693vfrfuIyLanBcePOKpoH/Pe96j+tfX17Fv3z7Vv13mvB5//HEGPRE1hE+YapFmhbzUzHkREbUjTwX95cuXdV/ztXLeRES7yVNBf+WVV+q+5mvlvImIdhPvuiEi8jkGPRGRzzHoiYh8jkFPRORzDPpGLU2it7cXY/MFPYBcW5vDWO8Y5tb0603lMCn29eSSfukThfkx9B6fA/8Lop3iyS9MtcrmX5gqYO54P1a6o0jNAtPZUYT0GCLam/iFKb9ZO4/0YhSRYxGIqEe6rKWZO92L3tM51a9abbI1+vUqrVh1VjAp2qtVWndyXPlr/V6L1cqV81adXp6iWszivfqso2K8YK+X1en1Mt9vdnI91DzLhjvmKQ9+tcaVqdeir1iO3GazRV/Zuq9sGdfeN4736u0tnZU5p3OcrVXb/vL3OPafc/uc+1t0Yp2c6122zqozP2+i7WPQN6CQTSMzFBGt+BAiQ0DqXK0/xxxSCSA+n8Xo+w8g0pdBOlsKhty5FMLj0S2cDchQiAFTWWSzsltAfDlWVkZKIXamCwvG+GLgiUDqTwTFmYiefiqI5IAIlZ7R0vz6gKg9/1ODCKgJo6VpstOIzsZ04FpnOMnu6dL05vIaZi6n0bMlN/tGEut8JqW2cWJAbp01XX58QU83jWCiv2y6sPosrfFZTIvPvkiG/Ei+NF7t07KD2ZC9f0R3zLlVudMxpPri+vMS3XxcLI2ouRj0rsnwziB60PpDDR0Wf5CzM9Vbp0tppIaGMdghXwRw4FAYmbPniy249GwYkV4rQhtRmJ8R853GaI8eIOY9eCIOJFJirjYRSifsgBbjj0SB2bQYbwWc4wCjAn4b5aelFJLiDGe6GF7W+tTcLy3kbt8I8qwMcUT1+9R0ImjHVehLIYxORZEpn64qe5+O689aEPt0eiiD5EPuD3bhQwf050XUGgx6t2R4i0CwAwIdlS11RbR2e2WL2mi5BXojCC+uYFW+WMsj3xfBATsYGrB6MWPN3zzNH0hCDDUEETTnfWOXiH6xzLVVrCyKsTdtJVLEWUJxmaIFqgO18Ewe6OtCp36X0iGWr3tbITVS2vZ+ceC1udo3i0n0D6xguHimoqfrDjqDVu0zN6rv08797tvkoYPioFJsBBC1BoPeFavlpoKiGCT9ojWLypafCMGFQ2n0m7VjdVCwavqy/IPttODMMkCxa/VFYbOkUqsksjOKZSXRLYyXBepm+0aWSKYgDlptVAOXZ1UnxIlHrYMTURMw6N1QF2GddVrVqXpq5UXZwMAwouKgkCoOt8o3qXNzOH8WWyrbSKqluJzfpPUnW++6V3puRQSHbOV3oqtPjH1muwGtS1EXVxG4SbTd7TMVmzxj0b07yd2+EXqiiIuD7ow+UFWdTu0zN6rvU3WW4JpoRJwU4W4fpFijpxZg0LugLsJWK7d0DGK46kXZEKKitZk6U2rVq/LNbBJJbK1sI9kHkITRmq6888SsD5t1eate7zgDqXcXTE0FcbDKILy/sxiaseLFVzu07OsTO8fdvpGc+6FyuhwmR9xeLLfnlSjtw6VJxGZFo+Cwy3OsiuscRM3HoN+UdRG21gUzWWNFlYuPFQGiyjc1LryJ9xVLQiJkKl4XhTAqWnxI9OvyUS/6z0awYNSc5cXYKGb0eOuOGOvuEqFnFAvj+VK9fSCJ4NSEi1A2a/RinrAvXoqgO6XvtDGWV35nyc5ws280xwFKTKfvtLGms+7AkftMHShkKaXeNRVZelF32uj9o+7AcbNPpUYOKkRbxy9MGVr7hCnR2j2eAE64DYEtkC30gTQiroOGiLaLX5iiEnVb39bLNkREW8Wg3wHqG7OypV28v52IaOd4qnQTCoVa9iQo+SjBXC7Hh4MTUUNYumkyPkqQiKhxnizdrK+v677ta+a8iIjakadKNzuBpRsiaoQXSjeeCfqNjQ3dR0TUPlijJyKiXcegJyLyOQY9EZHP8WJsGV6MJaJG8GJsE5m/dSNvidy3b5/q3y5zXq39rRsi8iNejG2RZoW81Mx5ERG1I08FvfyZglZp5byJiHaTp4KeP4FARNQ43nVDRORzDHoiIp9j0BMR+RyDnojI5xj0jVqaVA+BHrMf+r3HqAdmH5/D3tx6Im9i0DekgLkzKUSHosgkUsjpoXtJYGAC2VN8JCKRlzDoGyEf8L0YReRYBFGkkF7Sw21rcxgTrX3Z4jc7R+tfnxHY3aQxD/ls2bH5HOaO2+PHMLemR4rDyqQxXWmcOPgU3y+608bhx836lM3XHKda78Y4Oe/yFr16Hq75HtGZ20REu49B34BCNo3MUAQh8b/IEJA6V61NH0Z8Pots1uqmxfuKZMiPANN6XHY+jvyIGeYQZwoxrBzR46eCSA6Y4815T2CwQ4Z8P5Ld03rYAuLLMWfY11sfFfIx5McX9PhpBBP9zgPBkD1v0R0L6YGa2J7YrDl/sfw+PY6I2gaD3rUcUokMogetsAsdjiM8O+MI6fp02WdqVBwmtI5BjI8DyYeMYBbBOtqj+3uiIjgzSGfNFrhhKYWkOMOYLgZwAIMn3K9XYX4Gqb44xgfsQkwIo1MNlqX6IjjQofuJqC0x6N1aSqtQjNoh3HEAkXohXGEVK4viLGDEWeboFwcPU3h/p+6TAgh2i1b+xVX92qnwTF4EbRfMKdARRFD3bmb1olh2d9BZb7+xS5wDuNQTQXQxjfOuD3ZEtBsY9K5YrXEsJtFfDOl+0ZqWpZbGLspGp+wyh9GVl0Q8Q5wBZMUpyUnnPiGi9sKgd0NdhHXWulU3Hxet3yoXZavqRFcfkH+m/hmAs/VeQH65vJVfErhJtN0XV8S5gmEtD9HOd6Vzv2i7L+eLF1aV51bgPMeorzCfsMpHap+wRk/Ujhj0LqiLsNVq0R2DGK55UbZcAINHZP07YdTPrTtmHBc/zfq6rsEPF2voZVQNP4VY8eKrmN/JJDJDwxh0UTcPDAwjKs5SEsXl5zA5kkJ4PFq6jlCXvm5hXncgorbDoN+UFWbhQweq3jseOhhV4fy5z46hd0CEbL2Lkz2jWJAXXwdKpY70oQVMmEE+FMSKPX4kL84i6oWoOHic0nfa2KUTeQfOsZB1G+Rm66NKL9adNtb01h04jvWpI3c65rxuQURtyZNPmGqV3X7ClLwnPQYrqInIG/iEKSIi2nUMeiIin/NU0Pv9UYKhY1mWbYio6TwV9HyUIBFR4zxZullfX9d929fMeRERtSNP3XWzE3bzrhsi8h4v3HXjmaDf2NjQfURE7YO3VxIR0a5j0BMR+RyDnojI53gxtgwvxhJRI3gxtonM37qRt0Tu27dP9W+XOa/d/q0bIvIeXoxtkWaFvNTMeRERtSNPBb3ffwKBiKgVPBX0/AkEIqLG8a4bIiKfY9ATEfkcg56IyOcY9EREPsegb9TSpHqQ9th8QQ/YW9RDx4/PYW9uPZE3MegbUsDcmRSiQ1FkEink9NC9JDAwgeypQQT0ayJqfwz6RqydR3oxisixCKJIIb2kh9vW5jAmWvuyxW92jta/PiOwu0ljHrnT8r05zB23x49hbk2PFIeVSWO60jhx8Cm+X3SnjcOPm/Upm685TrXejXFy3uUternOjveIztymcpXvL22jGmeuv9pX1viKdbE79f7yfSO7SetArPaBuR8rl1OxTuY6EPkAg74BhWwamaEIQuJ/kSEgda5aIIQRn88im7W6afG+IhlcI8C0HpedjyM/4gyhTCKGlSN6/FQQyQFzvDnvCQx2yJDvR7J7Wg9bQHw5VhZUddZHBWQM+fEFPX4awUS/80AwZM9bdOXPsxXbE5s15y+W36fH1RGd0u8X2x/WwypZZ082dSah1zFqbpNYp9zpGFJ9cSyo8ZvN10mGfGzZmHYqCszG6h6siLyGQe9aDqlEBtGDVtiFDoswmZ1xhHR9uuwzNSoOE1rHIMbHgeRDRjCLYB3t0f09URGcGaSzZgvcsJRCUpxhTBcDOIDBE+7XqzA/owJyfMAuxIQwKoKuobJUXwQHOnR/ExXmE0iKuHYb2OFDB7ZUTlIPZDdLUT3ybI3IXxj0bi2lVShG7RDuOIBIvRCusIqVRXEWMOIsE/SLg4cpvL9T90kBBLtFK//iqn7tVHgmL4K2C+YU6AgiqHs3s3pRLLs76AzIG7tch6sKxcU0zjdwsMsvh9F1o35ZkzyoBjF9IqJf1xc6KA5OZ88Xy0kOan9s/jmVSkPi7EAPI/ILBr0ruoywmER/MaT7RWtalloauyhbLFuYXXlJxDPEGUBWnJKcdO6T2uTBTgTvJmcA8kwjPx4tnflspmcU2RNAwv5sBpIi2m1iHefjYmS/XsdexGb1KMEO+H55YFGfhywNEfkLg94NdRHWWetWnaoFV7koW1UnuvqA/DP1W5bO1rtsAZe38ksCN4m2++KKiE/DWh6ine9K537Rdl/OO1vCz60YIbk5VWKR5SO1Tzap0ct1Kz8DqSDOnEToDhfLSW6IA/FJEe729YTyGn3HICaMz610naKA82cz+uBrlNSIfIZB74K6CFutFi0CZLjmRdlyAQwekfXvhFE/lxdTy+6CMevrugZfM/RUDT+FWPHiqx14wxh0UTcPDAwjKs5SEsXl5zA5kkLYdWtaX7cwrzvUkXsoCWxWS58VZ04u51dUca2iMaWDr/w8WLoh/2HQb8oKs1oX+2R9WIbz5z47ZpUM6l2c7BnFgrz4OlAqdaQPLWDCDPKhIFbs8SN5cRZRL/TEweOUvtNGz0/dgSMCT5UkNlsfMedRfaeNNb11B45jfeqw73YpXreoQ93dMitLXaUSilViyTjvLHI5v5JGD04m6+J1qazTj5Uj1lmJu4M3kTd48glTrbLbT5hSYQgrqP1GbtvM/ioHEXmf+0AakXl5u6geRuQhfMIUERHtOgY97Qh5v3rVkpC6UMrWPFEreSro/f4oQfXlHR+WbYhod3kq6PkoQSKixnmydLO+vq77tq+Z8yIiakeeuutmJ+zmXTdE5D1euOvGM0G/sbGh+4iI2gdvryQiol3HoCci8jkGPRGRz/FibBlejCWiRvBibBOZv3Ujb4nct2+f6t8uc167/Vs3ROQ9vBjbIs0KeamZ8yIiakeeCnq//wQCEVEreCro+RMIRESN4103REQ+x6AnIvI5Bj0Rkc8x6ImIfI5B36ilSfUg6bH5gh7gY/J5rr3Gg7uJyJMY9A0pYO5MCtGhKDKJFHJ6qG/xMX9EvsCgb8TaeaQXo4gciyCKFNJLeriWO92L3tNG/Fe0iHOYFGcD8oyg2B2fE4cPPVZMPzafw9xxe3x5a1ocaIrjRGcuq9q8N3mPeVZSmB+rnK5s/dX2me8R3WTZPiCi9sOgb0Ahm0ZmKIKQ+F9kCEid20qbPorpbBZZ0S2Mh/WwkkwihpUj1vjsVBDJATtoZcj3I9k9bY3LLiC+HCsLcjH3KT1txfxlyMeQH1/Q46cRTPQ7S1BD9rxFV/7s2qVJxGbDiM/b8xfL79PjiKitMehdyyGVyCB60ArA0OE4wrMzza9fi7Ad7dH9PVERphmksyKMl1JIirOJ6WIABzB4wv06FOZnkOqLY3wgoIeEMDrVYAmqL4IDLOMQeQ6D3q2ltArKqB3CHQcQsUPYNCta2XZpYyCJjB6srOWR7+tCp35ZTXi/OTaAYLdo5V9cReGZvAjasmk7ggjq3s2sXhRr0h0UczTc2IXKc4oaeiKILqZxvtkHNiJqOQa9K9ZFWCwm0V+sT/eLFrYstZS1iM3yx7xocevBynMryJSHrWeIM4DsOHDSuf1E1P4Y9G6oi7BmfdoM8sqLsrXIVrmzxV5Jtt5LCsgvW638wE2i7b64AnOsOkPQvZvp3C8OOcv54oVfRR54dK8bhfmEVT5S288aPZFXMOhdUBdhq9WnOwYx7PqirKzxA5HeTdrzZs1d1+WHZV1d1etTiBUvvoqzjJNJZIaGXd3+GBgYRlSckSSKF19zmBxJITweFW11N/Q1iqlRl+8nonbBoN+UFXDhQweqllxCB6POcK7KuuMlJdrPyQG79NGLfjFfVQ4ybrHEUBAr9ntG8uIswg7WAAZP6Ttt7NKJvANHXpxVX+KS848iYl9DqCBLL9adNtb01h04E8WLs/XlTov5m9coiMgzPPmEqVZp3ROmZNDPoGu+8stH8v71/rMRLJwaxOrpXsSgw5uIPIFPmCIiol3HoN8RsmxS/acEAgMTyIrWvDfvxCEiL/BU0Pv9UYKhY1mWbYio6TwV9HyUIBFR4zxZullfX9d929fMeRERtSNP3XWzE1pz1w0R+ZUX7rrxTNBvbGzoPiKi9sHbK4mIaNcx6ImIfI5BT0Tkc7wYW4YXY4moEbwY20Qy6G+55RbV//LLL2Pfvn2qf7vk7ZVXX3216pfLYNATUSN4MbYF/vVf/7VpIS/Jecl5EhH5laeC/pVXXtF9zdfKeRMR7SZPBf3u/QSC/Jlh/RvxZd1Y8UEe1G7kT0D3mr/1T7RH8ffoDbV/j956cAimshjlgzeIyMAa/V6hnvBktvQnxaGhRLUsi+PGrKdRVUyjO9UClQcW8b6lOYw5hpucZxkVZxZl8580nmubOy2GFR9JKKzJ5cj1KmDueGmaatNX3RbFzTqXzd9ch7LtcfMec5ud62VNV96iV9ttvkd05n4h8i3ZoveCCxcuvLqxsdHSTi7j8uXLVbrHX/3kLbe8+snHqox77JOv3nLLPa8+smoPs957y6nHjfGffPVxx/uN15cvvfrIsfJ563kY73v8lHh97JFXLxnj7/niJcf7i6/Ll7H6yKv3GOuo5mWvX5XxqpPzKC7P6i598R7nMMdyNltnaztLyy1/bU1v7ge1vLLxtbbZ+V5jenv5al3Nbay239mxa7zzAt+06N/2/y646pquZxRZx0NFQogM6V7Zgj1T9gBu9X53D9g2H8QdOhxHeDGN86IFXZifUc9vHS8+7zWE0akoMomUaPNay3Q8xLtjEOPjQPIhs3XcKOvh5vETxkNSxLZMD6UwY7Ssa62z/aDz6eLv7QcweEKM3/R5u5b62+xStQe8E+0BLN00iyp/WOWA2KwehlWsLALBm7by/Kgwum7UvVJHEEFksPKcmOvFDNAddD6V6sYuMYVkLTM14ixRqAeRm2bth4yLbiAp5ryJtTzyZQ83l11pW6Xa61x4Ji+CtgudepSixrtTf5td6Ikgah90iPYYBv122QEvwjI4lRWt9axo5epxuyiq18XRmU+vGpouDZ8XLWs9uL4w4vPG/HQ3UWxltzP5OEdxWnPSPkj1izMMPYrI5xj021TIppHRoVl5R04nuvqA/DNlF0pdsVrCRapFbbWYO/eLWF7OOy90PreiW+XbWWYdRuu8ttrrHLhJtN0XV8T5hkGNd6f+NrtTmE9Y5SN1gFpAXOwnor2AQd8MRgDJOz1K5YwABo+U1ZGLd7jo13Wkzhh3jDyUFAeUYXUtIDAwjOhiEolibTyHyRH7WoC9zISxDOtul+3d8x9CdDyM1Ih5R5F1F4x550qtdUZPVARrCrHiXTRinU4a4zdRf5vdkNcYMs5rF0R7BIN+mwID44gjiX5ds+6/OIwFEYiYTVuB2DMqXucR0+OtEo958ba2aPdKcb6x5TgWiqUXWYaYRjDRr8sQMeTHF0olFLVMGPX0fqQPGeO3KDAwoS6+FrelyncLaq+zOACdEq3oZfvaQD+S3eJMSI5Xt4LGkEIUkZrfU9hkmzeROy3m3xdHlN+DoD3IN1+YcntHzdO/2a/7KtX+wtROky1lr31By4vrTLR9/MIUERHtOgY9EZHPMejbkqxHe60E4sV1Jtob+KNmhvap0RORV7BGT0REu45BT0Tkcwx6IiKf81TQX758Wfc1XyvnTUS0mzwV9FdddZXua75WzpuIaDd5rnTzcz/3c1hfX9evtk/OS86TiMivPHV75U7g7ZVE1Agv3F7pmaDf2NjQfURE7YP30RMR0a5ji96Fb37zm7qvtVg2IvIelm6aaLeD3v75BXnxdt++fap/u8x58ecXiLyJpRsfalbIS82cFxFRLQx6l/hlLSLyKga9S1deeaXua75WzpuIiEFPRORzDHoiIp9j0BMR+RyD3hNymOztRW9ZNzZf0OP9qIC54+b2jmFuTY9qJ2tzGDM+E7ubXNLjd4NapzbdX7QrGPSeEcV0Nous7qaH9GBfkge2fqQPLRS3NzsfQXqgTQ9ufXEsFD+bBcT79HCiNsGgp7aTOx1DamgaEwMBPUToGMTEVBSZREocBqguua+yExjs0K9pz2PQe8FaHnndW5uzvFMqHZSXQER3fE4MFcrLDnp4YX6s8r3S0mRpeLGbLAWvY37O0kHutDmN1VVvneeQnhXnLwdD+rWhJyLOa1JI621zrKfdnS4dBupuh/la7Ttjfcv3izHPCs+tIKN7q7G2u6yMovejvf3yPea+UNOo9ateslPro+YxiTljG4ufuVm6qfKZFd/XzP1AbY1B7xV9XejUvZVkmMeQH9elDtHyTY04wyU6ZZQWkESiGCxGSejUIALij78/EdTDrPf2m3/gZpliPo6wHqxCYiCJoF7OwjiQHDAOAkLYXj/R1Sw9qYNaGF036tcOnejqA/LPlKIJouVvz3NhvLQ2MsRK2yGW1122HTWJfXmytB1qG2dnnEFdrjsI49yjQlisczprxOm5lO6rQoTrjDjQWUIYtddf7K/i/jtmHwRTSF4ctoZV+cyLzM9Mvc/5uVS3hf1AbYtB7wWbtBqxdh7pxTAivTpueqKI92Uc4VIueFP1aFIhNBQRESMFMHgkCsymNw+GpbSInSgiPdbLwMCwo/W90+R2hMejejtEZB6WQeViO+Q2n8piVG/HZvu+8Mzm51o4FEHw7HndcpZnLFFEqx7oZLimERHr7U4Y8cN6C1185kV1Gw22xvYDtTcGvVfUazWqP8IggnVqsqkR+xS8X7TR44jaf8AOBeSXRXzs3zwGyqnAcxUgm+gQ2yG2ZuU5/dphFSuLtQ9SJdZ2ZBL9pbKDONvIiHOFvN0iXRQtfHtcb0wckkocZaYz8vyivs331wFEutM4L5ctD4jiQBqxRjgtiRZ69zAGb9KvN2V+5gEEu3VvOXNbR8Th+Ig4c9OjmrkfqH0x6D1AtU7rhcmNXeKP0AixKkqlmywWDqVrlDGssMhcXNWv3QvcFBShsSKieLtCiIjWbupclfUrO2uozdoOs1RkdcYFSsedMtNirpoqnYiW8rwed6JqJGsFnD8rDrGbHnjEVh0Mqta2/CyrXn/AeUyOANPFsowb5mduHdyqKttWmCWepuwHancM+rYnT/WNskw1HaLFaJ62y5ahWcppQOigWaopYO6MWcqpo+JC6YwRynVCqIrQMRE4szHnxVp5YVC0Rs1yzOrF2sUEuR3mHTrWhVk3tWmpdEaRe0ieCdSgSmZuDjyC2D/BswkRntXfn0kkkTe2zZ3mfOa1udwP1PYY9G1N3gUhT6czSA4Yp9Gii83KcOjXd1DIeuo0gnapQp6eTzlvryuVbnrRn0CptluuZxQL43nE1HutMs+Cq1ZmCKPzceT1ctQy5kfFULkNYj4NhZC8CLmAyFmz9JJGRLQurVsu5cVnax9Ubx0Lju0w12cTHYMYlmcUejvSB2Urt0opSR54VDkoVVyG1cltldOXXxjtRJd4d6bWQVO0rMfN20ldiSJ4sfZnXlRenhka3vzWS7f7gTyBDx5xwXzwSKtUf/CIDMkZdM1X+wOWYdePlSPGBTPaOSroVzCcrXbwqPe5NYm8NVKWeqoun3YSHzxCRES7ji16F3avRU9UA1v0bYMteiJqjZ5RZBny5BKD3iU+SpCIvIpB7xIfJUhEXsWgb9D6+rru275mzouIqBZejHVBXozdCbwYS+Q9XrgYy6AnItoG3nVDRES7jkFPRORzDHoiIp9jjd4FXowlolp4MbaJ2uUnEOQtkfv27VP922XOiz+BQORNvBjrQ80KeamZ8yIiqoVB7xJ/AoGIvIpB7xJ/AoGIvIpBT0Tkcwx6IiKfY9ATEfkcg94L5PNJiw93LnVj8wX9hj2qLfeL9eDy5q+DfA6tuZ2TYkhr5E6L+Z9u1dxpNzDoPSOK6WwWWd1ND+nBe14Y8fnSfsnOx4FEPyaX9Gg/UAe0GPLjC8XtXBjPI9bCsAd+rA5Ycj8W5scY/B7HoCd/6TiASB+Qf2a3WvUBDJ7KYmIgoF9vX+6hJDJD0455BgbGEe9LYaYFZy+hY+JgcuyA2o7RHrmsCfGaDy30Mga951mlArMFW2qBlY+Tp/9jmFvTL1VL0WoVytN1R7lBPnz6+JyYQ1m/JF/b8zHmYZdSSvNxlhuK61Gl5FKx7FrjNrN2HunFMCK9pVBU+8Oen7EdVoliTu0ja3xZC9mxntX3m8Xcz2bppnJ4cfnl+6BmizmH9Kw4nztYHrSVBxS1PVXmV3c7y/a1nM5RujE/+3qfW919IuntL05btq+ppRj0nhfAgUNhpM7ZfzYFnD+bqRIMzSL+YM+kdL+TbHkGp+zwkX/YRrlhKorUiBGWZilKlVsSepw4OIzkS+UYMV0mkaoTChkkB4wAGZDrMIHBDj1aBFV/Ilhc1nR3Ev1mqM4msXJEjxtKIVY8EIj1UPOyxi2MQyxnG+G0lEKyexrZU4PiExP75mRp3nL7w7Mzxr4xrOWRRxhdN+rXNciDWWw5jgW1nQuIL8ecB8ia2yn02dOJbtOWe63Prb7CfMLafjWtWL8WnY1QdQx6Hwj0RkRQpK0QUi3aKCLilLsV5B9s+lBc/LmXky1PY7nlLeueqPjjziCdrfXHHURQhXMIo9lSUBeeyVs9NZXV6LPTwEippZk7l0J4PCrmagkdlqGq95UkQi6q11mNW0zjvAyupTRSYivt7QkMDItXKaSLLdTGyPUoHXyt1rgsiyjPrYjD1Xbog/sReRCRxPyPiAPk2fOOMK+6ndtmf271Ocs/q1hZ1L20Ixj0fqDq0jqEZGgMRYrB1ohMor/UMh6p1mrPISVax8MDQf3aJlqIvTPomh8tLVeFV70QkNOUWuEohrHzFD9xVg1sQAjR8bAOuQLyy2XbJZaVEW3kvB1y3UEdjkKHWF/dqw4wfV3o1K8rGevf249kneBKiQPPzP6FUrALjjLLGdlmr0GtUwYrz+nXVVnBKZdTnKf8/BZXxBitxnY2rtbnJtXZJ44S0QzyfXo47QgGvS+UyjfOlmNjwsZdHbJkUu786RgwZYR5kTydHwdOGqWZG7tEeBmBWsG8i2gBkbP6ThlZ4hBnJPa4iSNbjyS5X4LdZdulOqO0s5wvtXpVmcQSuEks1wzKCs71j9cJruhUFuNIOOrZM7PGmciJiDW8qhAiQyJCi6W5klItvRNdYvlyOc7tND6rGtvZuBqfm1Jrn1jlvtLnMI56W0zNx6Bvc7kl8YcsW8d1W5cimFT5JoaYCJDN6rlbsphEcrl0+l8pgEERWOmTuvarzjKMUo0KcOdF0trsA0Tt6wG1ybOODMKHDqgWbOigs8ZvXZg1au1GCUPd3dIXwQF5EOiJiNgqlWoK8zPi1dZLYvIumchZs55daqWr5Vq9VVnlprKau2ghy886flhGuT7QnynV3dVBwKzD19rOHZS5qA+b6r8Fq5d2BoO+zXU+M6NOw+3gqknfVogqf8ClU/qYCCvj4qUqY7glQuWEXQOuoWMQ44fS+mKnrENPI2iXTcQ2RM2LpOWn+dAHEV3Lt9YxARwRIVf3zKDsYqzcRvNWxJ5Rfc+5Nb5fzDJulpiGgljR08dmRYtUXSyVQhidjyOv913FdA3TB0J5QVfsp2HZStfzTh+cFoeQOuUZ8f6JrLEvZTcC0Xou7U9ZA1cXmvV457YINbezUTU+t7qsawYQBys13bmI+h5IMfip5fjgERfMB4+0SjMePCJbcbIW3Mx7uP1M7q8Ypn1/j/he2c7dwgeP0A6Sd724LY0Q0V7CoPcDdUeDvGd93CiNEBFZWLpxwSulGyLaeSzd+AgfJUhEXsWgd4mPEiQir2LQN2h9fV33bV8z50VEVAtr9C7IGv1OYI2eyHu8UKNn0BMRbQMvxhIR0a5j0BMR+RyDnojI51ijd4EXY4moFl6MbaJ2+WasvCVy3759qn+7zHnxm7FE3sSLsT7UrJCXmjkvIqJaGPQu8ScQiMirGPQu8ScQiMirGPRERD7HoCci8jkGPRGRzzHo293zi3j0wa/i2/ql9O2vPohHv3FJv5K+ja8++CgWn9cvfU1u64N48KvmHtlZl77xKB58dBHmJ9BU6jPfK58n7QQGPXnLk6soBAIIFFYdBz8iqo1BTx5yCYtPFxB487vw+msKWHac1fjIDX244+470HeDfk20TfxmrAu7+sxYeRr/9Z+g++4P4B16kCzdLF8bwR3vvd4egq8+uIzXv1+Hg5rmIl6yRgKBEO7+gJxaBOWjaVwsjrBc01Wal5x3rqB6jen0cOzH/hcv6ukDCBnr5FzmNdhvr8uTX8WDT9gztATedTc+8Hb9omy8uS4VjH1x3TceRfpSByJ39KH47vLtVkrr6dg2rbS88n1Ttn0GWbopLnuT7XMus2y/PP16Y/2NzxByO9bQIfv/uc78682j7n8H1Ez8ZiztAhFY2Yt4nQiDu+8W3fv345rCsqPeK4NCjRNdKKAHCjLAci/uR0SNCyFQyDmvBRQu4idvs6crIFesU4uAEYFiLzPSBVz8unFd4Rp7nqJ7VwCFJ+xxYronXhThVxr30soTpenKXFpZw0uBThW+17+3G4GX1vC9ijq2DGg9P7nteqhNBrsaJzrntn8DF18nglCNi2B/I2cMtbZPBHFpf8rlvYSLuS0UnGruv3o2/++A9g4Gve9cj747jBbzP/+krIVbyyV879JLuOb6X9Ktw3fgXV3X4KVL39NhLojAeZee7ztCIjjsoJV1cxGwnXqcCmExZPVJ63WFa16P61TPO/ABo0Rx6ccvWj1VyfUD9ofsFuk70CmCc23FZRhv4vr33mG0dn+An7jbadXZ2/f2D+DuYmv7EupuXiOK+6+erf53QH7EoPchWS54UN6ZIrunX6xo1VZnhdvrfsGKpape9ws6tIQbfgGv070qoOuFz0sXkbbX5wlxSHhbKfwWHy2ta90G9JNP4OJLokX89dL7ZUmk3hlAQ2QZRM/3wQeX8aK7nWaptX2ydFKc5zewpt5sMKd7MCcOjTXU3H9CnXls7b8D8iMGvd+IcFkuyFqwPmXv7dAjNnMdXi+S4MUf10nbF39cat0//2PYDdTrf0FE/ks/EYeKGszSw90h4Al966AK71Kp5Y632YeOSt9+tuAou9jzqnvm4Jo44Dxtzv+9cLvXlBrb9+3cRbwk6+Jq+B3oLt+8sumMSpJTrf1XZVxxHlv+74D8iEHvSy/hJ/9s9amwsXo3cT1+6XqzVPNtPLFilnIEoyau5ntNB35Jll3e3ukI3EvfWBavSqWc+l7Ej9U8rbCt7ttYFaHV0VVcE02Wb4DCs7pNX7c8sXnp5KUX9KFKHYCs3m2zD44qeNWQHbSV/w7Ijxj0nlBArnh6bpcs0qXTcvOU/YY+dMvwe8Iat/pm2cor/cHXI+vUodfZpQAxT9EaddwBE3gdfqJLJ7mCaIkX68/vwAfevx8v6mWmVyBaksYdK+XlhUC3VZd/+7uw/xq7HPMN4G3y4qkd/CXqwGEfVMq8481yY5eRTj9q3Z2iL9Y6ybtR5B011Q4W0vXoe5ucT85ax2c71YXaYvBvpsb2Wdcx9Lgs0N2lTpn0gbQBtfZfPdv474D8h7dXurCrt1e2Cev2St6eR1SOt1cSEdGuY9ATEfkcg55ceccH7mbZhsijGPQu8VGCRORVDHqX+ChBIvIqBn2D1tfXdd/2NXNeRES18PZKF+TtlTuhnW+vJKLqvHB7JYOeiGgbeB89ERHtOgY9EZHPMeiJiHyOQU9E5HMMeiIin2PQExH5HIOeiMjnGPRERD7nmS9MPfbYY7qvtfjtVCJqBL8Z20Qy6O2nPMnfiNm3b5/q3y5zXu3+lCciaj/8ZmyLNCvkpWbOi4ioHXkq6Pmb8EREjfNU0PM34YmIGse7boiIfI5BT0Tkcwx6IiKfY9ATEfkcg96VHCZ7e9FbpRubL+j3ULspzI+h9/gc+AnRXufJL0y1Su0vTMmgjwFTWYz26EFERAK/MLVXLE2WtfQnxaGhRLUsi+PGMLcmBlZMozvVApUHFvG+pTmMOYabnGcZFWcWZfOfXNLDhdxpMey0sYZrcjlyvQqYO16aptr0VbdFcbPOZfM316Fse9y8x9xm53pZ05W36NV2m+8RnblfylW+v7S9FftQ7W9rfMW62J16f7Xt1P+9FD8H+cJSvpyKdXLsH6IaZIveCy5cuPDqxsZGSzu5jMuXL1fpHn/1k7fc8uonH6sy7rFPvnrLLfe8+siqPcx67y2nHjfGf/LVxx3vN15fvvTqI8fK563nYbzv8VPi9bFHXr1kjL/ni5cc7y++Ll/G6iOv3mOso5qXvX5VxqtOzqO4PKu79MV7nMMcy9lsna3tLC23/LU1vbkf1PLKxtfaZud7jent5at1Nbex2n53dnL9i+Pr7kO9LeX7UK2jc5hzn4hOzVfvsyqfg7mcimnVNtXfBnat77yALfrt6hlFNjuBwQ79GiFEhnSvbMGeSSE8HhVDNfX+0dLrOqJTpfeFDscRXkzjvGoxziDVF8f4QMAei9GpKDKJlGgZWss0p0XHIMbHgeRD22n95ZBKAPETg7CXKrdleiiFGaNlXWudsZRCcjGK6WP22AAGT4jxszOOFmwt9bfZpb4IDhQ/p+YpzCeQRFj8z53woQOlfdiA0LEssqfM/R9BVPcS1cOgbxZ12m2dTsdm9TCsYmURCN60lT/rMLpu1L1SRxBBZLDynJjrxQzQHXSGxY1dOmisZaZGnKf4/QkxjWk2Vho/kBRz3sRaHnnxruSAc76lbZVqr3PhmbwI2i506lGKGu9O/W12QYaifdBxpYD8ctn2VCUPgEFMn4jo1/WFDoqD09nzxXKSg95f6WzVsUWl0lAMKT2MqB4G/XbZAS/CMjglWlzZrGjl6nG7KKrXxdEVW9PC0HRp+LxoWevB9YURnzfmp7uJYiu7nYkzgKw4rTlpH6T6xRmGHlWVPGCK4N3kDECeaeTNM7bNyDO6E0BCHyidB1mxjuKzQKJfr6PzQGoHfL88sKh9P80WPbnCoN+mQjaNjA7NyjtyOtHVB+Sfqd9Cq85qCRepFrXVwuzcL2J5Oe9sFT63ogNjO8usw2id11Z7nQM3ibb74oqIT4Ma7079bXZHlVhk+UiF5ALiYj/VJNet/AykQlq15ocbOtAVMHdShLt9oC0/yHYMYkKtn9WVGg0FnD+b0Qdwd6U/IhuDvhmMAJKtrlIrLIDBI2V15Cp3VtSSOmPcMfKQDIdhdS0gMDCM6GISiWJtPIfJEftagL3MhLEM626X7d3zH0J0PIzUiHlHkXUHiXnnSq11Rk9UBGsKseJdInbg6fGbqL/NbsgSiwxKdyEp1x2b1dJnU4DL+RVVXKtoTOkALj9Tlm7IHQb9NgUGxhFHEv36VLv/4jAWRCBiNm0FojhVXxjPI6bHWyUe8+JtbdHuleJ8Y8txLBTDQZYhphEsnuLHkB9fKJVQ1DJh1NP7kT5kjN+iwMCEuvha3JYq3y2ovc7iAHRKtKKX7WsD/Uh2i1atHK9uTZShFUWk5vcUNtnmTeROi/n3xRF18T0IeQujPFhnjBKKVWKR1yiMg7TL+ZU0enAyWRevS2Wdfqwcsc5KUudcX46mPYpfmDK0zxOmZEvZa1/Q8uI6VyeDfmZ/lYOIPBsbSCMy7+5ATXsDvzBFRES7jkFPVEber161JKQulLI1T97jqdJNKBRq2ZOgLl++jFwux4eDE1FDWLppMj5KkIiocZ4s3ayvr+u+7WvmvIiI2pGnSjc7gaUbImqEF0o3ngn6jY0N3UdE1D5Yoyciol3HoCci8jkGPRGRz/FibBlejCWiRvBibBOZv3Ujb4nct2+f6t8uc17t81s3ROQVvBjbIs0KeamZ8yIiakeeCnr5MwWt0sp5ExHtJk8FPX8CgYiocbzrhojI5xj0REQ+x6AnIvI5Bj0Rkc8x6F2Rz0PVD4ku68bm7afy7w2F+TH0Hp/D3tpqIm/z5BemWqX2F6b88+BrImoufmFqzyhr8Z/O6eG6BSyGTS7pAUoBc8fle8cwt6YHrc1hzJyHPW5p0hhmdMVWtXPZjjOMinlWeY9j/sb6CPa6FzuxXc4WfbUznUkxlIjaCYN+20qt/WxWdguIL8cqSjqpc0b8rZ1HelH3SzKQB5IImvPoyyB5UgRqz6gxDIja7zk1iIBedn58Qb9nGsFEf9myw4jP62lENz2kB0sy5EfypfFTQSQHnGGPoenitNljIT3QkjsdQ6ovjgV7/HxcLI2I2g2DfpsK8zNIiTAslXQCGDwRBxKpUsu2L4rocrr4upBNiwCNlkKxYxATIijNeRw4tHlkqmWLoB0fCOghIYxORZExl12TOKs4k0J4fByDHXqQOKhMD4kDzEPu2+ThQwfE2hJRO2PQb9PqxQwwG3OWL0TrXAw1dCFyKI+0Kt8UcP4sEDnYpcY4lUoh/QnnHKpRy+4OOoP2xi6XrepVrIiziuBNzpju3O++TR46KA4qZ8/rMg4RtSsGfTOY5Y1iNyra1yWdNwWt8o0q2wQRvFGPUOyAL5VhFsY9UASRZaUT4uSl5gGOiNoBg36bVAt4Ob95q7YnguhsGrnnVpAZijgOAlhKF2vdE8UyzOaqLlvOX/fW14muPiD/jHPN1VmCawXMnRThbh/oWKMnaksM+m0KDAwjuphEwrgAWv1e8xAiQynERlKIHnRe1FQWV7Cqe+VFUjelm8plizMDMf/weNR5IKkqgMEjsp6fKF18FcuNzYYRP7z51MpSCsnFKKbLLtISUXth0G9bCKOiJYtEf7FG3382ggV1V4yTrGkDUUTK78VXF0HFQcAugZzpwsKUeO9iGufNO2AqiGXrO22sZVulH3lWoA42spTSF8EB+2JrOVl6UXfa6OWqO3AmShdn62rkoEJEu4lfmDLwCVNE1Ch+YYqIiHYdg56IyOc8FfR8lCARUeM8FfR8lCARUeM8WbpZX1/XfdvXzHkREbUjT911sxN41w0RNcILd914Jug3NjZ0HxFR++DtlUREtOsY9EREPsegJyLyOV6MLcOLsUTUCF6MbSLzt27kLZH79u1T/dtlzou/dUNEjeLF2BZpVshLzZwXEVE78lTQ8ycQiIga56mg508gEBE1jnfdEBH5HIOeiMjnGPRERD7HoCci8jkGvSs5TNoP7i7rxuYL1oO4j8+hoN/tF7nTYhtP5/QrIvIqPhzcUPsLUzLoY8BUFqM9ehARkcAvTO0Rjhb92hzGescwt6ZGKRUt46VJx1nB5JIeLpjvVfM1xzumcy7Dfq+zq/eeSXH4spWfsVjTOdZbbZf5HtHVO4up9v7iPrCWV7Hdan61zp70ttRZj4r9XP5ZVEzr3D9EfsWg32kyrEeA6WwWWdnNx5EfqRY4OaQSQHxen0Wo6fLqtZpuKojkQNl0fXEs2PPNTiOqB0sy5PsTweJyF8bziDnCPlyad3YCgx16sFLA3MkkMkPTerzopsy512Csz/SQHlaNCOCZWd2PEEb1NAvjYaC4TLlOW1wPSYb8QBJBcVZmTbuAeF8GyZP+K7kRlWPQ7ygRVGdSiE6NijjTOgYxPg4kHzJaotJSGqmhYR241nRh8cZiAPeMivAUQVU+XVXyoJFxLDcwMC6CLoWZefcxFz1YXOsmssIbfSLUXdrSeoj9PCECvlR6C+DAIffLJPIyBn1LiAAeKJUIYsXW6ipWFoHUiFk+6BUt7Ywer83G0HumCwvH7ECzpgveFNCvLZ37XQbVWh550WLvulG/VgIIduveTVmhmDrn5qCiPbeCTHdQTLmJpRSS3dMYP6Rf11V/PdT+mE0bZynVlEpDFfudyKcY9C1hlkEqyxbRYvnA6IqhLgxNY+FQGv1tdCdPYGAC2YPp0gFqJKXHVFd4Rhxa9nfqV7XIM5U84ofdt9DrrYccNz2UQsweN5AUh1ybHfAx5McX1D5XpSGiPYBBv6M60dUH5J/ZPL4DA8OILiaRUhcsq0+3etFli7QjiKCIvJXn9GulgPyy7nVFBKUI1bAOyc1q43Ldys9AKpyTrXm7POVW/fUIHTMOnvNxccjVZClMXzOYGNj0PIPIVxj0OyqAwSNRZBIJ4yKqaNUet+7HdwohKlqcqTOyVV9luqVJxGbFmYOr1rCe10jp4mthPoHkYhTDLkOvMD+jgnLczfvVxdUoIpvcipqaBabNMxkXGlqPcosrWNW9cv+xdEN7BYN+p/WMYkFefC3W8PuRPrRQtZVpt+oT8iAgprPutNHTqTtw9J0o4kAhQyt86EDNmrgsa1h32ljTW3fgGBeF6xHBnZAXc48Mbl5z13e3ZGCUUESnrlPIaw/G7Y/h8ai75dsaWY9y6uK1sU7yGog8G1hM4zxvsSSf4xemDHzCVBOooF/BcJWDiLzPPYZp5/UIIo/jF6aIiGjXsUVvYIueiBrFFn2T8VGCRESN81TQ81GCRESN82SNfn19XfdtXzPnRUTUjjxVo98JrNETUSO8UKP3TNBvbGzoPiKi9sGLsUREtOsY9EREPsegJyLyOV6MLcOLsUTUCF6MbSLzm7Hylsh9+/ap/u0y58VvxhJRo3gxtkWaFfJSM+dFRNSOPBX0/AkEIqLGeSro+RMIRESN4103REQ+x6AnIvI5Bj0Rkc8x6ImIfI5B74r1AO4x+ZBu38phsrcXk0v6JRH5BoOetBBGs1mM9uiXROQbDPotsVq/vcfnRFvfsDSJXjn8dE68qHYWYLSa1+Yw1juGuTVrjJQ7bU+r2fNTnfO9hfkxY5yb90yKpdv0+jumK2vRq/Uz3yO68u0lIk9g0G/HYhrnzaA+l9J9UgAHDoWROXu+FI5LaaT64oi6aTXLkB/JIz6fRVa0tLNTQSQHnEEOMa8FOU5104jqwZIM+f5EENN6/MJ4HjFH2IdL885OYLBDD1bEQepkEpmhaT1edFPm3InISxj02xAdCiKdtWM8h/RsVAzTL4VAbwRh42AgDwThQwfEIWAzImjPiPeOj5cCuGcU00MZJB8yWvw15ZBKZBCdGkVIDwkMjCPel8JMA9cZogftqYnIyxj023EwgqDdYpet9aEIImqE1nEAkb4MVp6TLwrIL4cR6TVjXgT3QKk0EpvVg7GKlUUgeJPzkNC5P6z7NrGWR1602Ltu1K+VAILdundT1tlI6pybgwoRtTsG/bZ0ogtWi1211vd36uE2IzDXzot3RnDAUSIxyydZ0WLXg9tAYGAC2YPpUn1+xCxLEZGXMOi3RQY5kM7mqrTWLap8M5vGXDYNuCrbSOIA0gfkn3GWWVYvZnTfJjqCCIqzBetMwibPKHSvKzlMinAPjy+wRk/kcQz6bZJBjkQMyYrWuqbKNykkE6h6IKgugMEjUWQSidLF16VJxGbFGcBhN3XzEKLj4kxipHTxtTCfQHIxiuEBd+tQmJ9RF47HXb6fiNoXg367VJCjzkVWq3yDvhoHglp6RvWdNnbpRN6BI++OsW7b7E9k6l7YlaUX604ba3rrDpzSxdm61uaQkBdzjwy6PAMhonbmySdMtUqrnjAlb3VMYBwTbB0T+Q6fMEVCAefPNlK2ISJqLgZ9K6lvtvYjfci4H56IaId5Kug99yhBWWfPZlmyIaJd5amg56MEiYga58nSzfr6uu7bvmbOi4ioHXnqrpud0Iq7bojIv7xw141ngn5jY0P3ERG1D95eSUREu45BT0Tkcwx6IiKf48XYMrwYS0SN4MXYJjJ/60beErlv3z7Vv13mvFr1WzdE5F+8GNsizQp5qZnzIiJqR54Kes/9BAIRURvwVNDzJxCIiBrHu26IiHyOQU9E5HMMeiIin2PQ7yHykYZj84Vi/+SS6iUin2PQu2I9kNsOyYbJJ00dnxNz2Uk5TPb2OsI8MDCOyNl+62HhZyOI9ugRm1mbw1jvGObW9GuPkAcz9WB1o9vyZ0jkYXw4uKH2F6Zk0MtHAi5s7WlRMujPdGHh1CD4rKmdwQey007hF6Z8q7K1rFqPRqs9d7rUipw8J4esICXOCqxhla1jZ+vTHG8uyzqz6O2dFEMr18F6Rq0cJznHq/U5bY1R1Hvt5WyyPXVa9NZ22suUrHmplrOazt4m3ZnrUNyeKuPUtGK+aj2rTSuY4xzrJx/IHsTwTaka48u2T9Lr6tifRD7BoG8FEUCx2Sims1lks9PAbApYTCEvzgjkM2QXxoHkyVLIyNCRpZQF9X7RTQWRHDDDU1tKIYm4eN8oQnrQ1oiAPSPWqQlCxxYQ70thRpdEcqdjSA1NGy1pez9Y+yI6GzMOWv1Idk/rcWI+y7GyME8hJs+Eqo2XIT+SR3xez1vtMzvMV7Ei9ndsBKVlO8ZXyj2UREb3E/kNg77prBANj0d1GIcQHQ+Lf6MY1uEXGBhGdDGJlAq8HFIJIH7CKOv0jGJ6qBSetty5FKJHtl/+KcwnxAEjLP7XDAEMHokik0hgbl4f4I65OAzJg9ai+V4xnxNxhGdnjDAOG/vFWg5m02KP2ft4HIMdaqTeZxkkHxIHgrU88mJQdMo4IJrjy8kD83Kz9gdR+2HQb0NqxC4L9KI/YbcHZWsSCN5UiuPATUGgrwud+jVEX1cfkH9GljdkKIkAGijNS3axWf1WTS5rZv8CRt1eQK1JHliCmD4R0a9Lqm+PC3aIJsSByAxXRbSsi9tltfblNhSeEVHs2CdCRxBiTxnEazvIpRu7RBiL/bVWuY+lzv1mVIfRdaPu1dT45XzxTMoiDxrizODEcNmyifyDQb8N0SldFhDdgmq1b5VoudolCKMzLyRGpxbUHTPbvWukMD+DfPFsw6kZ26MOXg5m6cYqv7T8zpeKA4ahO+g8I5JnFt3DpTMDIh9i0Ded0VrXVOt1cUW09W1Gi1SFUgYrz+lRNdklklRl7d61tGrN2yWkprGvSUzpEk6NOrjchgOHwshcXLXOchz7RNAllxLZete90nMrYk/JVn7lPpZWL9pnIXJ85T6V48P7zXOIFaRka/6wi1ITkYcx6JuuPJDlHSAygFJI6zs6ZKs61RfX97FbNfzUSOWdKxV3gPREHRc+GyYvCleUVrZLrOuILtnYJRzjQrOTtS9U2OptiRUvvhYwdzKJzJDZujZr6ua1D+O6gH0gUAcbcWakQts6oDj2qR4f6TUOcuoCuVHnJ/IpBn0riMBbGM/r2nQ/VrqjQJ/oztj17yCmjXvqAwMT6uKrWcvGVLZKPb4y4My6eq8IXFUTr/XlrOLBpVlE+B6PGQcteRfOtLrQnCgejMzt6ld3DY2rMwqxLaf0nTT2OHkHjuNCbhhRzDjGF8tZYh9bd9Loeas7cCaKoS33aekzqBxvKV0gJ/IzfmHK0LInTMlbAXfoC1PFWzW9/uUseV/7QBqRinAmai/8whQREe06Bj0Rkc95qnQTCoVa9iQo+SjBXC7Hh4MTUUNYumkyPkqQiKhxnizdrK+v677ta+a8iIjakadKNzuBpRsiaoQXSjeeCfqNjQ3dR0TUPlijJyKiXcegJyLyOQY9EZHPMeiJiHyOQU9E5HMMeiIin2PQExH5HIOeiMjnGPRERD7nmW/GvuazX9F9RETt49XfuV33tS+26ImIfI6/dUNEtA38rRsiItp1DHoiIp9j0BMR+RyDnojI5xj0REQ+x6AnIvI5Bj351vdf+hkWnivg8hbuIJbTyGnlPIi8jkFPvvTkv/wUkbOP4fD5J3D88e/gZxv/qsdsTr5XTiOnlfOQ8yLyMgY9+Y4M5jvOfRPPvvQy/lW0zP/ye8/hE0tPuQp7+R75XjmNnFbOQ86LYU9exqAnX/nJ5Q38/oV/VAFtcxv25SFvk/OS85TzJvIiBj35yuuvvALRrhvw2iuc/2lvFva1Ql6S85LzlPMm8iIGPfnOyFvfgv/a0+067DcLeTkvOU8ir+KPmpFvTX33+/ijpeWKFvzPveY1+L1fuhH399ysXjPkaTu88KNmDHrytXph/zv7r1f9n714iSFPW8agbyIGPW1VrbCvhSFPjeDPFBO1gVo1+2oY8uRHDHraE9yEPUOe/IpBT3tGvbBnyJOfMehpT6kW9gx58jtejKU96a/yq/jEN59W/fe/+234d8FO1U/UKN5100QMemq2v/v/fqT+fd//9Ub1L9FWMOibiEFPRO2It1cSEdGuY9ATEfkcg56IyOcY9EREPsegJyLyOQY9EZHP8fbKdvbkP+DK3L/oF5U+1HULHu59k35FRZe+hTu//kP89vsP4iPWLxG3gTxOfv67QOg2nHi7HuQjz2fP4S3Pvwnfv+OduEEP2yt4H30T7dmgf/qaKn88P8TnHn0Mj9zAoCfabQz6JmLQm6oEvaP1fzVmjdbsN772NbwPb8Xl24JWy2vlZdxntywrzhregL+769fwXtVvtULvVf0oTSPVmK5Lz79CQCw/9NOylra1HUM/b61bOXtdTY51UC335/FF/bJ4hrNZi77udKXhNnOZznUy93OVFrvaR9D7s3y83vafqXcq5hlatW03l2d+puUqW9eV6+acv/mZS87PXX12t72xYn1tcv8Mv1C+zL2DX5iinaEC5WciBG7D5btEF3othr5+Dp+7pMcX5TGzAvU+9QdfPt1db8V9+Be872t5MVIG0XfxuAgfNe79N+DxnJ5nnelu6D1oDJPBpN9TJZDw5HLV4HCQIaPmJ7rQG3Bv7h/wDTVChJEI5feIkLGX956Vx3DySTWyjs2mM9b5rlsw+1o9WCgGaHF95H6216cRxgFOz+v7XVfjiyvfcn5mr72htCy1P5vDCvnXinC3l/0zvO/z9naUfe5yH/z0u7gzC3zkDr0u4nMw1614YKO2xaD3PPGH+fS/iNbgO0ut17f/Gv4u8DKGcjKwDU/+APcG3uJ43+W7zFZvEL8e0L14k/rDrloaqjudWyJwxcHiQ0aQNuL57Pdxrwib4WLIBHHCRehsdbriQfK9RotV7ed/wX/P/lAPcMvat+bB74auN+FDur+15HbIM7pSC/6G3neKA5reDnXwfQP+oPi51/nvgDyDQe95P0JetIrfc63zD7Hr2qt1n1b4rlUGqtayliWLz38NV4rufQU9rEiexotxqhVcVgqpO119MnAfFwenP/h5PaAWud56GbJUZAfUygsvAz//8w2XCbY6HS79FI9DHDy/rtdli9tdTpZg1LyqlIw2Ze6bYotc+9nzeEtxnFGGUdtxNYKOA/ObENSfw/MviP+YXnsNuqyX5BMM+r0i8FZ8/4Yf4i2PfgvP60HFoDZKGX9X0TK3WryO0o2r6eqRrcrXGq3GOszSjbkOu8Is65S6rbR27YB/3091CURsW8MtemPfqPKL+dm2qOxD3sSg97w3Ivha4PEXnOUD1XItc0PvW3CfaOnN6Hr08ys/xBd1WGxaurj+zfjt176MvGjBNjRdFfmcbM13Gxf/XDLWQZ2x/PSnpWBzaavT4fqfx3tEi14ue/vy+N8FfdBo0sVLVfr52UtY0a9rqrodP0T+p1bfDdeK/5jczIc8hUHveW/CR972BueFvCf/Ae+TQRIqL9MEMdx1Ne592mj5GaEnL9KVShFWyaZ4kfLSs3jkZ8Ypf83pNvMy7v3pm/CprdR8jXUoP2hZFxG/hjs3qZdvdbriviteDJbK9lFDzLC1LhA3XLoxqIOvq5JL5XY8n/1WqS7/9u5SvV5TZx/qAj15FYPeD+TFUXUHiFUOsO6IKauna3bQ3SP+kNVFOBHXdi33LS+8Rd39gcIPRAgEcUKVSvQ8RRBBX/CtP93m7ntbA61Ysw5trIMqKZnr93nrLpbNyyhbnU5u90F18fV99vqU304p3Fucr+jU7afi/WZJRRHroO4gst/7fQTfL8srL+ORlWfUgUfe+vihG95cfz8Z++Yt5ReK65DbYd1pY08r78CxL87Ki6/WnUj2vFV5qdq1HfIM3kdP1ELFWzL34P3lewXvoyciol3HoCci8jmWboiItoGlGyIi2nUMeiIin2PQExH5HIOeiMjnGPRERD7HoCci8jkGPRGRzzHoiYh8jkFPRORzDHoiIp9j0BMR+RyDnojI5xj0REQ+x6AnIvI5Bj0Rkc8x6ImIfI5BT0Tkcwx6IiKfY9ATEfkcg56IyOcY9EREPsegJyLyOQY9EZHPMeiJiHyOQU9E5HMMeiIin2PQExH5HIOeiMjnGPRERD7n/aBfmkRvby/G5gt6QA1u31fLdqcnItolbNFvSQFzx3tF8E8iJ1+uzWFMHAR6T6tXRERtxZtBv5bD3NS9OHrXbegdSalBmUQ/Dg4M4eh/TiGz8oIa5tAzimw2i4mBgB7QoO1OT0S0S17zqqD729rGxob4/1eQ/8K9+Pd/lsYLbwzh9g8P4oPXZjB2Ko2bP3IffvcXc/jyXz6KzBrE6z/FqXvCCFxhTU9E1ApXXNH+IeOpFv0LZxP4qAj5lw/G8cWFadw3Mojw2zvVuOveeqsI/k9g4ksLmP79X8bK58ZwdPYpNU6pWmPPYVKWXGp2Y5gTBw2l2vS6ZMO6PRG1Mw8F/VP4m9NfEW36CMbHB9FZ6yB6xbUIDcUx+k4g/+n/hXSVKk6FX43ivk89gAeM7r6P3KxHEhF5m3eCfu2f8MSq+LcvjFvfaA2q6YogfqX3KtHzFeS+Zw2q641duPXf3Ors3nqdHklE5G2+vevm9SK8iYjIS0H/xuvwZvnvxQIK8rpsXa/guRVZn78ZN77BGkJEtFd5J+ivuhW3D3UCqzP49IKs4dTxvYcx8wXxb9+d+HU27Iloj/NQ6eYqhIb/FB/vkffMfxRHP5NBvvCKHqe9WMBT80kMfWwSuTdGcN9/HATveieivc5bNfrX3Ywjn/4SHhgJIf+/xnB3/0HHF6Z6I/0YSqRx9W/GMfs3/xW3W3deEhHtad67GHtFALd+bAILXzuHr/3NLB44HlGD5Rempj+/gK+d+xqmRUv+5mvVYHc6r0Mjbyci8hLvBb3tiqtw7S/ejFuNL0yFugK4Vt5VuakXkP/7C8h8YQ4Z8eqqN14LV5MREXmQd4N+W1Ywf89RjP3ZHH7wzo/jz383pIcTEfmPx37rhoiovfC3boiIaNcx6ImIfI5BT0Tkcwx6IiKfY9ATEfkcg56IyOcY9EREPsegJyLyOQY9EZHPMeiJiHyOQU9E5HMMeiIin/PMj5o99thjuq+13v3ud+s+IqLNeeFHzTwV9O95z3tU//r6Ovbt26f6t8uc1+OPP86gJ6KG8NcrW6RZIS81c15ERO3IU0F/+fJl3dd8rZw3EdFu8lTQX3nllbqv+Vo5byKi3cS7boiIfI5BT0Tkcwx6VwqYO96LySX90rQ0id7eSeTUixwme2u8j4holzDomyqE0WwWoz36JRFRG2DQN1WpRV+YHxMt/VLrXr0+bbX7sTaHMTFOvlbDj8+JcwZNj3NMZ47nWQMRNYhB3yKBgQlk5+PInzFD2pJ7KIngVBbZYyE9pESOy+h+IqJmYNA3IDUiWuGyJW52Iyk9toqOA4ggiZTZ+hYt9pnZKCLVyjtLk4gthxHWL4mImoFB34CobIVny7qpqB5bTQCDpxbQdaYX/QnRTp+NoXdgBcPZUVS25QuYO5NH/MQwgnpI0WIS/cWDSwx1Di1ERBUY9C0l79bpR/rQAhbGRTt9aFocGIBY8S4dw1IKye5hDHbo16a+OBaKB5dp1Du0EBGVY9C3UGE+gSTiGB8I6CFCzyimh1KI2RdmlRWkZGv+cGU7n4houxj0LZNDKpFB9MggjJhXQofjCM/OYG5ND1hMIX9ovHprnohomxj0LVKYn0GqL45otYuuHYMYHsog+ZDdqo9i2Gz1ExE1kSd/j75V+Hv0RNQo/h49ERHtOgY9EZHPMeiJiHyOQU9E5HOeCno+SpCIqHGeCno+SpCIqHGeLN2sr6/rvu1r5ryIiNqRp+6j3wm8j56IGuGF++g9E/QbGxu6j4ioffALU0REtOsY9EREPsegJyLyOV6MLcOLsUTUCF6MbSLz1yvlLZH79u1T/dtlzou/XklEjeLF2BZpVshLzZwXEVE78lTQ8ycQiIga56mg508gEBE1jnfdEBH5HIOeiMjnGPRuLE2i9/gcCvplSQ6TvWOYW9MvW2ltDmP1lrXZeCLasxj0XtExiInsBAY79Otym40noj2LQd9khfkx9Pb26s5sYevW/5JseevxjrMEOb4Xk0v6paDmZb/HbLGrfnsZsptEztGit+ZVGi+6qmckRLQXMOjdWlzBqu6tRQZz/9kIFrJZZGU3FURyQISwHg9kkBxZwbAeP92dRP+WAziKaXs52VGE9NCSMOLz9vgFxJFEYp5RT7QXMejd6ImIWE1hpjwo1/LI617Zik4lgPiJQQT0EPSMYnrIOV10qhTKocNxhBfTOM+6OhG1EIPelRBG5+NAot9ZDjmZ1uMFFfqixT5gjBddbFaPV8LoulH3Sh1BBMU0K8/p10JqpDRtfyKjh26FuS79oj0fx/hA8RBERHsIg94tdbHTLoXo7tSwCGqTWS4pdRMNBGx0qjTdwnhYD90K57qoMtHpUhGJiPYOBn2zVGmdVyobr84Cylr5LRI6GAWW87wgS7QHMeibJoSoaIGnRsyLr5V30qTOlC6+5h5KIjM0vCO3RObOpYDuYOn6ARHtGQz6JgoMTKiLrzFdY+/tjQFTWYz26DcI0e4V9OvxseU4Fo5V3i/THM7rBbHZKKZbtiwiamee/D36Vmnt79HL1n1l8BORt/H36ImIaNcx6ImIfI5Bv2NCGM2ybENEO49BT0Tkc54Kej5KkIiocZ4Kej5KkIiocZ4s3ayvr+u+7WvmvIiI2pGn7qPfCa27j56I/MgL99F7Jug3NjZ0HxFR++AXpoiIaNcx6ImIfI5BT0Tkcwx6IiKf88zFWCIi2hq26ImIfI5BT0Tkcwx6IiKfY9ATEfkcg56IyOcY9EREPsegJyLyOQY9EZHPMeiJiHyOQU9E5HMMeiIin2PQExH5HIOeiMjnGPRERD7HoCci8jkGPRGRzzHoiYh8jkFPRORzDHoiIp9j0BMR+Rrw/wOI7WWu640rFAAAAABJRU5ErkJggg==;" vertex="1" parent="1">
          <mxGeometry x="1340" y="43.89" width="108.93" height="185" as="geometry" />
        </mxCell>
        <mxCell id="wcw3lpg_Nm0PKdcRu7sU-29" value="" style="edgeStyle=orthogonalEdgeStyle;rounded=0;orthogonalLoop=1;jettySize=auto;html=1;" edge="1" parent="1" source="wcw3lpg_Nm0PKdcRu7sU-24" target="wcw3lpg_Nm0PKdcRu7sU-28">
          <mxGeometry relative="1" as="geometry" />
        </mxCell>
        <mxCell id="wcw3lpg_Nm0PKdcRu7sU-24" value="Получение врачей в зависимости от выбора специальности и филиала" style="rounded=0;whiteSpace=wrap;html=1;" vertex="1" parent="1">
          <mxGeometry x="1240" y="290" width="170" height="60" as="geometry" />
        </mxCell>
        <mxCell id="wcw3lpg_Nm0PKdcRu7sU-31" value="" style="edgeStyle=orthogonalEdgeStyle;rounded=0;orthogonalLoop=1;jettySize=auto;html=1;" edge="1" parent="1" source="wcw3lpg_Nm0PKdcRu7sU-28" target="wcw3lpg_Nm0PKdcRu7sU-30">
          <mxGeometry relative="1" as="geometry" />
        </mxCell>
        <mxCell id="wcw3lpg_Nm0PKdcRu7sU-28" value="Написать запрос для получение врачей с фильтрацией по выбору филиала" style="rounded=0;whiteSpace=wrap;html=1;" vertex="1" parent="1">
          <mxGeometry x="1520" y="290" width="160" height="60" as="geometry" />
        </mxCell>
        <mxCell id="wcw3lpg_Nm0PKdcRu7sU-30" value="End" style="ellipse;whiteSpace=wrap;html=1;" vertex="1" parent="1">
          <mxGeometry x="1780" y="280" width="120" height="80" as="geometry" />
        </mxCell>
        <mxCell id="wcw3lpg_Nm0PKdcRu7sU-32" value="Блок по отображению меню слева" style="swimlane;whiteSpace=wrap;html=1;" vertex="1" parent="1">
          <mxGeometry x="-750" y="-10" width="2680" height="400" as="geometry" />
        </mxCell>
        <mxCell id="wcw3lpg_Nm0PKdcRu7sU-33" value="" style="edgeStyle=orthogonalEdgeStyle;rounded=0;orthogonalLoop=1;jettySize=auto;html=1;" edge="1" parent="wcw3lpg_Nm0PKdcRu7sU-32" source="wcw3lpg_Nm0PKdcRu7sU-4" target="wcw3lpg_Nm0PKdcRu7sU-6">
          <mxGeometry relative="1" as="geometry" />
        </mxCell>
        <mxCell id="wcw3lpg_Nm0PKdcRu7sU-4" value="Init" style="ellipse;whiteSpace=wrap;html=1;" vertex="1" parent="wcw3lpg_Nm0PKdcRu7sU-32">
          <mxGeometry x="70" y="290" width="120" height="80" as="geometry" />
        </mxCell>
        <mxCell id="wcw3lpg_Nm0PKdcRu7sU-34" value="" style="edgeStyle=orthogonalEdgeStyle;rounded=0;orthogonalLoop=1;jettySize=auto;html=1;" edge="1" parent="wcw3lpg_Nm0PKdcRu7sU-32" source="wcw3lpg_Nm0PKdcRu7sU-6" target="wcw3lpg_Nm0PKdcRu7sU-18">
          <mxGeometry relative="1" as="geometry" />
        </mxCell>
        <mxCell id="wcw3lpg_Nm0PKdcRu7sU-6" value="Получение всех почтовых индексов из укр почты и адресов" style="rounded=0;whiteSpace=wrap;html=1;" vertex="1" parent="wcw3lpg_Nm0PKdcRu7sU-32">
          <mxGeometry x="250" y="300" width="120" height="60" as="geometry" />
        </mxCell>
        <mxCell id="wcw3lpg_Nm0PKdcRu7sU-36" value="" style="edgeStyle=orthogonalEdgeStyle;rounded=0;orthogonalLoop=1;jettySize=auto;html=1;" edge="1" parent="wcw3lpg_Nm0PKdcRu7sU-32" source="wcw3lpg_Nm0PKdcRu7sU-18" target="wcw3lpg_Nm0PKdcRu7sU-35">
          <mxGeometry relative="1" as="geometry" />
        </mxCell>
        <mxCell id="wcw3lpg_Nm0PKdcRu7sU-18" value="Написать запрос для получение всех почтовых индексов из укр почты" style="rounded=0;whiteSpace=wrap;html=1;" vertex="1" parent="wcw3lpg_Nm0PKdcRu7sU-32">
          <mxGeometry x="430" y="300" width="120" height="60" as="geometry" />
        </mxCell>
        <mxCell id="wcw3lpg_Nm0PKdcRu7sU-35" value="Сохранить все полученную (нужную) информацию в бд для простоты использования в дальнейшем" style="rounded=0;whiteSpace=wrap;html=1;" vertex="1" parent="wcw3lpg_Nm0PKdcRu7sU-32">
          <mxGeometry x="580" y="300" width="200" height="60" as="geometry" />
        </mxCell>
        <mxCell id="wcw3lpg_Nm0PKdcRu7sU-38" value="" style="shape=image;verticalLabelPosition=bottom;labelBackgroundColor=default;verticalAlign=top;aspect=fixed;imageAspect=0;image=data:image/png,iVBORw0KGgoAAAANSUhEUgAAAVEAAAGfCAYAAADmlOGGAAAAAXNSR0IArs4c6QAAAARnQU1BAACxjwv8YQUAAAAJcEhZcwAADsMAAA7DAcdvqGQAADwESURBVHhe7d0PcFxXfS/wLw1K+NM8YMSYRKSx9uGmLS+LYZI+VWs8w9YZwtOMBJQmgW7Fq8U+lY4djf0KrzxLeN6ku+5rm8YeYf5UFXJbzfIneSQgzWgIgytmjFddcCZPLI+WYLpySpTEkx2gbmgSrPr9zrnn3j13/2mle1de7X4/njvavX/O/SPv7/7OOXd1XnZFIARra2vmFRFR67jmmmvMq+b4BfOTiIg2gUGUiCgABlEiogAYRImIAmAQJSIKgEGUiCgABlEiogAYRImIAmAQJSIKgEGUiCgABlEiogAYRImIAmAQJSIKgEGUiCgABlEiogAYRImIAmAQJSIKoGlB9KXVc3jozz6G4cG96Ovrk+kOvP+P7sdD3yqaNVpNEXOH1HFOIm/mUKN47ahzNSGIvoQn/jqJfe89gMkzL2L3703gk5/4JD75x/txy3Nfxf33DuD9J/OyFhHR9hf6GEuFLx3AB//sHN44/En81R/cjuvt4U3WLuHcp/8bDsw+hdjEF3F8sMcsICJqju01xtLFOUxKAH2pfxwPlAdQ5ZrrcfvoOBI9LyH7wOdwjukoEW1zoQbRwjceQlZ+3nXPu9BTK/hfG8W73n0LIrf+C4rPmnkSfA/rdtNaU2VbW/FbGRwdHcBevVy1t07i0X8qi8puuScrW+qK84dlu8OYu2hm1GrXu/QEHj35MQzfc4c5lj7ccc8BHJ09h2L5AKfLk946VadDc7IXR/6kmtdAG+KGzsFR/O5DuP/e9+MOvd+9GBg9ikyttmhzfu+/0znGO+75GCa/VjDNLe41qTPp42KbKHWuEINoEU986wn5GUP0lmudWTXc8nuz+MIn7sOdv2RmuPaNOe2n3nQfEr9mlnleQn5qGO+5dxLZ696Fj95v2lufeghHP/BBTC6HmN7+ZBHp3x7G0S89h1+9+6OmbfcjeNeO70vgOYADs+p8K93ygfsaOI/mWJXA+p4P3Y+v4nb8/h/Lvu//KN51XRaT974Hyb9+wt8WvSoBekid31O45XfVMd+H/b0ryHz8g/iQPjepOSRL53HfB27Rm8UPleZ9cqBXzyPqVCEG0VV8/4z6GUFPt56xcT1vwe3/+Xbf1Ptas8z1gwzSn30Cr//AJ7HwiTEM7ZX13pnAfX/zRYz3F5A5NBlaM8Hq0qJkVj348KemMf6+O51jeudd+MiJv8KYBMXC3/xd1czr9W/yn0PV82iGf5YbSUrqAnvH8bcnPoK73in73juEsROP4Pj7JPv9tGSkPzDr4pLcCNLI/iyG8cws7htW53cnEn/6t3rdJ07O4NGfXIueW63zeNPr9ZY9b7bm/cfr9TyiTtWE3vnmyj86g4Jku/t/53b48t1revCue+4CfvYQvvFYOFG057/chy88+gj2l2eR10Twltvl589CzHpD8MTpz0lQvwVjB4f8zSnXXI/Y3WOypICZRRP2i1l89TRw7fAIhnz9e9cidudduH7HU/j+P1wy84iollCD6LWvMi+apojCeRW4rsOllXM49y3/9J3VF6GS4OV/fkqvHZqXLqG4kpd9PIqHpiZx9N734/CsWRZIBkm7ffHO9+PA/8rgXFkbZ2Pk2nx3VX7+OiLlzSRK76/KEjmV7xVkTfGj7+v269t3VnlCYvcYvj4/i7F+ZplE6wkxiPbiV96ufhaw2rTn6VexsqR+LmLy3gM4UD79mdNx88TFf1UrBbdWxLnPHsAde+/AwD1J2cdRTM5/Gy/90vswtM+sE0gcY27bompzHJX0dmkSB+45jDkVD22zyVKwNdOAqrpbXrzs/LyuuU90EJElxCB6PX7lrVH5mUX+ifrV3JeW7sfA734M958pjxTr6UbvbfKj58OYzeWQqzUdVMcR3BOzEpinzuH1d0u1fv7rOJPN4YxkaP/7f7wbt4fSxtmDt7htizLd+b6P4JMnPoyen2Xx5w+XtbZWdLqVOnpc173c+fli+VMDRNQ0oVbne/bdJbkV8NAXv4rVmh/kSzi78BUUf/B9dL9+ow/bvx6vV53Bq9/BP1ap8qrgvHdwGPd/I4xU+Amc/UpBfibwkUN3IrLjelzrZXhP4anvmZdh+7Xb9TV86bypdruqdLq5HT2ObkRuVddzEfl/cub4rPwjvi0/rn1zRDd54MZexOTHuQtVbmSrczhw5/tx+Evq/ImonnA7ll57J0b+ICJV0jT++6fP4VKVQLr65aM4+rWXcO07x/DbG37s51rcfmdC8rcsTn2urPy1J5A58RBeuvhGRN+62ccDbF34xdeon5fw0ot6hqf4tVOY/Af16iVcqpJ0v/H1AdoSJdh9R35cu8sEuw24Zd/vIIpVzPzlnP8mtnYJ2Qcn5bbQg5G9JkvfEce79skZfGmmoumg8M05nPvJi3iLBFwiqi/cICpuGf4kjt8dQUGqwgPvOYz7v/So7vTJzn8GRz90B977J1lg94fx2f8Zx2ZCzbWy7X3DEax+/gDee2gSc2fO4dzXMjj6Xz+Ez6xci9jEGO4sr2pL5lreCXXuh8/Jguew8n/PofATZzW/CH7zfSpXm8Mfufs5M4fPfHwY7/mTAvbsVVXpp/Cc2vYnBSkzi4fmVRvltfjF6+s/J1uyiu94x5TF3NRRJH//fuRfFcNHf2sTTRK/dBfum5BjPpPGBw/dj4e+5hzz5KH3SlYpv5sP2c+rXo87D45LNppFev8BTMqxq46zjJzfB/8ij8jw1j3bSrSdhR5EcU03Yn/4BSxMjeOuNz+HcxIYVKfP4dT/wRMSHMbul2Wf3o9bNt2Tfy2iB6WMT4wh9uJX8ecfOYADH/8Mzr0qjrFPfbn69/FPT/o7oGQ6+nn1MLlkrx8/gPkLzmrlugf/FF+YuAu/8vRDSKv9pD6HlTf8Lj47N4v73rdb1jiHJ1YkFb0wL2XKDWP+OURHP4WRW53t12d3kB1G+rNZ/OtbE7jvs39a9thR43oGj+PLn5JrI8f2l3JuBz4yKWFSrvsnvozZ0aj/sbCeIRyXcxmXjDR78rAcw1GceuKNuOuPv4C/PVi2LhFVFfofINle8pjsSwJTOYypmEhEbWd7/QESIqIOwyBKRBRAh1fniajdsTpPRNTCGESJiAJgECUiCoBBlIgoAAZRIqIAGESJiAJgECUiCoBBlIgoAAZRIqIAGESJiAJgECUiCoBBlIgoAAZRIqIAGESJiAJgECUiCoBBlIgogND+KPNjjz1mXjXXW9/6VvOKiGh9zf6jzKEG0be97W369c9//nN0dXXp10HZZT3++OMMokS0IdvyL9uHFUCVMMsiIgpbqEH08uXL5lX4mlk2EdFmhRpEX/7yl5tX4Wtm2UREm8XeeSKiABhEiYgCYBAlIgqAQZSIKID2C6LLk+jr68Ph+aKZQQ27OIfDfYcxd9G8X1cek3KtJ5fN2zZRnD+MvkNz4P8gakRTHrZvlvUfti9i7tAAVnYlkJkFpnNjiJolRNSZtuXD9lfNxbNYXEogfjAOCaNYLMuQ8if70Hcyr1/rbENlUd+okn3pbHZS8qwqWYlaVv7erOtwsjNVtp7M/jSd6cm6JluuWC7c43Imc1z2+vakjkOXWTbfV6a6sdRaVqZeJlqxH3XOdiZamZVWZnS1r41vXXO+pdqEfztfLaPa+Zev47t+/vPzX2+Z5Jj8x112zHqyf9/U6doqiBZzi8gOxyX7jCI+DGTO1PqvnkcmBYzP5zD2jj2I92exmCt96PJnMohNJDaRxaoPXBKYyiGXU9MCxs8ny5oWMkie6sWCtdwLJvJhH0hFJIM2209FkB6UD+zusVJ5/UDCLf/EELr1honSNrlpJGaTJpg5mXl613Rpe3t/G2bvZ6NZfiPXRpFjPpXR53h8UJ2ds11hYsFsN41IaqBsu5j+XTrLc5iW371HBdDRQmm5vqZlN4ph9/rIdNB/VvmTSWT6x83vS6b5cdkbUUkbBVEVGLNI7HU+BNG75T/77Ez1rGp5EZnhEQztUG+6sWdfDNnTZ73MY3E2hnifE542ojg/I+VOY2y3mSFlDx0ZB1IZKdUlH/gjbvCT5fsTwOyiLHeChy946+AZoEliOYO0ZObTXmBwjqfmdWmixq6NULUJjCNh1tPbSRCb0AFViWJsKoFs+XZVudd0wvyuhVzT6eEs0g82fiOJ7dtjfl9EldoniKrAKB8298OHHZUZpiZZWp/KBK2Mo7svjtjSClbVm4sFFPrj2ON+6DZg9ULWKd+u+g2mIXMtEUTssm/slbAq+7y4ipUlWXrzZj6ukt16+5TMyQSr4pMFoL8XPWYtbYfs37xshsxo6dwH5KbmaujaLKUxMLiCES/DNtvtiviDmL5mjah+TXt2Np5LRvdKwPZusESV2iSIOhmH/hB6H1KpxsoHqCJjkQCzsG8RA3ZbnQ64ThuqahJAkMzDrhp6U7M7uOxqdq1q8tbwmhpkWpgoC1brXRtVbZ6C3BBaqM1R1QaOSMJcK/BTx2uPIKo7lPztYnrS7VeVHUzdgyNISMDNePOdKn3mzBzOnsamqvKKznDOF9bJWlTWaV4qT6/Ih1Jlpz3o7ZelTwYNfqZ54sIqum+WnNPNsF0q0zYvt1Jj10bsTmBcbmgz5iZQdTt9zRpR/Zrq7LZhcoM+JoHTvQGwTZTKtEUQ1R1K1argO4YwUrWDKYqEZEmZU6VsVFfpZ9NIY3NVecUNzikrC6zsobbb4+x2UKd91Jc51+str6koN4IsYjulEm8CUtLrSHIDgtsevHUauzaK/zpUbpfH5GijHX9uWanSNVyeRHJWbrh3N1g3qGhXJvJrgyDqdCjVavxXbVqo0pFS8eHUVfoanQiyntdMIB/giveeKMYkU0FqwDQp9GHgdBwLVhuf6lhKYMYsd3rOnV5oIVXHhYlCqX1Tqo6RqeMNBDy7TVTKhNsRI0HkhOmRt/ZX3gO9NRq5NoYv+Mt2pkfe2c7pqVfXTAdhVb2u14atquO6R95cH91T38g1VTYSsKlTtdnD9kFIlnYoBRxp9AO2CSqzHFxEvOEPMREFxYftt4p+tGbzVXki6kwMokJ/k0lliN7zm0REjQm1Oh+NRpv2F+jV8CD5fJ4D1RHRhmyr6jyHByGiTtOU6rwa5jgsYZZFRBS2UKvzW4HVeSLaiGZX50MLomtra+YVEVHr4CNOREQtjEGUiCgABlEiogDYsUREbW3bdCzZ351XjyV1dXXp10HZZTX3u/NE1I62ZcdSWAFUCbMsIqKwhRpE1Vczm6WZZRMRbVaoQZRf+ySiTsPeeSKiABhEiYgCYBAlIgqAQZSIKID2C6LLk3pAsqs17vrVVn0ETSJqljYLos4QxInhsqGHO0j34HHkqo2gSURN0V5BVA02t5RA/GAcCWSwuGzmu/Q47mboXGvyZa0mk3WnSasMNRbT4fk85g65y+0x4fOYtLYrLVOjiFrzvTHgRSPHU1auvUxnndYyVXZ5JqrHj7LXkck+p3KV65fOUS+zj19fK2d5xbG4k16//NqoadK5yVUZW798PxXHZB8D0VXWVkG0mFtEdjiOqPyLDwOZM9U+bDGMz+eQyznTtKznUUFhFJg2y3Lz4yiM+j/g2VQSK/vNcj2eub3cLlsNi6wCqBnrXc8zY8D7gkCd49HBxxln3VnujL/uC7LDbtkylY8nL+eTnLXLl/33m2V1JKbM+nL+MTOvkpP1u3QGbI4xYZ+THFP+ZBKZ/nEs6OXrleunAmjyvLXtVAKYTda9ERBtpTYKonlkUlkk9jqBJHq3fFBnZ3wBsD7TFDA1JiHY2DGEiQkg/aAV9CRoje02r3cnJChlsZizM0fLcgZpyYynveDWjaEjjR9XcX5GB5+JQbdyHsWYBJENNVX0N2cY6OJ8CmkJhY0Gw9i+PZtqYogelMBpN0/sVrUMotbRPkF0eVEHnIQb4HbsQbxegKuwipUlyV5H/VXHAQnMttjOHvNK6UZkl2SnF1bNe7/ikwUJYr2wt8COCCLm5XpWL8i+d0X8wefG3oYDlw44S4s4u4EbSeF8DL03mrc1qRtWBNNH4uZ9fdG9EvhPn/WaGHz09Vj/91RqLpCs1swjagVtEkRN1XIpjQEvAEo1WoLiRjuYvKqsPZVXk7cNyVxzkkof81+T2tSNRILaOpmrypALE4lSxr6e3WPIHQFS7u9mMC1h0yXHKNV7pAbMMUr1fdYsEm7wHFBBW/8+VHMBUetojyCqO5T8bYt60m1vVTqYqupBbz9QeLJ+RuTPOlXmVp6dlnTfLDnn0oqEJsvFAiQ/bUjPTsk5zxf8GdzTK1YAWp+udqsmBX1N1mkTVcdWnjlXkIxfAtqI18TQCLnJHZPA6bbflreJ7hjCcev3VmoXLuLs6ay5sVnNLEQtpC2CqO5Qqtb2Jx/OkZodTOW6MbRftTemrPZK1TFU1ltut2eaNs+aAUW3mWaQ9DqS3GAygqEG2im7B0ekOp5Gytt/HpOjGcQazgJNO7HdzltH/sE0sF7b5axk/A2W56loG96Y0o1N/T5YnafW0gZB1AkUtTouVHucCnyf/5xUC1U1sl5Hi1Q7F1RH0mCp+ru4bwHH7SA5HMGKu3y0INlvvYAigfmE6ZE35emeegkmupq63vFIyWOmR97Z3ump9x1PHW6vuNdOXIfuBZdqdNaqVjvV7qz/CYQGyyvZaOC3OR1xpar+AFb2O9l0YzdGouZryl+2b5ar/ZftdaCBEwTbjTq3mZ1VArR6jnNwEfF59ciWmUe0jXDIZCKiFsYgSpp6HrNqM4Hu9GEWSlRLqEG03YcH0Q9+t2FVnog2L9QgyuFBiKjTNKU6r4Y5DkuYZRERhS3U3vmtwHHniWgjmt07H1oQXVtbM6+IiFoHH3EiImphDKJERAEwiBIRBcCOJSJqa9umY8n+7rx6LKmrq0u/Dsou62p/d56Itp9t2bEUVgBVwiyLiChsoQbRdv/aJxFRuVCDKL/2SUSdhr3zREQBMIgSEQXAIEpEFACDKBFRAO0XRJcn9aBmvhE625Ua/6jPGkSOiLZcmwXRIuZOZZAYVkMfZ9D240Fy6A6iq669gujFs1hcSiB+MI4EMlhcNvMNNaJlnzcGvKjI5PKYdIcLdqdDcxKazVLZ/vB8Xo9F7ywvzwKdceq9be19VSt7nXXsbFoPsWwt09uVHb8+P3sdmSbLrgERhautgmgxt4jscBxR+Rcf3uzY5AlM53LIybQwETPzSrKpJFb2O8tzUxFrTHYVQM248np7M968L0hK6VNm24ryVQB1xpV3ljvjzfuaJYbdsmUqH+tpeRLJ2RjG593ynfHZiai52iiI5pFJZZHY6wSX6N3jiM3OhN9eKIFsbLd5vTshgSqLxZwEuuUM0pIFT3vBrRtDRxo/huL8DDL945jwRtyMYmxqg80S/XHsYdWeaEu1TxBdXtRBKOEGuB17EHcDnG1WskO3ujuYRtbM1i4WUOjvRY95W01sp720G5Fdkp1eWEXxyYIEsbJtd0QQMS/Xs3pBjmRXREq03NiLyly4ht1xJJYWcTbsmwYR1dUmQdTpUMJSGgNee6BUrZdU9bssk7OrxPOSKZrZ2tMryJYHsm1DMtfcBHDMf/5E1FztEUR1h5LdHmgHycoOplpUNunPNCuprLOkiMJ5JzvtvllyzqUV2Et1Zmterqdnp4Tz8wWvE0tTQd28bERxPuU0KejzZ5so0VZoiyCqO5SqtQfuGMJIwx1Mqk0ViPetk4fabZymHXREtWPq9tEMkl5HkmTHx9LIDo809AhS9+CIVMfTSHkdSXlMjmYQm0hIjtkI0yY8Ndbg+kQUhjYIok7wiO3bU7UaHt2b8Ae+qpye8YzkfelBtzrchwEpVzcRWI85YTiCFXed0YJkv27Q6sbQCdMj71anVU+96mjSXwBQ5ScQd9tsK6jquNMj72zv9NQf9zqa6suflPLtNmEi2hJN+cv2zdK8v2yvgugMeucrH1xXz2cOnI5j4cQQVk/2IQkTGIloW+CQyURELYxBVFNV6epfn+wePI6cZKHbs8eeiJot1CDa7sODRA/mWJUnIp9QgyiHByGiTtOU6rwa5jgsYZZFRBS2UHvntwLHnSeijWh273xoQXRtbc28IiJqHXzEiYiohTGIEhEFwCBKRBQAO5aIqK1tm44l+7vz6rGkrq4u/Toou6zmfXeeiNrVtuxYCiuAKmGWRUQUtlCDaLt/7ZOIqFyoQZRf+ySiTsPeeSKiABhEiYgCYBAlIgqAQZSIKIA2CaJqjCQzeFzZdNgbPZNajRq/qs8eBJBoG2qTgeqc0ToxlcMYR7skIgv/ilMY9JDFdoY6KWG3RGdE3rLDzvDKFduYSWdOKmjLestzOOybb/NnxxUZcVn5k8tmvsiflHne+PXiotqPOq4i5g6Vtqm2fdVz0Ro55rLy7WMoO59G1rHP2X9cznblmag+b3sdmezrQtSSVCYahnPnzl1ZW1tr6qT2cfny5SrT41ceuO22Kw88VmXZYw9cue22e688vOrOc9a97cTj1vIHrjzuW996f/nZKw8fLC/blGGt9/gJeX/w4SvPWsvvfeRZ3/re+/J9rD585V7rGHVZ7vFVWa4nVYa3P2d69pF7/fN8+1nvmJ3zLO23/L2zvX0d9P7Kltc6Z/+61vbu/vWx2udY7bpz4rTxqdnaPxPdPYacbyTPKOLD5qXKvE5lEJtIyFxDrz9Wel9HYqq0XvTuccSWFnFWMr/i/Awy/eOYGHTHCI1ibCqBbCojuZqzT3tb7BjCxASQftDO6jYqj0wKGD9ijUwq5zI9nMGMlRHWOmYsZ5BeSmDaG4ivG0NHZPnsjJXN1lb/nBvUH8eeKiOuErWyzumd11Vip4qYnDXzsIqVJSBy82YGRI6h90bzUtkRQQRZrDwtpV7IArsi/mGWb+yVLRRnn5lRf7V1ICXb2GaTpeWDaSl5HRcLKMha6UF/uaVzVWofc/HJggSxXvSYRZpe3pj659yA3XEk3IBOtI20fxB1g6cEoshUTrLMnGRnZtlVlDDH4pvs4ZiHp0vz5yUjNLPri2F83irPTMe97LCVqbH/JR0/5t4ABiQzNouIWljbB9FibhFZE5Aqe+570NsPFJ4s6/RpiJPBeXQm6GR6PTsl5J0v+Dttnl4x2WSQfdZhZZW11T7m7psl51xakTzZopc3pv45N6Y4n3KaFHTwX8C4XCeiVtcZ1Xnrw616hEtV3G4M7S9rt/N6ws37OjKnrJ7lB6XKPTyi2167B0ekappGymuLzGNy1G17dfeZsvbh9IoHe6Y1isREDJlR+8kDp7fc7uGudczYnZCglUHS622XYzpmLV9H/XNuhGrTzfrbiom2gbYPot2DExhHGgOmjXDgwggWJNhgdtEJNrvH5H0BSbPcqfbbHVG1JXateOUmz49jwauOq6rpNCKpAVM1TaIwsVCqVut9wmq/HMDiPmv5JnUPHtcdSd65VHl2tvYxS3A/IdnfebctVqrTuySDV8v141hJZJBAvOZzuOuc8zryJ6X8/nEk+JwvbTNt8rD9VlMZ3nZ7uH87HjNRcHzYnoiohTGIEhEFEGp1PhqNNu0v0F++fBn5fJ4D1RHRhmyr6jyHByGiTtOU6rwa5jgsYZZFRBS2UKvzW4HVeSLaiGZX50MLomtra+YVEVHr4CNOREQtjEGUiCgABlEiogDYsUREbW3bdCzZ351XjyV1dXXp10HZZbXOd+eJaLvYlh1LYQVQJcyyiIjCFmoQVV/NbJZmlk1EtFmhBlF+7ZOIOg1754mIAmAQJSIKgEGUiCgABlEiogDaJIg6o1o6A6T5p2AjaFIzqZFX+w6VRh8l2o6a8rB9s9R+2J6DsBFRdfwrTmHQQ/7aGao9NrvJiLxlZsz5im3MpDMnFbRlvWU1Rr093+bPjisy4rLy7bHh8ydlnjf+u/DGwnfGp7e3K9++6rlojRxzWfn2MZSdTyPr2OfsPy5nu/JMVJ+3vY5M9nUpV7l+6XwrrqG+3s7yimNxJ71+tfM0/1+834N64yjfT8Ux+a4PtSWViYbh3LlzV9bW1po6qX1cvny5yvT4lQduu+3KA49VWfbYA1duu+3eKw+vuvOcdW878bi1/IErj/vWt95ffvbKwwfLyzZlWOs9fkLeH3z4yrPW8nsfeda3vve+fB+rD1+51zpGXZZ7fFWW60mV4e3PmZ595F7/PN9+1jtm5zxL+y1/72xvXwe9v7Lltc7Zv661vbt/faz2OVa77v5JHb+3vO41NOdSfg31Mfrn+a+JTLpcc82q/B7s/VRsq8+p/jlwav7UbO2fie4eQy53HEM7zHtEER82L1XmdSqD2ERC5hp6/bHS+zoSU6X1onePI7a0iLM605lBpn8cE4Pd7lKMTSWQTWUko3H2aW+LHUOYmADSDwbJWvLIpIDxI0Nw96rOZXo4gxkrI6x1zFjOIL2UwPRBd2k3ho7I8tkZX+ZVS/1zblB/HHu831N4ivMppBGTf42J7dtTuoYbED2YQ+6Eff3jSJiX1L46p3deV8WcKlZy1szDKlaWgMjNm/nIxNB7o3mp7IgggixWnpZSL2SBXRH/B/HGXvMhdvaZGfVX+wZSso1tNllaPpiWktdxsYCCrJUe9JdbOlel9jEXnyxIEOtFj1mk6eWNqX/ODVABxw3oDSmicL7sfKpSN5cIpo/Ezfv6onsl8J8+6zUx+JjrtZirutRTai5IImPmUftq/yDqBk8JRJEpyRRyOcnOzLKrKGGOxTd5WaAYni7Nn5eM0MyuL4bxeas8Mx33ssNWJplrTtLxY+4NYEAyY7OoKnUzkqC2TuaqMuSCXdNYj6qJHAFS5ibkv4HJMcrvAqkBc4z+m5QbPAdU0NbXfpqZaAdo+yBazC0iawJSZc99D3r7gcKT9TOL6pwMzqMzQScz6tkpIe98wZ/NPL1iPoxB9lmHlVXWVvuYu2+WnHNpRUKTRS9vTP1zboyudqsmBR2AFjAu16kmdWzlmXOFRZ2FjmzoJlLE3DEJnO5NrPwGtmMIx/XxOVPphlzE2dNZc3NsrDmI2kNnVOetD7fKFkrZQzeG9pe121Xpga0lc8rqWX5QffBGdNtr9+CIVE3TSHltkXlMjrptr+4+U9Y+nF7xYM+0RpGYiCEzaj954PQ02z3ctY4ZuxMStDJIer3JbjAxy9dR/5wboardKgg1FoDUsWO9tstZqUw3WJ6nom14Y0o3R/U7ZXW+E7R9EO0enMA40hgw1a+BCyNYkGCD2UUn2Ej1bWGigKRZ7lT77Y6o2hK7Vrxyk+fHseB98FTVdBoRr9qXlCrlQqlarfcJq/1yAIv7rOWb1D14XHckeedS5dnZ2scswf2EZH/n3bZYqU7vkmxMLdePB6mAkEC85nO465zzOvInpfz+cSQaeM5XPUakboRZq1rtVLtVm7B1A2ywvJKNBn6b0xFXquoPYGW/k01nzjTctUbbUJs8bL/VVIa33R7u347HXJ0KojM7qwRoVYsYXER8vrGbIHUGPmxPRNTCGERp21HPY1ZtJtCdPsxCaWuFWp2PRqNN+wv0ly9fRj6f50B1RLQh26o6z+FBiKjTNKU6r4Y5DkuYZRERhS3U6vxWYHWeiDai2dX50ILo2tqaeUVE1Dr4iBMRUQtjECUiCoBBlIgoAHYsEVFb2zYdS/Z359VjSV1dXfp1UHZZrfPdeSLaLrZlx1JYAVQJsywiorCFGkTVVzObpZllExFtVqhBlF/7JKJOw955IqIAGESJiAJgECUiCoBBlIgogDYJos6olt6gZdYUbATN7UePfX6oNKInETVXUx62b5baD9u3zyBsRBQu/hWnUJRlqt7Y6iZzk3n22OzuOPB99vjzejx6qwx3mR5O2J5vJi8b9O/blxlXlFllHV/5/vHw3WP3JjkvfyZaLUO3x6UnoqA6IIiWstRcTk3O2Orl1Xzf2OAXz2JxybxW9FC8ajx6q4z+LNLHJFjtHrPmAQl3nRND6Db7VuOvO+s447L79x3D+LzZRqbpYTNbUQF0tFBaPhXxj6uuDE972+ox4i3uWO4L7vL5cdkbEYWp7YNocX4GGQk0pWp+N4aOjAOpTCkj608gcX7Re1/MLUpwSpQCjh5F0m4q6MaefeuHI71vCWIT3siUUYxNJZC1912TZMOnMohNTJRGr5SAPT0swfvBxnPJ2L49crRE1CxtH0RXL2SB2aS/SitZpcy19CK+r4BFXaUv4uxpIL63Vy/xK1WPB1L+EqrR+94V8QexG3sbzAZXsSLZcORmfwjs2dl4LhndKwH79FlTtSeiZuiMNlG7yutNY5IXlvTcHHGq9LoqH0HkRrNAc4NnqWq+MLENKsaqqeGIJN01bx5EFFTbB1GduZ0vrJ+N7Y4jMStV+qdXkB2O+wIslhe9tsXjXtV8fVX3rco3L+vrQW8/UHjSf+Q6u21YEXPHJHC6NxG2iRKFru2DaPfgCBJLaaSszpzqz1JGER/OIDmaQWKvv4NGW1qRCraxPNlQdb5y35LRSvmxiYQ/SFfVjaH9qv00VepIkv0mZ2MYv3v9rbXlDNJLCUyXdTgRUXg6oDofxZhkYEgNeG2iA6fjWNC9536qDRFIIF7+rKnu0JEA61aLT/ViYUrWXVrEWbunvILs2/TIO/t2mgNUNqsDuape98exx+04Kqeq47pH3uxX99QfL3U01bWRgE1Em9UmD9sTEVXHh+2JiFoYgygRUQChBlEOD0JEnSbUIMrhQYio0zSlOq+GOQ5LmGUREYUt1N75rcDeeSLaiGb3zocWRNfW1swrIqLWwUeciIhaGIMoEVEADKJERAGwY4mI2tq26ViyvzuvHkvq6urSr4Oyy+J354loo7Zlx1JYAVQJsywiorCFGkT5tU8i6jShBlF+7ZOIOg1754mIAmAQJSIKgEGUiCgABlEiogDaJIi648JXToetUT6JiMLWVploYirnjK9uTRsZJ56IaKM6pDpflqmezJv51cagd9adXDZvhV7H2/6wMw788qQ1z5p0WZVl5E+6y8TFORx2y3GPzTuGIuYOWeXJxGyaqHV1QBBVQSoJeFnqAsbPJxsOTCqA6nHq3exWjwM/ibwaE94tr9/KgquMZ6+C5syseV2mOD+DzPC02U4F0AGkd8l7s7+FiRiyqZQJuETUato+iLpBamy3mSGhaujIOJDKSHhdTx6ZFDB+xAqMEjynhzOYaTg7lMB4LA30x8x7WxFnT0v5d0fNezm2ExI8D7rvZU5fHNW2JKLW0PZBdPVCFphN+qrHfYNpyNySpTQGvOVJZMxsXCygIGumB61tZUrWyCqrWs7ozHJin3nvUeUOYGX/cQztMLMsuvqv9ld+rETUUjqjTVRVl031uDSNwcv3+sdL1fXcNBJmtiOG8Xl7O2dqrMNKstBTBSvTtKlyp4HRKm2nKlCfN8c0P85MlKiFtX0Q7dkpIeh8QcLZJuyIICJ54MrT5v1GnVFZ6EjVTNMRRWIihswpt1Mpj8VZE7Srta0SUctp+yDaPTiChFTXU1YbZmWPfC0myI1OWu2nlT3vtWSk2j9ttW9W4x5fxivPDtqyL1bniVpaB1TnoxiTKjFSA16bpu5tbzDT6x48rjuSkmZb1WaqevpLHVW1xSYSpSaDmuxALcc6lZDX7r5m0CtV/oSE0cXcpnJpImqypvxl+2bhX7Ynoo3ikMlERC2MQZSIKIBQgyiHByGiThNqEOXwIETUaZpSnVfDHIclzLKIiMIWau/8VmDvPBFtRLN750MLomtra+YVEVHr4CNOREQtjEGUiCgABlEiogDYsUREbW3bdCzZ351XjyV1dXXp10HZZfG780S0UduyYymsAKqEWRYRUdhCDaL82icRdZpQgyi/9klEnYa980REATCIEhEFwCBKRBQAgygRUQBtEkSdETjdgejs6bA1yicRUdjaKhNNTOWQy/mn44McvZ2ImqdDqvNlmerJ0ijylWPQV44rr9fxtj+MuYsyc3nSmmdNuqzKMvIn3WXi4hwOu+W4x+YdQxFzh6zyZKqbTeuy/OuXzq/ecZRdE28yx1WtXHOMugzrGvrPx31vb2stI2ozHRBEVbBwxop3stMFjJ9PNlzNVwFUj1PvZrdTEaQHJ5HfPVYqr9/KgquNZy9BZWbWvC5TnJ9BZnjabKcC6ADSu+S92d/CRAzZVKp+EOof945vetjMq8Z3HFGMWfuAOgb9/jiGdshxHEsj682TaSphtluHCqCDaUTs692fRfqYe5Mgai9tH0TdIDW228yQUDV0ZBxIZSS8riePTAoYP2IFRgme08MZzDTc1uoEJPRLoKpQxNnTUv7dUfNeju2EBJ6D7nuZ0xdHtS03rt5xVJfYWzqOhu0YwnEJnvb13rMvnDMgakVtH0RXL2SB2aRVtZRJMiWZW7KUxoC3PImMmY2LBRRkzfSgta1MyRpZZVXLGZ1ZTuwz7z2q3AGs7FeZn5ll0VVmtb/yYy339AqyuyKlIF9LzeOoxgl8mTPVbzM9OyUozi6ucxMqNRcMpOqeAdG21hltona11JvGpEJrWNXhXG4a/oprDOPz9nbO1FiHlWR/pwpWpmlT5U4Do1XaLFWgPm+OaX68biZafLKA2M4e866WesdRXffgceT2Lno3jr5R79ail6lsPOku8wV6N3gmUZhY0NdKNxcQtam2D6I6azpfkDCyCTsiiEh4WHnavN+oMyr7G6maaTqiSEiAyZxy2wvzWJw1Qbta22oVKtOO3LzOmuseRzUSDCVwxkwgLG8TjR4s3VB8gX55ERlzU+KTEdQJ2j6Idg+OICHV9ZTVhlnZI1+LCXKjk1bV1cm07OyxloxU+6et9s1q3OPLeOXZQVv2Va86rzuKEoh77Y/VNXIc5XRbsgTDic0EwqUVrJqX6ikGVuepnXVAdT6KMcmUkBrwqqa6t73BTK+i6mp6+ksdJ7XFJhKlJoOa7EAtxyoZX0aq+M6+ZtArVf6EhNHFXFnIN73gWdjHZtprVRuw9QhSY8dhkbJTEvgS+xu7Rj6m4807plO9WFBZ7NIizvIxJ2pDTfnL9s3Cv2xv0UF0BSN2266h2lWTmPb18hN1Kg6ZTETUwpiJElFb21aZKIcHIaJOE2oQ5fAgRNRpmtImqoY5DkuYZRERhS3UNtGtwDZRItqIZreJhhZE19bWzCsiotbBR5yIiFoYgygRUQAMokREAbBjiYja2rbpWLK/saQeS+rq6tKvg7LL4jeWiGijtmXHUlgBVAmzLCKisIUaRPm1TyLqNKEGUX7tk4g6DXvniYgCYBAlIgqAQZSIKAAGUSKiANokiBYxd6gPh60RPdtP46OMEtHWYSa6bUQxlmtslFEi2jptGkSdrK1ibPnlSWcYXz2ccLXs1cr21GiafYcxZw3zq0bRtIci9srTk39dPba9t6yRdSrHtvdvV5aJ6uOz15GpobH0iShM7Z2Jlo11nj+TMa+UbuzZF0P29NlS4FleRKZ/HIlGsj0VQEcLGJ/PIScZYm4qgvSgP0hCylpQy/Skxo8vUQF0IBXBtFm+MFFA0hdIY6Wyc8cxtMPM1uQGcCyN7PC0WS6TGtudiLZcWwfRxHAEizk3ROaxOJuQeeat6O6LI2YFWhVkY/v2SHhdjwSxU7LuxEQpuO0ew/RwFukHrUy1pjwyqSwSU6Ux47sHJzDen8HMBtp1E3s5rjzR1dbemejeOCJupqmyzOE44nqBsWMP4v1ZrDyt3hRROB9DvM8OoRIUB0vV5eSsmY1VrCwBkZv94bZnZ8y8WsfFAgqSafbeaN5r3YjsMi/X5WTRmTONBGwiaqY271jqQS+cTFNnmTt7zHyXFYwunpU149jjqzbbVeqcZJpmdgvoHjyO3N7FUnvoqN1UQURbpc2DqAqSkCp9vkqW6dBV+tlFzOUWgYaq8ooE536g8KS/6r16IWterWNHBBHJcp0M2KUyYfOyIXlMSuCMTSywTZToKmrzIOoESaSSSFdkmYau0meQTqFqkK2uG0P7E8imUqWOpOVJqe5L5np3I+2UUSQmJAMeLXUkFedTSC8lMDLY2DEU52d0J9hEg+sTUXO0fRB1gqRUzGtmmU6VHv01gmwtu8dMj7xbnVY99aoX3Xl0aiCVrdtJparjTo+8s73TU1/qaKrr4hxSqmNq/1CDmTMRNUtT/rJ9szTrL9urx41SmMBxZnVEbYdDJjddEWdPb6QqT0RU0tlBVH/jaACL+6znPYmINiDUILrthgdR7Zq5HKvxRLRpoQZRDg9CRJ2mKdV5NcxxWMIsi4gobKH2zm8FjjtPRBvR7N750ILo2tqaeUVE1Dr4iBMRUQtjECUiCoBBlIgoAHYsEVFb2zYdS/Z359VjSV1dXfp1UHZZzfruPBG1r23ZsRRWAFXCLIuIKGyhBtFt97VPIqKAQg2i/NonEXUa9s4TEQXAIEpEFACDKBFRAAyiLUQNU3J43hlBVL2eXNYviaiFtUkQdQaHcwPQhqm/cH9oTkrZSnlM9vX5AmX34ATipwecgetOx5HYbRas5+IcDvcdLo08uk2oG4U3br6ZNv07JLpK2mSgOhVE1TAfC5v7K/UqiJ7qxcIJjp65VTg4IG0V/hWnTanM8nTWY2Wb+ZOl7GfyjJqzgoxks868yqzOnzXZy+19ORlxX58aT77yGJwxndyx5v3L9fGcdEehF3pddz/rnE+dTNQ5z9L49m5ZOuPT27nnZCb7GLzzqbJMbyvl6uOstq2wl/mOTw0OGMHIzZkay8vOTzHH6rueRC2gM9tE5cOdnE1gOpdDLjcNzGaApQwKksmqMZcWJoD0sdIHWH2gVfV6Qa8vkx5v3g5MxnIGaYzLeg2OH1+TBK9TckwhiB5cwHh/BjOmmpw/mURmeNrKAN3r4FyLxGzSuiEMIL1r2iyTcs4nywJlBkmVwVdbrgKoHovflK2vmRsoV7Ei1zs5itK+fcsr5R9MI2teE7WSDgyiToCKTSRMoIsiMRGTnwmMmMDSPTiCxFIaGR1M8sikgPEjVlV/9ximh0uByZU/k0Fif/AmgeJ8SoJxTP6FoRtD+xPIplKYmzc3j4MNhHh1Q1iy15VyjowjNjtjBbqYdV2c/WB2Ua6Ye42tUVT1Ncsi/aAE2YsFFGRWYsq62djLy6mb3vmwrgdRuNo6iGZG3apiHwZSbh6jsiAgcnMp1HXfHAH6e9Fj3kNe9fYDhSdVlVd94OXDPVgqS03JWbOqofY1s3MBY412BtWkgnYE00fi5n1J9fNpgBugUhLk7cClSUbonZeTpapzKD4pYc53TcSOCORKWeS9PdT0jb0S6OR6Xay8xkrPTjsMxtB7o3lp6OXnC14NwKECsmS0R0bK9k3UGto6iCamTFVRpgWdbW6WZFxutdSa7E6RxNSC7lkP2rtcnJ9BwcuS/cI4H31j8LGr806VvOk95BXB2LIr4s/kVUa8a6SU0RK1mA6szltZpqGzrqUVyVFdVialP/BZrDxtFtXkVpszlW2lDVvUWajbrBAatw14ylTra7Q7qnPYsy+G7IVVJzv3XRNhquElKus0L5WnV+RKqey08horqxfc7Fktr7ymanlsp537riCjstC7G2h+ILpKOjCIlgc71VOsPtwZLJqeX5UNZvrHzXOaTptpZrSyh7uip3h3wteJs2Gqg6uiuh2UHOuoqca71Xqr08zPuRY6kJlzSXodSVKtPpZGdtjOCu02TLut2WqHdYOsDuSS0euA6ARr3zU1y+N91g1Ed/ZZ7apELagDg6iQYLIwUTBtgQNY2ZUA+mU65bY3RjBtPTPaPXhcdyTZbYeQqnVl+2dl8LDbMfskmOk2yFoP9nuBOywS2A4lrRuC6q2f1p1mKS/Q2+c1oJ8umNCZsJzLCdPj7i5TPfW+TqkYEpjxLfeaOOQaOz3upmzdU3/cC4jqmpZ+B5XLHaXOPqJW1SYP2wekHsfZooftvceltvuD/eq5zcFFxCsCH1Fr4cP2REQtjEGUiCiAUKvz0Wi0aX+BXg0Pks/nOVAdEW3ItqrOc3gQIuo0TanOq2GOwxJmWUREYQu1Or8VWJ0noo1odnU+tCC6trZmXhERtQ4+4kRE1MIYRImIAmAQJSIKgEGUiCgABlEiogAYRImIAmAQJSIKgEGUiCgABlEiogBC+8bSyz73qHlFRNQ6rvzOneZVczATJSIKgN+dJ6K2xu/OExG1MAZRIqIAGESJiAJgECUiCoBBlIgoAAZRIqIAGETpqvm3tTU8+8JL2Mwzdmobta0qg+hq4nOidFVc+vkacsWf4MV/v4KbX/0K/Kf/8Iv4hZeZheuQTfD//uVf8eTzL+A62aiv+7W4vqu5zwLS9sXnRKntuAH0BYmG6g6ugqEKiio4rscOoGp1VYYqS5VJdDUwiNKWuixB7zs/vaSDn6vRQFoeQF2qLFWmKptoqzGI0pZ6uVS/3/jK6yr+460XSGsFUEWVpcpUZRNtNQZR2nK9r34l3vyaVzccSNcLoKosVSbR1cAgSldFo4GUAZRaHXvn6apaef7f8L2fPo9/N+9dqmJ+06teoV//6GcMoLR5ze6dZxClq65WIK2FAZQ2go84UdurVbWvhgGUWg2DKLWERgIpAyi1IgZRahn1AikDKLUqBlFqKdUCKQMotTIGUWo5KljeKkHzmpdBT+o1Ayi1KvbOU8sqvvhz/bP7ui79k2gz+IgTEVEAfMSJiKiFMYgSEQXAIEpEFACDKBFRAAyiREQBMIgSEQXAR5yC+N638fL8T82bSu/tvQ0P9b3OvCPPs9/FXd/4MX7rHXvxgTeYeVddAce++EMgegeOvNnMaiPP5M7gpmdehx+9+1bcYOZ1Cj4n2spUEP3BK6v8x/wxPv+Vx/DwDQyiRFcbg2gr20gQ9WWt12HWysL+/utfx9vxJly+I+JkDCsv4j43I6rIdl+Db97z6/gN/drJno7q1yhto9TYrteUX6Fb9h99vixDdM5j+NXOsZVzj9XmOwadcT6DR8xbLzNfLxOtu11pvsvep/+Y7OtcJdPU1wjmepYvN+f+gl5Ts2sW1c7d3p/9Oy1XmRVWHpu/fPt3rvh/7/p3d8drK47Xpa7PyKXyfXYOPmzfDvSH9QX5gN2By/fIFH0Fhr9xBp9/1iz3FDCzAr2e/jCVb3fPm3Affoq3f70gC9WH/Id4XD7Yetk7bsDjeVNmne1u6NtrzVMferNOlQ87vne+6ofSR32AdXkyRV+Do/lv4+/1AvmgS8B7m3yA3f29beUxHPueXljHettZx3zPbZh1/vi95gUn73jUdXaPZyOsm4cp60e91+GRle/6f2evuKG0L309w+EE0FdI4HT3/QLe/kX3PMp+7+oaPP9D3JUDPvBucyzye7CPzbtpUFMwiDad/Kf/wU8li7m1lHW9+dfxze4XMZxXwdDyvedwtPsm33qX77GztQh+s9u8xOv0h6Zqc0Hd7RolwUwC8XutILURz+R+hKPyQR7xPsARHGngA73Z7bwb0G9YmZa+zj/FX+R+bGY0yrm29o3lht7X4b3mdXOp81A1kVLmeUPfrXKzMOehb2yvwR96v/c6/w9oSzCINt1PUJBs7m3X+/+T915/nXllFH/oNA1UywhVNfaLX8fLZXp70czzqKqdLNPZW1n1uO529alg9rgE/j98tZlRizpusw/VfOB++FcuSVX01a/ecNVxs9vh2efxOOTG9A1zLJs873KqWq7LqtKMsC772niZpPHCM7jJW2ZVzfV5XIeI76b3OkTM7+GZS/Kf6RWvRK/zlloAg2irkGrxj274MW76ynfxjJnlBUGrevvNiozSydR81fmGtqtHZUOvsLKdOuzqvH0MV4Vd1S9Nm8nS3OD59udNtVjObcOZqHVtdJXc/t02qSmAth6DaNO9FhGpEj9+yV+l1BlXmRv6bsJ9kqHMmPa/Z1Z+jEfMB3Hd6uwb3ojfesWLKEjmtaHtqijkVRa6y+rIaJB1DDrTfv75UtBo0Ga3wxtejbdJJqr2HVwBf1c0ATmkjhjdHPDCv2HFvK+p6nn8GIXnnVc3XC//mRoph7YMg2jTvQ4f+OXX+DslvvdtqWbKhzRaXnWPYKT3Ohz9gZWxWAFFdTiUqqdONd7rcHn2KTz8glUNrLndel7E0edfh09spo3NOobyG4LTIfJ13LVO++Rmt/OundexpZRdow2xA5nT2bXh6rxF39gaqoZXnsczue+W2kHfvKvUPmrorFl3NtLVwCC6FVRHj+4pdqqITs95Wful4QaRe+VDojsUJBS6bWc3XbpJ9xKj+Jx8wKQar6vPpkz5kMN0XtXfbn33/fIGsi+73c86Bt3MYB/fF53e7vWr1pvdTp33Xt2R9Hb3eMofaRJHvXJl0o+Ayfp2NVuTY9BPGrjr/giRd6gq94t4eOVJHdTV40fvveGN9a+TdW1uKu/0qkOdh9Mj726reurdjibVkeQ8seCWrZscqrWl05bgc6LU0bzHojrw+clOwedEiYhaGIMoEVEArM4TUVtjdZ6IqIUxiBIRBcAgSkQUAIMoEVEADKJERAEwiBIRBcAgSkQUAIMoEVEADKJERAEwiBIRBcAgSkS0acD/B0eW520C6aTjAAAAAElFTkSuQmCC;" vertex="1" parent="wcw3lpg_Nm0PKdcRu7sU-32">
          <mxGeometry x="1539.24" y="110" width="101.51" height="125" as="geometry" />
        </mxCell>
        <mxCell id="wcw3lpg_Nm0PKdcRu7sU-37" value="" style="edgeStyle=orthogonalEdgeStyle;rounded=0;orthogonalLoop=1;jettySize=auto;html=1;" edge="1" parent="1" source="wcw3lpg_Nm0PKdcRu7sU-35" target="wcw3lpg_Nm0PKdcRu7sU-8">
          <mxGeometry relative="1" as="geometry" />
        </mxCell>
        <mxCell id="wcw3lpg_Nm0PKdcRu7sU-43" value="Блок по работе с файлами" style="swimlane;whiteSpace=wrap;html=1;" vertex="1" parent="1">
          <mxGeometry x="-750" y="430" width="1230" height="780" as="geometry" />
        </mxCell>
        <mxCell id="wcw3lpg_Nm0PKdcRu7sU-53" value="" style="edgeStyle=orthogonalEdgeStyle;rounded=0;orthogonalLoop=1;jettySize=auto;html=1;" edge="1" parent="wcw3lpg_Nm0PKdcRu7sU-43" source="wcw3lpg_Nm0PKdcRu7sU-45" target="wcw3lpg_Nm0PKdcRu7sU-52">
          <mxGeometry relative="1" as="geometry" />
        </mxCell>
        <mxCell id="wcw3lpg_Nm0PKdcRu7sU-45" value="Init" style="ellipse;whiteSpace=wrap;html=1;" vertex="1" parent="wcw3lpg_Nm0PKdcRu7sU-43">
          <mxGeometry x="70" y="290" width="120" height="80" as="geometry" />
        </mxCell>
        <mxCell id="wcw3lpg_Nm0PKdcRu7sU-57" value="" style="edgeStyle=orthogonalEdgeStyle;rounded=0;orthogonalLoop=1;jettySize=auto;html=1;dashed=1;" edge="1" parent="wcw3lpg_Nm0PKdcRu7sU-43" source="wcw3lpg_Nm0PKdcRu7sU-41" target="wcw3lpg_Nm0PKdcRu7sU-54">
          <mxGeometry relative="1" as="geometry" />
        </mxCell>
        <mxCell id="wcw3lpg_Nm0PKdcRu7sU-41" value="" style="shape=image;verticalLabelPosition=bottom;labelBackgroundColor=default;verticalAlign=top;aspect=fixed;imageAspect=0;image=data:image/png,iVBORw0KGgoAAAANSUhEUgAAAV4AAACGCAYAAACVMeLsAAAAAXNSR0IArs4c6QAAAARnQU1BAACxjwv8YQUAAAAJcEhZcwAADsMAAA7DAcdvqGQAACRZSURBVHhe7Z0LfBRFuvafJORCIEC4hTsEEJWLIKAgd4QDfK7ihWVZl0WWdWU9PxXlqGfPekFl/fbb43IWxKOu7qfoouvRqAh4FwRFQG4iJEaNQLiGgAkJGy5JyOXU09MVapqZycxkMmSG959fpburq6uru6effuvt6qqYkvLyagiCIAhhI9aeCoIgCGFChFcQBCHMiPAKgiCEmZhqhT0vCIIghAGxeAVBEMKMCK8gCEKYEeEVBEEIMyK8giAIYUaEVxAEIcyI8AqCIIQZEV5BEIQwI8IrCIIQZkR4BUEQwowIryAIQpgR4RUEQQgzIryCIAhhRoRXEAQhzIjwCoIghBkRXkEQhDAjwisIghBmRHgFQRDCjAivIAhCmBHhFQRBCDMhG3OtsrLSnhMEQTh/xMXF2XMNF7F4BUEQwowIryAIQpgR4RUEQQgzIryCIAhhRl6uCUHBH82L3+/H6wcPoLCsDJUqplFlHJLj4uD8RcXE2DOK2NgYxKkIRp2pqsbpikpUxFXiprTOuLd/dzRu1PBfjARLWVUVvigowCdHjmJLURHyS0tRXlWJhNg4tElMxIAWLTAhrS1GtW6Npo0a2VsJgRIJL9dEeIWgePG7/Xh89zeIbVQNpaVIqUrCUwMHoFOTJEuUvVGuxOdURZUS52o0iY9DWWUV7t2Shd1VxRjRuB0WDu2L1IQEO3VwbCsqxd1fb8CI1pepX7iK8FQgFR+j4itU2Fi4E28OG412ifVzw3L3K/Ly8ELuXuw6eQIt4uNxSUozdElORnM1X1JRgUOnTuHbEyUoUA+xjo2TMatrV/y0U0clylIpDRQRXiFquebTjfj+TBHiqqlgQI+EFvhg7FX2Wu8s2bUPL+zLRXVVDP7QrzeubtcGd32RiQ9PH1A/xhgMiG+N54b3D1p8+WMeueZT10KA/GPoKHRpHFpLM+/0aczLzsb6wgIMatESM5WgDmmZimZKcJ2cVAK8rbgYr+zbj3UFP6K/soAf79MXPZs2sVMI/nDBCW/hyrm45vENdkwtXPUg3l80Ga3sRSGyGPrRWhzDaZfSKeHtntAM744ehkY0f32w8NtdePbAD4AS3j/36Y/rO7fHHRt34JOSPBWnEigD74qENnh+xAA0CaK6Xal+zqPXrrHmPx45BjGmn8MNWuoxWF+ghPGbL+044NWho9G1cWhu3JwTJ/Dbr75CUXk5/tCnD65r395eUzufHv0RD2d/gzOqRvDMwMsxODXVXiPUxgXbjrfDyKmYdessL2Ei+tnphMilsiq457Xl3eWmKlD4LOLUgs5Oie+m0h/xn1/vsiOCp3GjWDSOi/ESYpGoHhIp8e436fQvP8Oh0rrX3g6XlmK2Et2qqkq8PnRoQKJLrm7bBv9z5ZVom5RoifeuEyftNUI0UC/C2230LNw++3YvYSous9MJkYtTdymoXo3LWqCv1YRG89tHDtpLweNPXY4+Zyd/+f5YzXMgGGh1P5j1DY4rS/dvg6/AxU2b2msCo3NyMp4fONCy/P89cydKxZ0XNYjnXgiKKoeqBSu63qjFYxEyBrVIwk/aX24vudh0LBNF5ecKsr+8dzgfGwsLLPdCryBFV9OhcWP8qW8/fFvyT7y6/4AdK0Q6DUp4C7MysOCun2P8kCEYMmQkrpk9D69uLrTXulPyw0dY/Duddjx+/rvF+GhPub3WZsditY7rvYR7VsDK/egKzOXyExvgyEFRgjUPq3U3LkEODQ5vef53Zk0+c1c6y1yIFfe40i3eYUdFGf6+KThjWJi+3BVh0l0kxcXg95ek4rMxY7FuzNUY1aa/FX+yMjibl03Gnt2zB/1bpOLa9u0ti/qD/CPIOHjQemn28r59+LuaegpLjfCGSp9x8BAKldU8rFVL/EvbNPz/vbkoPnPG3lM9kr0FjV7fgrOeb5KLP76+SsW7wtRNRXa8jbWNXr8Orx2x4wWPNBjhzVs5FzfcugAfYjB++4en8fSC+zEpcQMW33UDfvNSjpsgMu01v5yHjEO9MItp/zAL3fa+inm33opXf7ATGfS6eT6efkqlqwnzMf1SeyVpOxaTxqnpWxuw1am8xRvw0cfK8rh2OHoZ7sBz8rymm73mXMo3LsGfN9oLUQpFlO1za+Oyls0wIS0NE9qloUdz+209W0acZ6y2xaoY8boo/j5JHKwvKMS+UydwW7rr95B76hQe/uZ7LMzZizJ1nHHqlnNlHYNqFcrVeaM4s03zGbWCu6fve0nuQfzx2xys/fFHJsat6ek4fqYcq48etZbrDyWwmcfteU0RXlu+G9u7DULFtPEq9MDle7fhj9n26iNZmJpZiqVjuE6FfkmYsdYp3IJJwxDeAxmYx9YQIx/E3xfdh6kTBmPwyMmYs2gZFk4BMp9Vlq8W1GJl6aq05Vc9iNdfVgLKtBOm409LFmIqcrB4yUfKRnWndQ+V5kr30K2FvdIiBcOUxQNkYMM2d+Ut2bwGa9ABk0f1smNcnJNn9xR7jYPyTLy4KAMdu6XbEdHJofKT+Gv2XnyUdwSfHD6KVV4C26VO69AF0zp2RkFpGd7MzcNXRc4bPXj8EX9faC9qYpB3xgdH8tEsPgFDW7a0lk+cqcD0Ll1wb6/u+O6fJbiuQzvM7NYFt3TtjJkq/Ca9qwrdlLB2xa+7udrufltyEj/r3AH3X3wRTlW4StS3WTN0apyMj5T1XJ98uWo30Kq5vWSTvQszSpvj3iG6ZUW6Kmsi5uXlWktfZuZjWatOuDnNWgR698TSpOP4VAuzgy9XnbWctfXMuKmbcpXAe7aarW1WufZnQbGPYMu6QQhvzup/IBO9MOfOyehgvmSOU4L4szlqTS5eXKOq8orCjR8qIUzA9FmOtMnDMHFKClrt/x6ZTuX1g5SrJmKimmas22pY1yXYwKZJfX+BiRfZUQGS+86TWFI+HffdOcyOiUKUBXcmthJ/2f8t5uzYjju//gp3eAm3f7UNv9m21Qqcf+D7nSiIPWnlURfoc849WYGNhaV2THDoG2K9yifnxBnrY49A2HKsCH1Smrk1hauursKUTh0wkW2Wt2epvI/Za9zZVlSM2dt2YnBqc8xS4hwTU13jS+cDZWBqKnb+M3QPqXPI3oIR6IEHOtjLNvkl6pwmNYZZp2uXkqRuxgJl1Rap8w7cmGJaMqlIV5UZLcyeuLHGeh6PDFvQl+3djdyLTKs5el0WDUB4C5GblaemVyC9syvGjW6XqDXKcMzOtfyxebvZTlhZrB5a5/S7cxXef2UOhnkxPn2SMhyTlHXt5m4o3oA1q1W+1wxXNm8QFK/Bkme/x8Q7Z2FwMzsuGtFGpppWx1YHFGqaNDAPHQKE1fRR6gE5Y/PnuH/n2Xbkwbygo8+X/FfOZvx6yzpMWLcWhWX+tyb4sawMXZok20sutCt7fNs2eKT3RXgp9wBecbwoe+PAITy7ex9+f2lP3NDB9ePmdmY75K7JySipNx9vEV77oRRL+3mpmTVpgnb2rEWrxrjRniWXp7i3M+6WkmjPBUArJfq97XnLai7D23sdvuQooUFYvGUVrmk9fbHpJwkYPGaq+n/W3VC4jtb1MEweGYzslmPrS4vxUfc5mDUmmCdBZMCvzUYkt8Mv2qXjl+3TMaN996DDNamd0KhK/QgCFMzlh0/Zc+6s+fE01hw9jbVqWltgus/V9P3DX9tbA9d1GGhNr9/wmTX1h7KqSo9fpWl6NG2K5wf3V/s6hv/I/Mb6su33md/ivfyjeG7QZbg0xftvJUVZ0ebLyVCSvykLb7fre9ZdcB7wZDUvKym2lxWFu8+6KNbmY5kdHYk0COFNtGtlARgW9ULCgDG4XhkrLndDIdavVtbTuEkY29ZOEAg/vIoFryVi1tzrkX5eHyj1R7WyVptXNcaiIX3xaP9LMO+yS/DwZRcHHRZd2Q/dE1OgbGF7D/6xKGeTPefOw1kb8fA3G/GQmtYWmO4BNdUsGz4Gv7vY7UWAXyTGxll+XV8sP3TY6kyobWIS/n3nt2jfOBFtEhLwurJ6fVGi8m1UH303HMnCXfmpeKrGh+uBkyeRb89aFJ52E77tJe6W6d6SMnsuhCiLWLsnKsa0c7O4I40GILytkN6XFuUaZO5xxbix9ztsUZOE3unW58UdutJXuhV7D3OlO3nv3IHx0+YiY68dESgJgzH5l6osdDfkbcUGdR9OHDcMgdureVjx9F9xaMoc/Lpv3Tp8aejEq6pwYDLpm9o+OQ4Xz+0pxov7An9ZwD4mDp5yt8D1g+RUZSXmZ+dgQ2ERHr60F/6tVw88PbAf5vTsjnm9e+H7kpP43c5sFJY5m9a4OFR6OqjPqGsjX1Xnl5Xmo5O2Jq1WDccxwn55Zflz1b7N28ry+7ZqjaGeLFPb7zu/Q2AvlD3l4W4FRw8NwuLtNe4X6KfE6sXnViDPtHorS7DhjcXIQQf8eqTrQ+NWI5UFquzRjKXOtLlYv3IrSsovQ3+Hr7hja/+ls9ewyWpvy7Hhla3qUTAVk0YGLrsF7zyJP28chvt/NQzRLbv0CjQMoQw1Hx7+Gi/u4SM/MAa1aIFvSv5Z85UZJTdZieVuZTHO/ToL3Zo0xhOX9UarRNcvg72TEbonHutzMa5qlYr7lfh+VVzsJrJ8ybZdxfHFXahpN2TkWUvSerHFVg3N8cW0kS7Xg91K4b9q2u7m4sW9ZTXCOrSfsj4LD559EWa3grha+2v9xUMeZ1tSRBcNQnjReSrmP6Qs2XX/F7fcswAZH2/F1nUrsPieGzH3LSWGtxrtbltMxJyatIuxYp1K+/GrmDfzFizISsf0R6ejV0kutm7egIyVfNGSgKYpAcjfpcMxuYMS9rdWIOFnYzA4COXMycrExffOweRgXBQRBmXXe0c0gRPCrM4Lk9ql4Vh5mSWcJDE2FquO/oiHsr7DjR3b4acd21tdP/IlnDMwfkJaG/y2R1cs/mEv/r73ABrZJ4Qd7uQq8WYb6PCTipuvd7XddflYXW16a16EpfVFhtUKQVvMbNN7hbKGA6RVEnKDysP1cUdNu+IIoGEIr6LDdQvxzjNzMAxb8dzDd+CO+xZjg1qa89Q7WDq7n5vlyLTvv/IgJqkUi+9TaR9egpyOSrxf+zvm9Fcp963EHXfNxYKVBeg3+xlV3bc39IteGHMz2+wmYOr4wcFZrB2m4+4borvdrqY6ripKbd7gYCfm7ZKSrb53ScfGSWiTEKdCPL4oLMAj2d/iP7/PwRMeAuO5fuXhfKQlJSiLNxZ9m7va1L68d79lAbOj9Hqn9xXK8nWKXjoeMKxi3QSsBmsbvd62lL0wdLyH7S1aG/twz4PbVIw37imKfU0aV9lqHgQRgPTH64Gcl27EjOWTsfTNWW5fqwlnufy9T3EivhRpaIIPxg5HSnxofI83fvYlssqOIbkiATuuGW/H+maEl/53M64ag/jYaqu3ydqwLHf190h2IXYUudqMm3wx9mp7rnZeO3AA87Oz8deBgzC6TWs7Nnh2HD+On2/6Ev/avSfm9Oxhx0YX/ECCbYjdxDVIZHj3SOTUVny4PA/9fjlRRNcHNV06hphgch2Y6rlK0z4pFq2VtdnWj0CrtHVCbEhGoZjSsaNlqT6QlYVDp0/bscHBvnz/IzMLnRs3wayuXexYIdIR4bXJW7cEf31+MebNnotXiydi+rigPpm4YKhpfFB1/h0N8/u0wsoRY/H+yLF4a9hoOzY4dN84zwwcgfdGjMF7Ks93hgeWJz+L/lPfvlabW/alG6z4UnTv2L4d+0+dxJ8v66dqFd7bB0c657gSohwRXpvE8ly8+cKrWHN8MOY88xDGRmcrlpChLd4YJbyhbE6mCSTPFvFxSI2PQbNGMUgzLFZ2QEM3hL+BLgn9iS4t3+bxsWiu8qTVHCj8UIIjR7BD9Js3b8YXBZ572fMGX85N37IFXx8/jqcGXI7+tq9XiA7ExysExcRP12NXRTHaVzTHJxOuCtnowDd99iUyy44hqSIBmX76eE34me2otcGNuWbyxlWj0CGp7n5rtkb4fWYWskuOY2JaO8zo0hX9WzSvaa1gQtHPLinBP/YfwLJDB9EluQn+X7++GNhCrIBAkMEuhajlLzv34L8PfYfk6gS8PGQwejZrUvOCSlObG1j/8viBAWeLSs9gxpdbcbCqBDc072qNOBwM/ASYX6MFy4yug3BbevOg+nrwBNv0vrJ/P5bs22e5Dzi6MC1YCmsz9cAqqai0Po7YqaxctvdNjmtkDYo5s2sXn58fC54R4RWiFnb4vTBzN97KP4C4iji0jEmyRFdrlT/v3sxfHmf/WVWOE3FlGN+yHR4YcBFS7Y8MgqGsshrjPncNehkogbRgCASK7uqjP+KTI0eRqSzgYrVcoc5jo5hYq1VIn2bNML5tmtWZTtukJHsrIVBEeAWhgbF3r6t9bbdu3juuFyIbaU4mCA0Iim5sbKwVtAALwvlAhFe4INCim56ebgURX+F8ckG5GkJ0qEKEoUW3e/fudoyLPXv2oKqqStwOUYa/roZQ9jESKFEpvCKwgsab6GpEfKOPuvp4wyHIIRPemH98ZM+dB0RoBU8UHMEjfXvi0XHD7QjPPLp6PR7L2gW0Ph89fwmhpuoXHD0xdNSHEEe0xeut6CE6JCGCoaVLy8ebpeuEli9/w2L5Rj71ZfGGtPvTSBVeZ7FrWxYuHCi6jRo18lt0NRTfiooKEd8Ipy7C6xTX2paDJSKF15vImvHe0gjRzb59+yzR7dEjuO4Td+/ebYlv165d7Rgh0ghEeH0Jq56vD/GNOOH1JK61TTXOZSG6oOjGx8ejZ8+edkxw7Nq1C2fOnBHxjVD8FV5vglrblJjzwRBRwmsWVc9zque/+uort2WNc1mIPg4fPowuXbpgyJAhdkzd2LRpE/bv34/27dvbMUKkwFYsgeAUUS4zDBo0yG1Zz2vM+UCJGOE1i6nnOTUDhXf4cN9vsAVBEGpj48aNlvBq0dWBmIJrzgdCxH655hRdBkEQhFBRnxoTMot327Zt9lzoMYvYv3//c04GAxvB0+IdNWqUnVIQBCE4vvjiC8vipdvCtHjNoDHn/SWkwqt9ImVlZdZLjlDAlxwJCa7uAbdu3YoBAwa4ia2eMmzfvh2jR9dt6BdBEIR169Zh4MCBlvBq8TVFmDingRByVwMFMFSiS5gX89Ro0TWDFl4znSAIQrCYmuJJc+pKSIW3vLzcngs9zrz1CTBPjAivIAihwKkrej5UhFR42XA91OiDNdvmmSeBU54YfXIEQRDqiidd4dTUGDM+UCKuVYPzwHXQJ0kQBKGumKKrg8a5HAwR2ZzMPBmu8A2e+5cHsaGobidDEASBnKsxZ0MoiEjh1bifjNCdFEEQLmxMbdEhlIRNeC/64H2/gr+YJ8I6Ma4Za1kQBKEueBJcc76uRLSPl9TXiREE4cKFWqL1xJfmBEuDFl5vB+g8Ia7JFvzPo/dYy4IgCKHgXK1xTZ14i/dGRPt4TaqrB2PaIwvtJUEQhOChkAYqpoEQNcIrCIIQKUS88Ib6qcSOdgYPHnxO+NWvfoXi4mI7lSAIFwr1YfmKxeuBSZMmWb0TsVMeHW666Sbcc889Ir6CINQZEV4/YXeTzZs3R1FRkbW8YsUKr9bwU089VbOO8xqmYVq9juGhhx5CaWmpte7uu+/GqlWrcN1117mtY+A896nRedFCz83NxcyZM62pjmf6hQsXuu3fzMdXWcy05npv2zGwzNw/92fuk+XT65x4y8s8TrMG4szHPM86mMfgzN8sF/PR59vTeuKs/XBZ4+v86XVmeh6TXs996+tFONXX3LkfITqJEuG9FL/5YD6GtrAX6xneRG+//bZ10zqtYa47cuSIZTEzcN4Ukk6dOtVsN2/ePDvWxfHjx/HKK69g6dKl1vq0tDQ8/vjj1rorr7wSmzdvrhEVjojLvHr37m0taz7//HOre05uxy4y2V0ny0U4PE5JSUlNn8V8kGRkZFj7YlnJxx9/bO2D23P/XKfL+re//c168Lz00ks1cRQQzq9cuRLp6elWHhrmw/NUG88//3zNfpifhgL0yCOP1JTxsccew5w5c9zEV++fgfloeMy8JkzPdZ6uBc/h2rVr3a6VFl/ue/HixTXXimV48skn3fbt61r6C8vJ47rtttu87keIPsTi9ROKYUpKCpKTky0x4Q3dooVL6SdMmGDdhBS9yZMnW6KVlJRkrQsUM99rr70WBw4csASzX79+NfNk/fr1lhib+zl9+jSys7Ot7Yge3pwCQzIzM62BIHX+3mCePIa77rrLjoG1/5YtW9pL/kERZ5kD3Y5o0aYgaUFn/6g81++++6617Av9AOI2hMd06623YvXq1TUPIpaLcVzHwAcoH1QUYOc1ZhmmTJni174DQV8b/TDkfmj1hno/QsMibML7w/+5xq/QEPjwww8xYsSImqofA2/I++67D6dOnbKc7ampqXZq101N69CElhPzYDzFmNBabNq0qZXeE7RAzXw5z06WuR0HXezcubM1T1E6efKkJYaaY8eO4ZZbbrGESQsVRYPic/DgQWuZo/CaY9LRwp46dap1fCwr4fYmujrPdNyHv1DcaKGzOh8MPEaWmw80E39H/uWxvvzyy27XkMfAY9bw/DjPN68thZf7nj17ttv28+fPt1PWfi2Jub25LeG5ZHmYhsdo5sNjZBl4DoToRCxeD3h6ucbqdW2WogmtRWf1ljdrkyZNfN6s3uA2tHBp6Wqr1xwBl9Ybq9qsHps+QgotBTA/P98qi7aCielqYOBDgu4EogWX2/A4mC4Qy5UWJ8trClu4Md0QOgRyHU0XiA66FuDPtTS3d7oieC55ToN1UQiRjQhvgJhWqIaWCQXKiRZLWl+EVpQvi43WmJkv503rmhburl27sGbNGsu367zpmY7VZVaTtbVEoaVfl75MCqsv0aFI8zgYuB8KQzBuE25Psa/L+HfcJy1Bba1r9LmsDX+sRlrlzvPNa8vz5GnfJrVdS3/hNeX1McvJY2QZAj3vQuQgwhsgFC6KGy1L7SukL5M3IoWGlqJ+QcObiQLEG5Rp6V803QOeMEWTfj5andp1QAuXfuZly5Z5zYdlYFno6yUsL/26CxYsqHXoe1rTvOETExPdHgIsO18A+etqoKuG5yiQGoITig7zoAWuXzTRkue51j5sX+jzwPQa1jzMVg88Hu1LZRzPPffJc+DcN9dzW+bh77X0B31NWUMg3B8tZH+OUYhcQiq8FRUV9lzoqc+8A4U+W96Y48ePt4SRN+yiRYssoeHLIFpajNd+0yFDhlhv2Cls2qfKQL8fRYpWJQcIJbzptX+Z+TA/DcWIFjRHWjbdDCaeHgwU3L59+7q5GYjp42WgH3vGjBlWHnyxpH2UjONyq1atrBd0tUFXjbO1RTDwxRgFX5eRLRx4XPpB5AseA9NTPPXx8SFI8dSWJKv79JVzndMfz33z3Ot9cz3PPQXd32vpDywL3x3wN8R8mCf94v4coxDBqKpsSFBPaWtaWVkZsqDEtiZwWd041adPn65WN0u1qp5VK2GpLigoqFYCVX3o0KFqZb1YZWhoKMuxWglX9Z49e+yYsyxfvrz6wQcfrM7Pz6+eOXNmtRI/e41nmJ4hEJinEix7SSC8FrfccovHa+ILf64lf6NCZPP+++9b9yT1hdecenPq1KlqVfOpLi8vr9GkqqqqmhAIIXc1cAhkDskeKpgX8xRc1V26EAKt4tI6q83NIAhC+Iih+trzdYLV1FBjFk3PU3T0eEjqiWO5IPR0+/bt+MlPfmKlizToFtAN/nXbUxP6N1n151twXR2uDfoLmR+biJltcgXXuXn00UetINV6wckHH3xg3YccwJcD7eopjUAd+CKWQWPO10bIhJfiF2qcwsugRTfahFcQhIZDfQuv1OEFQRDCjAivIAhCmBHhFQRBCDMivIIgCGFGhFcQBCHMiPAKgiCEGRFewSNsV+wcReFCxtnPgyDUBWnHKwiC4EDa8YYZ07KhtceOS3R/uvzayRwby58xwGg10npkOvYPa6Y3MXs14/647XvvvXfONiyTmadZHh28lZdBH5sni9bM21zvTKuXnfvzhD4WMzj3aa7T+yfcVp8Xc1uWn8dhbmeu19vqODNP4iw/868tT+bnzeL1dIzmPp156+uscV4n5qcxj10Hnbc+Nxq9H27vPEbnb1U4v4RMeBu9virkId4ICW+sRqIKjTNWo0nGp0h5cw1avLUGrZetRdo7n6Hj8s9x7efb7dLUHf6I2WMUO7PmJ7r80fLzW/aWxW772Dk4ewl74YUX3G5Gs/Nt9mfLzsYDgTcMuxzktuPGjbNGnTB7BGO/C+x9THe5qDvU1vvk/gnLxLLxc2G9zhyTLFiYL7uY5MgWzJNjjvE8mWLqxDwnurN2Hie3McdUY16EwyxpOIoEu9XkeqZjevZXwV7AdH5mx/W0Uig8LJMeD43nS4+Jp8vPOK7TndWz+0hfedaGmd687twf82XPZ+b+tGCyTPxN6d+Vp/Pp7TfF/jf4qT7zIL7G1FvpYUw84fwRMuGtmDY+5OGMEcp/Ng5lKpyeOg4np16Nkp+ORfGUsSi4cQyO3DAah64fhXdHXW6Xpu7k5eVZQ7vo7g35o+WPV9+EuovGUMMxuNh/Lven98HuDHkD8wZjB+WBdJIT6s5xeHNzHDXdX6zuhpJiwTIGAs+lKQjMi4JuQkHTwxExHef58PEGzxHLwoekfjhxGz0mHkVb951MeI4pjP72fxEoen/sWpNwfxznjWLIhznLxLLp3xnLzFEy/BH7YMfUE84/4mrwAPtVfeKJJ3D77bdbN4oJb2xdhXOOo1UbepwtXf0zq5SE1h1Fw+yDlyKrRyhgx+Tsh9dbX7wmWrR9iVSgsJMelp++LHNIHz1agzfhNcc+Yx6mKBKzqs20JrQUzWtQ28gSPEd8F2CWj9szH8JysrzO61pfeNofy6aPvy6jTTAPX2PqCQ0XEV4P0Mqi+OnqKdGCy87PdTU10PGyTLeAtyolxZIWmBYWPUIBrRpaNJ6G/PEGrTjeiKbo1QVWwYNxVzirynr4ci24FHNd1dauEsE/eH1ZI/I0pp7QcBHh9UKfPn1qqqeEwsdl+uhCUS11Wisa59A9FFmKMX2QgfbFy4cF/al8QFDUghFNJ7yx6TukZakJxIrkg0SPlswHifZBe6taO63b2ixEWpO0yM3ycXvmQ1hOltebxRxqPO2PZdMPdH/GhvNFIGPqCQ0HEV4v8MbWvkt9k5g3EC3VQF0NJsyTL0Z4Y5rwxnH6TCm2dBmcOHHCLzeDRvsPtY80FLB89CPqscp4HCwry+yP8GofsXYFmKJD14vT1UC3j34I0UKmSPsaj0yfP3PoI3NMPNYYeE70A5U4WweEEr0//cKQx8qXnqyB0GftfNByvW6Z4A/6evgzpp7QcBDh9YF509Aio4VqjrPGKvOOHTuQk5NjuSEoGr5+/KaPl/kwP0+Wnr4Z9UCNFFu2oKDlq8WNNybzovXoSYwpUhxvrDZB1OOqaVdEVlaWdRP7GjfMHFdOu158vQwyfbws85QpU2pelBE9xhytWVrn5pt6nk+9Pbf1Zzwy1khYJk9j4vFcmGOcMfBYTL96KOH+KKT6fOmx3XTH9CwTW2owmOv5G/DnN0W43tOYekLDRT6giABoBVE4pk2bVqvo1BUKunNQyPNFQypLQ4a1L9aIZJSR0CEfUAhW9ZwE4mYQLhwouuJmiCxEeBs49D2y+RWtXbH6BBPdKoT4cvUIDQ9xNQiCIDgQV4MgCEKUIcIrCIIQZkR4BUEQwowIryAIQpgR4RUEQQgzIryCIAhhJuKFN5AmHIIgCIFSHxojFq8gCEKYiRrhdTZmFgRBCJb61pMGLbzeDlzHO6eCIAihxF+tCVSDIs7idR6geUICPXhBEARPmHri1JVQ6EyD7quB6OLpvhoYzL4azMC+Gjg11+v0eluNOS8IQvTAfhS8YYqmFlfd74LZFwPn2VcDp2bQ6/W2DDqvQIho4dXiagbdaQ6DmU5vq/Ny4ilOEITIgwKp8SSIplgyaDHVgsugO8Uxg5lOb2vmFQgRKbwM3oRXB71OpzW3NXEuC4IQ2VAknTiF0RROLaRaXE2xNYMn0WXQ+QVCRAmvnmrR5bxTaM15nUZPzTwEQYhOKJK+MMWSQYupFl1TfM15nUan13mYU39p8MJLTMHUgWLqDE7RZTC30UEQhOiFIlkbFEpn0KJqCq6OM4O5jc4rUCJWeBm0sJpCawYzDYPOwxPe4gVBiCxM4fUmiqZoMmhBdYosg2nt6vQ66DwCJeKEV08ZTHF1iq2eN4PeVhCE6MVfi1dPzaDF1pw3l3U6va05DYSIEl7CeU/BKbzO9XpbQRCiG3+El5jCaQan8DrX66Ax5/0lIoSXmMXkvLfgr+g6lwVBiA58Ca9TJPWyFlMdfAkug8ac9x/gfwG6maTHgjeM/gAAAABJRU5ErkJggg==;" vertex="1" parent="wcw3lpg_Nm0PKdcRu7sU-43">
          <mxGeometry x="590" y="54.620000000000005" width="368.28" height="141" as="geometry" />
        </mxCell>
        <mxCell id="wcw3lpg_Nm0PKdcRu7sU-56" value="" style="edgeStyle=orthogonalEdgeStyle;rounded=0;orthogonalLoop=1;jettySize=auto;html=1;dashed=1;" edge="1" parent="wcw3lpg_Nm0PKdcRu7sU-43" source="wcw3lpg_Nm0PKdcRu7sU-40" target="wcw3lpg_Nm0PKdcRu7sU-54">
          <mxGeometry relative="1" as="geometry" />
        </mxCell>
        <mxCell id="wcw3lpg_Nm0PKdcRu7sU-40" value="" style="shape=image;verticalLabelPosition=bottom;labelBackgroundColor=default;verticalAlign=top;aspect=fixed;imageAspect=0;image=data:image/png,iVBORw0KGgoAAAANSUhEUgAAAUgAAACNCAYAAADVRuOAAAAAAXNSR0IArs4c6QAAAARnQU1BAACxjwv8YQUAAAAJcEhZcwAADsMAAA7DAcdvqGQAAC2hSURBVHhe7Z0JfBRF2safHASIhCsQMGhIAEFOOaJAAgiRJeAqyoe4cvpxCLouAVZ3dUWiG9TPa+VwvTHIJSpeHCJxMbBIokgQCBDknHDFAAmH4cpB5qvqrp5U90xP5kgmIbz//CrTdXR1V0/P029Vd9frZ2WAIAiCsMNffBIEQRAGSCAJgiBMIIEkCIIwgQSSIAjCBBJIgiAIE0ggCYIgTCCBJAiCMIEEkiAIwgQSSIIgCBNIIAmCIExw+1XDq1eviiWCIIiqIyAgQCxVHmRBEgRBmEACSRAEYQIJJEEQhAkkkARBECbQTRrCKfzkWH7wBFbmnMD5kmJcZadLQGkA6vr7wXjm+PmJBYYfiwSwwJNKWLkrV0tR4n8Vf2wajikdIlAnsPIH2KuKwtJSbM7Lw39OnsLWs2eRe+UKikqvIsg/AE1r10bXhg0xqFkY+jVpgnqBgWItwl18cZOGBJJwChfHeUf2wT/ACqaJqGetgxc6dUTz4Nrs7BGFHFBYcpUJBRNYdnrVCfBDcakV/9zxK45Yf8cddZvhn93boUGtWqK0Z/x05grG/bwBd4X1UPfF0ZnM0v1YOhfpjae3YWP/QQivUzk/LL75VTk5+NCSjYMXL6Aha9+tIfURERystLWgpAQnLl3C3gsFyCssRIu6wRjfsiUeuKkFE0/qzLkLCSRR5YzenIHDJecRYOVKA0QE1sfHfaJFrjmfWI5j+fGjsJb64akObRHbNBQzf96LjVdy2Ennh461QvHq7R08Fkl+0rZb960acZOUfn9AVHDFWm45ly8jMSsLafl56NGwMR5mwtezcSPUd9C+i0wot507h6VHjuKHvNO4jVmUL3TshDb1bhAlCFeotgKZv3oG7n4hXaSUQ++ZWDt3KEJFlLi2+OPGdJzHFVWRmEDeHFgPS2PvYN1nNd+M9/YfxpLfsgEmkLPadUB8eDM8sy0Lmy7ksjRWgBlMtzGRfO2Ojgj2oJtZwk7bDinrlOXtA+OVLr2jXbKyP97V33D6MhK2/1ekAuuYSLaqIJHcf+ECpvzyC84WFWF2x46498YbRU75pJ46jVlZe1B8tRRvd++G6EaNRA5RHtX+OcjwviMwfuJ4kxCPzqIcce3i3uWzDD9+avF1WfD3U08zqz/vcyuLikhuL8zHW3uYiHpJcKA/gpli13UQggP8Udvfj1ly+h/T4E3/wdFLJSLmOb9duYLJTBxLS6/i01693BJHTlxYU3xyxx0Iq1NbEdmDFy6KHKI64JVARt45Ho9OftQkjEAXUY64dik1CKRqp3mmmrxrLcPHNNfm/SZinuOKiF9xMDSUlJXvYUtU+A2rmbv34DyzHD+Ivh3t6tUTOe5xc3Aw3u/eHTcwS/rvuzId7itRNXglkETNp9SgPvKd6orAVydgTOO6eOCmO0RMZVPeL8gv9FyMvvktFz/m5ynd6rYeiqNGeN26eLlTZ+wt+B3Ljh4TqURVUyUCmb97BV6f+hAG9uyJnj374u7JiVj2c77I1VNwIAXzn9LKDsRDT81HyuEikSvYOZ/l8XyTMH0VlNpPrcIMHn81HYYaGAXYMIvlDVuI/fw3Y1bnv3fZ6pmx2rjP+Vg1XS03f6dIqmG42uUusfKBRpWrpWXLRipYb03hd9Jf6hSKrPjB+DV+CAY1U280FVz1zIbkj/K8c/gwbmvYCPewbnURi3+bexIrjh9Xbr4sOnIEi9mno7BECp+x8iuOn0A+s0JjQhvjD2HNsCDbgnPFxWJLlUjWVgR+uhU/iaiKBS99up6lq2HElrMiXaCso+X/gOUnRXoNxecCmbN6Bu6f+DrWIRpTZr+Ft17/GwbXTsf8qfdj0kf7dcLFy949JhErTrTFeF529nhEZi9D4sSJWHZAFJJoOzIJb73JytlCEka3F5mcsAEYfBf7/CIdGUaFPJeOlO/YlfyeWLSVhqvs6rw7UuTYU/TjQrz2o4jUULhFyW96lEeHhiG4s2lT3BnWFC1DgtVEb/qzFUQg23feta8lmuCpQKfl5ePIpQt4JEo9HyyXLmHWnn2Ysz8bhVY/BLCflnox8WPN9mMCalVElD/uVMwy+Hb92b4stBzHS3v3Y+Pp07wwJkZF4XxxEb4/dUqJVx5MCHedF8saZ7F85SFsj+yBkj8NZKE1umVvw0tZIvvkbozYdQVL+vM8FjrXwdiNRoGtWfhWII+tQCK/+913JhbPfRIjBkUjuu9QJMz9CnOGA7veYZakJnznmOXIyhb1nolPFzGh42UHjcbLC+dgBPZj/sIUZvPpadKalblDHyIbikyFEMT0H8A+VyB9m14hC37egA0Ix9B+bUWKil2drUJEjoGiXUieuwItIqNEQs3kZMkVLN5/DBtzT2PTyTz8cMpxCAoIwNBmLTC0eTjOFhXjm2Mnsevc76IW7+FC5w1ax7qOh7+Ab0/mon6tIPRq3FiJXyguweiICDzRthV+/b0A94Y3x8ORERjX8mY8zMKkqJYsRDIBbIkJkeqzj3sLLuLBm8Pxt3a34FKJuked6tfHTXWDkcKs0crkp/WHgNAGIibIOoixVxrgiZ7anfQotq+1kZhjUWI/7crFV6E3YWQzJcqugm2wpM55pGoCauCn9WWWqGaN8rQRWyxMiB1boco669XtKXBRrkJL1acCuf/7j7ELbZHwl6EIl28qBjDhejCB5ViQvIF1YRn5P65jghWE0eMNZYNjED88BKFH92GXUSFdIKR3POLZ54ofMiRrtQDpGzews3MU4m8RSW5i+XoeFhaNxpN/iREpNRBmERX7leD9EwcwK2s3Zu7ZhWd2Ow5PZe7EkyLw5f87mIWzAZe9tiL5jZEDF4rx39OsLi/QTvwNpy4jq6AIF0vMhwEcsfXMWXQMqa/cWNGwWksx/KZwxDdviqnbdyMt/4zI0bPt7DlM3paJ6EYNMJ6JqJ+f1TbWy63z7o0aIfN3o3VXgbBuch+0xjPhIi7ILbjCrhh1IfeRmofUYT/GPGYlnoXlIjAsRLY4GiHqBtgE1BHDbNboQKwQwvtV9iFYbpGt0OrbVfehQObDsjuHfd6OqJvVFB2Rt7IcZohlWZTxwpxD/DlLZgE6eGqi81/WY+3SBMSYGHNOCYnFYGat6rrZrHu94XtW792xzIb0gHMbsPCdfYj/y3hE1xdpNRHNaGOfVn+rW0F5nUWsawtuwrun7VPW4Y+b1+ORbRtFKu+qigU34GOSnOeyNuP+tO/RbX0K8opcF8nThYWIuEEMHQi0O/4Dw5riuQ634CPLMSw13HD57NgJvHPoCP7Rvg3uD1dPbr4ef45To2VwMAoqbQySdaMPsG5yZ5Oezg03oLlYVAiti2FikdMtRP+cZmRIbbHkBqFMnDuIZcUKLcSX2YaxzmqCTy3IQvHYWe3Kf77TCUGI7j+C/S/rZuf/wK3VGAzt64k8FiHjo/lIaZWA8f09UexrA/6Izh3BYRgWFoHhzSLwQDPWTfQw3NUwHIFWdhK4KWzLj10QS3rW5V5SQsrJ8gMv9x/2+eWJrWJtYIS4ux2TmqJ8ukJh6VWHb8lotK5XD+9H34ZNp8/g6V17lDdt/rFrL77JPYX3enRB+xDzcyWEWaXFTm5seUPult34snmnsm5yFeDICv2q4JyIM/IPlXXNN7JuvUiuCnwqkLVFb8SLJysqhKCu/XEfu/ir3ex8pH3PrNW7BmNAmCjgDgeW4fXltTF+xn2IqlLhrzyszPoLsdZFUrdb8QS74s9g1s/09q09Dv/seiturnUD620Lk8tFXti7WSzpSdjxXyVM3V5+4OUeZ58amwYMwoud3H/Pq7Z/gDLu6IyVJ35DcEAAwmrXwd8z9+LGurXRNCgInzIr0hkFrN7Ayng3++RuTM1thDdtY4wOuHgRuWJRIf+yTqC2F+gtveyCQrFUgTALU+uWl/RvrrNgfY0PBTIUUZ24hbYBuw6rKTqyfwW/pgd1iFJeSwxvycfyMpDt4DninK8fx8A/zcAKT1/CCIrG0DFsX3g3OycD6T8C8XfFwH37Lwer3noXJ4YnYEKnIJFWMwl0W86cE+hJv7gSeGP/Wbx5yP3xvkZM6I5fuiRiKtoRunT1KpKy9iM9/yxmtW+Lv7Ztjbe6d0ZCm1ZI7NAW+wou4qnMLOQXGh+lUDlx5bJubLOiyGXd2K+u5OImzTpT7mKfRx9xE0QZb2Tbln9WyrhkaBP0cmTpiXHJpHD3bkw6qkNvVVYffGpBtr1rFDozUUl+bxVyZCvyagHSP5uP/QjHhL7qC4qhfZlFx+y7FUuMZS1IW52BgqIuuM0wltmiiesS1zZmKNvaSqQvzWCSPQKD+7ovj3lfz8NrP8bgb/8bw7rsNRvHbzpf+3zNutpvHnBxXgGJHg0bYk/B77a3Xrg08nfKDzELbMaO3Yi8oS5e7dIBobXVM0OblIN3y//ZsR16hzbC35hI/nLunE4M+c2a7SyN3wCqaJr37FtmmSk3SPhd7AbY/Ke+apdb3JX+l+3ZRwuSswttAtirM7Pm8o+X3VARd73jtPFEV3FQR9md8+qFTwUSN49A0rPMMvzhRYyb/jpWfJeBjB9WYf70YZjxBROtidJziw3jkWArOx+rWHc447tlSHx4HF7fHYXRz49G2wILMn5Ox4rV/AQPQr0QN2SqfSyGhjMB/mIVgh7sj2gPFG7/7l1o90QChnrSNb/G4PIo30jwlgqsqkoY3LwZzhQVKgLHqc26xOtPncazu3/FsBbN8UCLG5UpzfjNHGPg6YOaNcWU1i0x/0A2Fmcfsz22xCe+sDCRHdSsKgYJG2Hkfeqzj+oYoPpMpO2GSrNOWKHcddYsUP5M5O3MunST0DqweFSH+hC77blMH+BbgWSE3zsHX7+dgBjWfX5v1uN4/Mn5SGexhDe/xpLJnXWWGC+7dulMDGYl5j/Jys5aiP0tmMguX4yE21jJI6vx+NQZeH11HjpPfpt1c8WKLtEW/UfyZx6DMGJgtGcWYPhoTLu/Zj/3qKHciRaPohBQJrttXidYmfuR06JuHTQNCmChFjbn5+G5rL14Zd9+vOog8HSev/q3XDSrE8QsSH90aqA+k7go+6hiUfIJdSudDrczS9IoTlF4RrIytUdzbCjraPnC8jSh10AH6ys0kbahr4OvUzJQ+k1xUbaVUffNJtg+4LqeD3L/R8MwduVQLPl8vO7tGaKMQd+n4WLgFTSxBmNZ7O2oV6tixsYm/LgN+4rOoW5JENbf1VekOqetyfyPqXcOQhC71Lty31exhNnf9J2nkHFmu5oosX/wELFUPsuPHUNSVhbe7d4DdzZtIlI9Z+f583hoy094rFUbJLRpLVJrFvxBcP4Mpk4EPYTcvlYmlzKwbmUOOo+JJ3F0An8drjLwZEyzV2g3saTnprr8TnEAmrsQmrEQVtsfLep4L/TDW7RQLL9ndu/GicvePbjO55J8etdu3Fz3BoxvGSFSiarmuhPInB8W4t335yNx8gwsOxeP0Xd59Gj4dYPtZnM16F3Pva0pfoyLx893xSuuEzQ82TVtjorlPeOU+rawsHlAWZ2uwN0kvNypk/LMIp/L0VOR5OL4+PbtOHrpIl7r0hkhHs6yfi1g14Wu5lx3Alm7yILPP1yGDeejkfD2sxhQPZ8uqDZo+uhXypYqwZp0R9waBwUglPWlG9by1/mV4W/Y8O63q4GLo/ZqH6+H19eIBW6Fugt/IJzPBM4nzh3588/YnOd4Vioz+E2e0Vu3YgfrXr/ZtRtuE2ORRPXguh6DJMpnZNpWZJf8jrCSevj0zugK80Y48cdf8GvRWdS+GoTUONfGIGX463m3pnjmk0ZmA7NEW1SAEy9+9/kfrIucVXAe8c2aY2xES9zWsIHDSTW4OGcVFODjo8fw1YnjiAi+Af/XuRO6N6SrtTuQ0y6iynl/71Ek/3YAda21MK97V0SFBKtWpXTWlGdY2s4wVo4vnissxtRtO/Fb6UUMqX8Tnu/eTs13E/7qIH87xlMebd0b09s09OhdbkfwZyKXHj2KhUeOKN1m7s2QW4RcAOuzC0tByVXlIfBMZjXy5yWDAwIV514Pt4xw+toi4RgSSKLK4XMYvv/rEXxzKgcBJax761dbUTlNU1zpdctnGF+8YC3GxYBi9GvYFFM7RqGheJjaE66w/nKX/6jOu9zFnTvW7sDF8ftTpxW/2LuYRXmOxUvYcQz080dIrUB0rF8fA8OaKZNahNWpI9Yi3IUEkrimyM5WnwmMjDSfVJggKgp6zIe4ZuDi6O/vrwRNKAniWocEkvAaTRyjoqKUQCJJ1BQqrIvtZjVEDeHIkSPg72i3atVKpKgcPnxYOSdatmwpUojriYp8b9+MajkGWVLivbN1omZgJo4aJJKEkYoUzmohkMZs/49dn3WZqMGcPonnurTB83GxIsExz6em4Z+ZB4GmVTE7DVHt8UIwraO4d6nKxVQgzXSTLEiCW458nNHMcjTCLcnS0lKyJAlTC9ITy7LKLEhjkhznY5Bm4knUfLg48hPTVXHU4CLJzx0SyesXowiWFy+PKhFIM3HUPh0JpDFO1Ey4OAYGBqJ1a8+m4jp06JDSAyGRvD5wJoDasjci6XOBlIVOWzZ+al1suSzHGCdqFlwca9WqhTZt2ogUzzh48CCKi4tJJGs4ZsJX3idHXnaGTwVSFjhtmX9qy9u2bVOWtcd85DJEzSY3NxcRERHo2bOnSPGOLVu24OjRo2jeXOeBmaiBOBJCHrp3766La8sa8rIZPhNIWeS0Zf4pBy6QvXv3VvIIgiA8JS0tTRFITRy1wJGFUV52hC8E0uGbNEZx5IEgCKIicKQvPFRH/OUdM+6wFvgjGmZv0BAEQbgD1xMeHGkNDxryclVhsyCNO6PtrNwYgiAIb9E0RRZJmeqkNboutrazcpAbQxAE4S2yrhj1hofqhNMxSLkBJJAEQVQERl3RlqsjikDKOyfvLP/kDdAaQRAE4S2apsi6IusOR06vSnRjkMYd1ILWGIIgCG/RNEXWGA1jvKqx62LLO20MBEEQ3nJ45VT84YMsnbbsfrsPYmNjERMTgzczRUFB/uoZyksKPMxY7Z5bXW9xOAbJkXdeCwRBEN7yxn+4lkjakvk2Hv14JN7dvBnp747Cx1PexC61KHBqFV54AZi5egu2rJ4JHll1SuT5ANObNBq2RkhpBEEQntK+Pfsnacqe9E+BUf3QiUe6jMQzvT/Gxp1KFvK3bER67wGIDWORsKGYMDYdG7b4zorUCaRRBLU4CSRBEBVF/I38v6Yt+cg+BPSKUBJtOmM5popgzpF0oE0UQpWYSvqRHLFU+Tgcg3T0SRAEUZHI2hJ5c2MRD0WUYTa9GCGenPCWMWLJN5iOQcrwHSehJAiiIuBKcq3oiUsCSRAEUZlkHzsjlvJhYV1uGblLrXS5fYhTgawMlc+cH43oaCnMN9zTZwdoZYKhTPQ0rPThnSvCCTvmIjphJfuWCMIz5qWyfyv+ikEz1yHf2ggtHXjviLpZHXV01KWOaRkuliofn1qQ+aumYcLBWUjJyECGElIw6+AESSS5OCYBz2r5WpiH+/hdLIIgrnmmxbF/I97Ady8ORmO22DHmQfz08ifYzTMzl+OlH0eh/208AoT27I+YpQvVR3tOrULykhgM6CnfsqlcfNvF7pWIjPn3SXekQnHfhDHA4lQoEnlqM1LbTETUJ5L1aGetZGKubF1KFigXYB6XrdS5O0SmQCljW19vmRqt2z8nPaaL2wLf5qmVmKZbX1i+dhaxirJdXVvUdtj2T6lP3o4Tq1m3bXE8bHUbLHB5f7RtGPZROybTVokadMdIC3PV70jGeAwMbVDb5qhHIOcbtye3m7eNxXdI9TqzXu2OoRrkc0C/LblNhvNKBO2YKHDrWcqzq9eLc8/hvmvfk/E4M5TtiHylXum4mLexmtL5Mbwz6hM81rcvYh9bjlHvTUVnkcUf7Zk5E3jx3p7oee+LzHh6FkN9aSyVlpZar169ai0pKbEWFRVZr1y5Yr106ZK1oKDAevbsWWteXp41NzfXunbtWtbjrmjyrF9P7WHtMW+nGt0+x9qjhxRn7JzH4lO/ZiWVmHUOy5+zXYkw1PUTVqq5eSsTlPW1uPXk19YEqbySb6uLoWxvDqtVhW/Ltq4Ovt0E69cnRZSj1C2lOdh3Gbtty20x7KftuOjKS0jbVuq1bdNwPI1xsR25zbYyLF13HOVtK+uJdfiyrj7tGKjt0R97wzHjx8jQJuffiVqn8Tty5bioqG3Tff9SXfq48dxSt2Vrj+FcMW5Lrcvzc08pL+Ur7XR4nFXkfF3dSr2G/TI7XlXEmjVrrCdOnLCePHlS0Zdz584penPx4kXr5cuXrYWFhYoWFRcX2wLXJ2PwBVV0k0a7WsdjdptkZCR0UVLzj1rY/zFIFnFOl4RkjEmfjSXsapy/6kMsHZeM6V1FJrdAn50FJC0pu0rGzELiUGGjht2HieOApZt4biaWsN77rGclC7brdCSPW4oPZSvBI1h7JlkQ6+kTCGw/52Vk6NrVZ6Bzh/wq+di8nrXpIXG8dizB7HT5+KnHJ3bxh5L1EYsx4yxI1awbbrWzYz7G1X3n+yp9PzZ2pGIpq2ei7tinYfYnzuwX176TMQumQ9til4dYe9JTsVm2vlyCbytNV1fo0ETMinHl+2dWcDJrnbQub19iIvTtq5JzT0/mpqXAuIm2IanQoRNtv5/qAtMdsVT9qSKB7ILpYnwxJfJDfTcgJgotxKJKC0SxH6/laD5OZKex7vgEqfvAwt2zwVLLMDxU2iKSCc1BC/JPWWBhJWffLa3LwoTFoqAXcOG2sF/LxPIc/rETNd627QlMUIyUdfPi2Y/ZObwt8bBMKBufVS4wxuMXFoUosagR1S8OFuWHy9b5KRUYGGdXxnXEMZ3EWmPYtu3Yi7gdLn0nsYiSx+SV9qTB4u6zwsq2DHWxMyXKJSeNJ2BJZ2I3Sb+fdt+RN+deDithWF+Pfn2781acWzw9NlL3Ldh+P4T7VJFAlqFc4ZhUcIsmNML8ZxoVIU4dZkHqb+DwIF3ZnRKLWWuN62ZgnnbV9whuHUSVWU7OYBZG2Q0qZhmL5DJhnMCENkXJT0ksz4LkbUkG2I/WONZVLuFMZJRxX26BprFjq78kuYd6TMvfXzMq4zupHMYssN9PrfdTPs7byS9uemEzol8/mVmnOpRzK4VZxCJOVAhVLpA62A83Nt3Crtcy/OqtXvnLtUg4hnzF6uRXZk8tj3KwfMKtx7EuCrQJvHsqxNM9YeiCsUyYliarA/TKBcZ4/BTrxUgXxLHuXeoOfmzHIM7Wtfec0F5xdt+d7diLuB0ufSeGfIeWoAs43FY+LAfFolNctMK8OPd4WZsR4DHq0Exatu5bUKxf7+u+PvGhQIq7mYa7kJnzeVdT/EjD+iAuZikmSHdZlfyYOPRh3UhtPCVJGrcx3sHjXQ3beMuplfhwMbvyKmN0Qkwm2d+5dNsCs5GGpQfjysadvEEWlx1zXehiq+jGmLqOVcbUyo4fO+YvzEaaNCal0aUfs9snsWM7Ls47cdcQ351tTE137M1w7TvRLgCczE8ct6d87LeVvypJGbMt3/pXn7ZIS0qSxnLV81l3l9vTc08pW4EXKmnMWRm3ZxffsRVQ9/WIDwWSnWTzWdegjTwOFy2ei9S6yLyMeDZSzrc9GtQF09fymzLxtvz49XFSPiOGdVyTRf13z0bUgrIxutCh85SB8QliXd6lBes2ld0ccZ8xE6Rte4oYsLftV3IUUhawdrh0M0L+8RmPn/4mmI6ucUoXf0y/CpFHBt92MqK078Zw7M1w5TsZ08ZiO2eU88Hlbq0evq2URIttW/FJUUh2dXiGfUcp/KaMbRwwHqkDU/QWvyfnXvhKTFPG0eU8McbIx9slY8El+E20BVG2/VTaqHu0jnAHP/6YD7+rxIM2czgP3M1rSUmJ7fOXX37BkCFDxGrVE25N2gkmcQ3DrSzvL2K+wONzj1mP0+62YKIDoebPOk6AyQXuGmbNmjXo3r07AgMDFef/2qe/v78t+Pn5KUFDXtbg61Q21WsMkiAIohpBAkkQVQnvEpt087skZNQ46/Fao0Z1sQmCqP5QF5sgCKIGQAJJEARhAgkkQRCECSSQBEEQJpBAEgRBmEACSRAEYQIJZJXg7TvgNQu79+kJoppAAlklqPNhVvfX53wFf09Z74qDIKoHPhVInaUg/HvYZkPh76SKF/XV4MAHhy6fBzE7irKuwceHhJ3/Drbu3A0O1lH2Sa7TuD1n+8uCzQpyYCHKdevyjWXVuN32HKC1RQ7225Tzy2aTUdZlx8Teh4q7PmTK6lTR77963J3XqTsvDDhqo36bhrqNkzsYvif5eDo7p+RzRkWevcfQRgfnnvP1iWsG/iaNr3zSlPnH0PsKMfrvYCVVPylmPjo4yjrCp4cDnx0yZevKvmXUbcg+aHQ+SEz8gKj5Yv/k/dH5W7H3b+LI14qaLy8b63VQj4RyPI37oG3D4JtEq0srr6zL4mY+VBR0bVJR1yvzpaKPG4+p/TE2rdOQpmGXJ3/vov6yY1De8dPHnZ5Tuu+Lodsur8f8fFNwuv71Df4+24q3l1vx3mdWfPC5FR9+ZcXCVVZ8tNqKxWusWLLWiqXf6sOydXbBF1RNF1vxgyLNUae8jyp3OV31yeImfGJa21yCYnLR9ZuF5ZKJ1MWxiOvlekev4qYKE/Djki7PoSimMpPmQ3SZrtOhd5fLJ8kVixqmPlTMKMevi/CJUza/ojrFXaXNDl6ODx77uRDdGNpQpoNTZ7rncNcUae7Mnent+jWY1X274sR9/XDy/juRN6w/zg0fgIIHBuDiiDhcHnEXCh+8C0UsFP9poC2UOAi+wPcCyX1n8OmdHI45lXVdXJ0wtgy9zw67rgyfW4/Psyi9/K+bBZvPVC0m5i0fVVydi4l7KP5OlHkBoxAl7YPDWcJlZB89kwyOpThSF9POj4mZDxURt6Mcvy4OfeJUIuX54Cl3RnOnqBcUbRZxXpd7F0Rv1yeqA74XSO5aYAEwQTeOpAmjOz5ZjMg+O9SJW3XjceOSkTIwFfHyWJeYBZtf5VXnVX1c/jEpNxb6perEyRsUfyd8klx3kX30rJ0FyyQxHqYJozJxq5pv58eEcAqfdV3tYfDehfszfnu7PlH1VE0XW7gGsE3P77FPFjP0V28NexeYmiW4UnGf6k73WhF1JoqxQtA9EjcjSreMWWnSgL9bVpki+KrvE7VLp4qnaZfSzIeKiNtRjl+Xcq3dCqY8Hzwu+TByBv8++Kzuq/jQjAfdY2/XJ6qcqhFI9hNUfXxI/qw99MniGH7FduSoyH5MT/XhMRuz4Wr3WkUb36oQfzQ2uLCnoczXshjzc9WtgxjDtHWBJXHgd4MduQp17EPFjHL8uhgvfAz7u7kVSDk+eOwviO7eSRbfR9JSD7vH3q5PVDVVJJAM+eR26pNF7X7zH7fzk0weg+TOqJIdWk52jr8Uq4t10KXutfJoCR8PNBuTZGKS5IJw6fwoK11w1sZyHojukiD7lFGHHJzeVJDHINk+c2/2qjgkYhaTfc2XS3z2RHXYQnH3KnDiQ8UM535dDH5pWPDGh0z58O0588Gj+jCy2L4HNX/e0BMunlOsBtZNZqU87h57uz5RtdCEuYpVkQQ8W744eAsX3uriM6c67Uu1hj9LuinO85m9vV2/BkIT5l5LKI8cude9Jq4fMjd51z32dn2iarmuBVIZH7ubyeOzZEURBsRTANyroEvPTRrxdn2iWkBdbIIgfAp1sQmCIGoAJJAEQRAmkEASBEGYQAJJEARhAgkkQRCECSSQBEEQJlStQPK3DMp59a56or7+qJstyAuUVxul46DElVfjKm4bBEG4D1mQHlGZPmXysXk9n5RWnaKMHjImiKrD5wIp+wGZu4mnWLDE5lPE6NtDnX1FK6+bFUZ5U2EuMmW/K1K+ZoXpLTCtPnk7hm2w4NjviBb4us4sSJ7Hyuwom6jW3kqW656GJdkiWUmPx+x0MdHFNWldE0TNwbcCycRswuIxSObzJ2YkA4uXAulLYRmoTZILzH5BEwUuXGJ2FqW8mLVFN3XWUkzgM/+Y5rMS8qzfynRgYlnBuA11ot60pCQmgqqVqKWVTUzryqQWaZg9yYKJYv3kNrOliXq5CJZNDJyxNg6WxdrUbnybrB0xYgJdmkiCIKoUHwokE6NkPsHsWDE1ljq3IJ8KSvNhopu/rxx/IyqxmGV7j1qdY9I4ndeYg2VxZdbwcWPYWhp8uiwmRNJMK8r8kGLZG2TXB10eYvutTN3GInxyYKnN3BdMonIcCIKobvhQIE/Awqw3eRJbZUZo3WzZLRDFrCc+E3h5/kZU9P5bEB7FxE2ekTsKcQMtwnESH9sD4vrpa9Cwdf0VvzDeYvDbIs3E7ahdynEgCKLaUeNv0rRg4qN0s5XuNRMqncOpMmFUJnZVurzM2hN5BEFc3/hQIMusQw3FmtL5FCmzMsvzN6Ki99+CHAuz0wxWJfcLwrvdPM/OL4jq6lVx9lWh430Gvy2SN0BH7VKOA0EQ1Q4fCqQ6Rljmh0Z9nIXfaLH5Dpb9GJfjb0RF9t9iHOPU4H5BWD3cJarDiUtlMcvE3ArpYrNWSX5vMj+R9tvot+WU6r6BIIjqh2+72F2nS/5M4mFpM0bnF0Xxb2Kz5MrzN8KJxRh8qMt35BXR3C9IF0xfMEbyHfMhotYms5JpSP2pzNL1hDFtLDZ/MHq/LLxdkt+Wuy2Io5s0BFEtqdoJc/kzjPwxHU+6t/w5SD4b+NrK9yXjHupjPFhAD3kThCNowlyCIIgaAAkkQRCECeSThiAIn0JdbIIgiBoACSRBEIQJJJAEQfgUR93l6goJJEEQhAkkkARBECaQQBIEQZjgVCCvpbECgiCuPaq7xpAFSRAEYYJLAslVnqxJgiAqgmtJT+wEUttx4ydBEERF4qrWVKUG6QTSuCPyjlflThIEUXOQ9cSoK9VNZ3TvYsvvY/N3sOXA38VW38s+iG+enof1hXfizy8Pwc3Suhryso7zGVj06lfY33cKXhwcIRI5Bcj46GV8daAPprw4BBG2eEcMHt8TBi8JQH4mPluVgZB7puEvvcOc1Mtq3rYIL38JDPv7w4huoKQYtiVRchkFZ0/j1PmzOJWdg2PH9mPfwVO4AkPZI99i5vub0fZ/nsbDPUJEIkfUjWF4+n+jwXOOrpuJ935Qc20Eh6FV2+7oP6gvWiv7xHC5DQXYueRlfPZrH0yYPQSt7foAR/HtzPew+RaxD6b7ao66vf3oM/lFDGkpEhWcHDviukcWN00EedDer5bft+bvYvO4HLQ8eV2tLkfwdSobU4F0JJJ80oqiorNIe20kXt7UDdMWPIPY+qU6gdQ+ZWxpZzbglcffx457k7B81C1qmsJ5bHj5Uby/8x4kLR+NW3AAy0YmYo3INUWrx7ReVvPGV/Doe8Dkt57CgMZKimFbjNLz2PP1m3hjxR5c4nFGrcYt0a3HAIQVfIQ1P0llOfuWYeTza9B1yrt4qr+mcBxRNybj3acHgOcc+HgkElffgdHPDLI5HDuXuxUbVqRgT3FXTH6V7VdTlqi1QS3iAFZWaYOD/dchjt1tYh9M99Uc9ZjtwD3PL8fodiJRobxtE9cTjoRLFjUeNNHjQRNCbXIKOcjltHXluhzB16tsHI5BmgW1ASFo0+lWFt+OA0dL7Ropx69mfoRHn56DRTvyRRprPN+IoRxP91cy2DaUeGPc1JFFwx7Cq599hs/Mwthbbes7rpfvE8/R6lXL6rcVgGNrXsALTBwbD0nAnHcXYtknn2HZu6/hyUf+gM6Kpsjr86BUAD+zdvixT5HGijCaoX3XLugiQr/BE/HczIcQdmUHFn5/yLauUmvvsUiclagLCfdE8kpFnf6oU4sX9EOJn7ZdOYh6bPtgtq/mQT1mbB27PPtjR+H6DZqgGdPkuJymlXekLVqobtgE0riD8k5rDdMaemPfexHDynz7zWbkSz9S/ZXhCnb+kIrzR7IR2iRcyQtk6f68Tn+2zONSCGC/PD9WlxpviiYRLH76AI6cty9r3fURxvz5aXy07YKa5qTeQC4YTCwCAsrS9Ns6jp2pJ1j8fkye2B8twxqgbpBWNh95h+SyIrDtKcdFqlMLSt3+UnndtqTQtitiWB0lx37DBR7X2tC8I7p266oPkaGsDq0NTRB5azMW/xmHcqT6tHDyCPaweoLaRqIJjzePQA8W35N7xr7smf/ihUeewCvf5+rTlWPmpztmWtAfOwoU5N+8el7IcS1o2iFriawxGsZ4VaMIpNkO8k+5QbaGNorDyIcj4Lf933jx4ywUCmHi+dpBO5M6H/PSShDUbwLuaacdTE3I7H9g6g+P1a3E66Jb/2FozqzUL7/Za6tfCf7HsGbROpScuREdOjcR6eb12gRSStNvqzZCGvD4JVwtLSvDw4Ufv8TiwzyvBJetUp4QkBubNNCV58EokPptSSE3G/tYHUFRQsjcaEObvsNwq99pfP7pRpzRHZtC7Fy3GNl+zfGnXh3UtGZ9MKAPE+LvvsDGM1JZFn7bnordBSXo0C5Sl661z/QC4Kg9FCiwIGuAFteCrCFakLVGW+bI6VWJXRebo+2s1gBtmQetsW0fehVJQyNw7Mtn8fAjs7HguzRk7c7Cjg3LMffpMZjyzi/w6zgO/0roi/piHVv3T6pHS2e/O75lW9etTqdxeHJ4BE6umoUpSYuQum0P9qStwtwnnsKy40GInjYRAxqVra+sfnof9uxi5aSw+9hZlnEWJ37dg5yLjrYViT5/jGbx9XhF2862VCyf81dMfvs4bu/ZiuWdwnm+7sUcVucOrEv9haUFIaR+HbF9LYi6mYBo7WBNVdbfZ9unHUj9dC6envk+9tWNxmN/7GBb1/Gx4XUoldrqDLjpXvxtWjT8tv4bf01agHVp6j4vSpqC2d/6odXIJzG8nbZ+fQwYn4BobMO///YcFm3YwfZhM1ax9j3xwT5EDJfLqsHWxWZiLac7+p4oXL9BFkJjMJbTlmVhNGpMdUS5ScMX5JssPPCbNNqnFni8uLjYtszDmd3r8PkXK7F192HWHeZ11ENE99sxaOhDiL89AvVkCc5LQeLYudg64g18O6G9SOScRcqsUZibMRxvfDsJupztX+CDZV8ibc8ZFDFRatwxFv8z7hEM79JIlGBo9YqoGcP/9S0mdXC0rWIc/W4B5i5Zh715RUCDCPQZNBIjH+yPm399B0NnrcPQlz7HY7UXYcgTX7Dy9dB+bBJeGdUeynCgDVE3puPj2fHge7g3eQj+ukLNLYMdo9h4jBz7MPq3FDWYHhtW63eJGDUHmL4kCfFNRCLjbCY7Np9+h62/HMUF7bg/wI5NN+nYaFw4jJRFH+DLH3bg6Hm2BxF9ED9qLB6+M8LQBm17W8XxEokK5t8TQWhoYqcJnxZkcdSW5bhWTltX/nQEF9zKxiaQHE30jMEokMZ8bd3qy168P2gaMOc7TOY3fwiCqFRkgZODUSCN+VrQkJeN+EQgmbBxRNRcJHngIskf9ZHTtHVkjPGqJwvvDUwA5q7HlE4iiSCICsUoZlpcEz0tOBNGHjTkZUdUvkAC/w8GKgVqDmWpqQAAAABJRU5ErkJggg==;" vertex="1" parent="wcw3lpg_Nm0PKdcRu7sU-43">
          <mxGeometry x="200" y="54.620000000000005" width="328" height="141" as="geometry" />
        </mxCell>
        <mxCell id="wcw3lpg_Nm0PKdcRu7sU-52" value="Написать запрос для получение услуг для формирования пдф" style="rounded=0;whiteSpace=wrap;html=1;" vertex="1" parent="wcw3lpg_Nm0PKdcRu7sU-43">
          <mxGeometry x="260" y="300" width="120" height="60" as="geometry" />
        </mxCell>
        <mxCell id="wcw3lpg_Nm0PKdcRu7sU-84" style="edgeStyle=orthogonalEdgeStyle;rounded=0;orthogonalLoop=1;jettySize=auto;html=1;exitX=1;exitY=0.5;exitDx=0;exitDy=0;entryX=0;entryY=0.5;entryDx=0;entryDy=0;" edge="1" parent="wcw3lpg_Nm0PKdcRu7sU-43" source="wcw3lpg_Nm0PKdcRu7sU-89" target="wcw3lpg_Nm0PKdcRu7sU-83">
          <mxGeometry relative="1" as="geometry" />
        </mxCell>
        <mxCell id="wcw3lpg_Nm0PKdcRu7sU-54" value="Написать код по формированию пдф файла" style="rounded=0;whiteSpace=wrap;html=1;" vertex="1" parent="wcw3lpg_Nm0PKdcRu7sU-43">
          <mxGeometry x="480" y="300" width="120" height="60" as="geometry" />
        </mxCell>
        <mxCell id="wcw3lpg_Nm0PKdcRu7sU-81" value="" style="edgeStyle=orthogonalEdgeStyle;rounded=0;orthogonalLoop=1;jettySize=auto;html=1;entryX=0;entryY=0.5;entryDx=0;entryDy=0;" edge="1" parent="wcw3lpg_Nm0PKdcRu7sU-43" source="wcw3lpg_Nm0PKdcRu7sU-52" target="wcw3lpg_Nm0PKdcRu7sU-54">
          <mxGeometry relative="1" as="geometry">
            <mxPoint x="-420" y="760" as="sourcePoint" />
            <mxPoint x="460" y="330.00000000000045" as="targetPoint" />
          </mxGeometry>
        </mxCell>
        <mxCell id="wcw3lpg_Nm0PKdcRu7sU-82" value="НЕТ" style="text;html=1;align=center;verticalAlign=middle;resizable=0;points=[];autosize=1;strokeColor=none;fillColor=none;" vertex="1" parent="wcw3lpg_Nm0PKdcRu7sU-43">
          <mxGeometry x="850" y="300" width="50" height="30" as="geometry" />
        </mxCell>
        <mxCell id="wcw3lpg_Nm0PKdcRu7sU-42" value="" style="shape=image;verticalLabelPosition=bottom;labelBackgroundColor=default;verticalAlign=top;aspect=fixed;imageAspect=0;image=data:image/png,iVBORw0KGgoAAAANSUhEUgAAATsAAACuCAYAAABJAKqDAAAAAXNSR0IArs4c6QAAAARnQU1BAACxjwv8YQUAAAAJcEhZcwAADsMAAA7DAcdvqGQAADCOSURBVHhe7Z0JfBXV2caf3ARIQGQJ+765sIsgWZBNLCACLgX9kKKlRa1VKVRrW6P41QLWFQr6VdS6/GgUa0UFitCqbLIEQYSwr2EPS1gMW0LI/c4zd044Ge69uffmJoTc9x8OM3POLGfmzjzzvmdm3hOVnZvrhiAIQjnHZQ8FQRDKNSJ2giBEBCJ2giBEBFFuhT0uCIJQbhHLThCEiEDEThCEiEDEThCEiEDEThCEiEDEThCEiEDEThCEiEDEThCEiEDEThCEiEDEThCEiEDEThCEiEDEThCEiEDEThCEiEDEThCEiEDEThCEiEDEThCEiEDEThCEiEDEThCEiEDEThCEiEDEThCEiCAqLy9P+qAQBAHR0dH2WPnjwoULYtkJghAZiNgJghARiNgJghARiNgJghARyAOKEoAH9N0te/Dxvr3IysnBBZUTcyEalaOj4eySPCrKHlG4XFGIVhnMOp/vxtm8C8iLvoC76zbGEx1bIC6m/DYg5+bnY+WxY1h8NAtrTpzAEXXczudfQAVXNGpWqIB21aqhZ53aSKxRA1ViYuylhHBS3h9QiNiVAO9u3oPxOzbAFeOG0i9UzY/F1BtvQKMqsZYQ+oIX/Jm8fCWIblSpEI2cC/l44rv12JF/AjfH1cOkxHaoUbGiPXdorDh2DvevXIA+dTorpVUZ3iqk8qNUPs+MhUdWY2GvvmgQWzIXAjf/n0OHkLp7D3afPYNqSthaVbkKDePiUFWJ2ml1kh48exZbT2Xj+PnzqFspFsMaN8bA+vWUEIpjEk5E7ISgGfDNcmw5fxzRbqoG0LJidXzZO8ku9c1723fj77t3wZ0fhT+3b4Nb6tXG49+mY97ZvUp8onBDhVqY1q1jyILHH/q6eV96JoJkfo+foHnl8FpUmefO4ZWtW7Hy+DF0rFYDQxs2xI01quMqL5bbmbw8rPvxR3y6bz/SjmWhzdVX46lrr0OLq6rYcwjFRcROCJrE+QtxDGc96qLErkXFqzGnZzJiaOb5YdKm7fjb3m2AEruX23bEHY3r49Hla/Hf7AMqT82gDJmbKtbGWzffEJIrl6csxjbz51nja27tp1xoj8vsxK3+6E4vOHIWo9cssnOBeUrwWoRJ8HacPo2n0tNxMjcXT113HfrWrWuXFM1S5eq+uHUL8pSr/0L7dkooq9klQnGQ9+yEoLmgLsJQsKSHi6rk0o150WpCr04JXtq5I3jxh+12RuhUjnGhcnQU4rykytEuVFLCfLVypU36L/4v9pzJs6dC51BODn6nhC4//wKmdekSlNCRbrXi8bdOnRBfsYIlmDtPnbZLBME3InYlgFPrKGLmg4hgYNuZCY3DmYf22VOh43xQ4o1z6m7o5PmNWQXaGwoX1IZf3LwF2efP45WON6Bl5cp2SXCwTe/lDh0Q53Jh/OZNyPFSV0EwEbErAfIdShKq0PmiCG84bCTXjMOQRl3tKQ+Lj36PrJzQheXrw0ew6vgxPHXttWhZpXjtbfViY/FM6zbYfvoUZu5Xrr4g+MEjdmunICEhwXcaMwtZnO/wLIzl9EvLkGstaJKNBc+qsrvew1ZeC77W+Xp6wXrGzrbWapCFWWM8801Za2eVAwKxosj5fDbMefDnCpeS1iFWubQT28VjY7/+2NzvNuVudrHysy+EZtvxafP7GRloW606fqJcV+7vN0eOYvbBg9aDh3/u24dP1NBb+peRZqn5Zx/MxPHcXHSpUR09a9XGh/v24se84rvYRbLxO8R8sR6Z9qRJZtoSxHy1y57SHMdHX3yFmI/tdEn5LkzUZSoNTTtu5wvhppBld+2w5/HG1DeM9DyGt7YLSZ3e6N9HDT9dhlVOtTuxDPP/AzQY2A3XGk09l6xzQDO75FJyl7+Hl5fbE+UIChcb/IuiQ82rrfarvvXqomU12+rhE93LTIyqO63JCnZVQq3Rd8eOY/+5MxjeuJE1vefsWby8ZQfe2rEXOUrnY6Jc9o2BW4jCeTVhJXX8OGQu2zI/3nMAU7ftxLJjxzgzhjVpgh/P52LJ0aPWdIlBoUs/aU8UhkLXKCPHnrrIiq9WY0SVlsi791aVOmP66R2GoFEId2BNs852eUt0yliNiRvtYiGsFBK7Wi27oEvXwqlZdbvQoiqSe/VWw0+wbHVhtcteuQAL0ACDe1xr53i4ZJ0tqtolDnLT8e7kT9CwWXM7o/ywP/c03tyYgfkHDuG/Bw/jKx+posuFexs0wb0NG+PouRz8a9cBfH/c+8UVChSt4qCd19gQGz++OXoEVStUxI3VPSfV6fN5uLthQ/yqZRPr6exP6tbBPY0bYmijBla6T4milZo0wjA15Lt1206dweAG9fBIy+bWS9fkuquuQr1KsVioXOSSwba+0s/h+fhKdp7NofUYqsoaZcSqMjtPo8pezaqE6e31OV0Dw66phs8y93ssw43bMeJcNTyRUMMqBZrjF80qYdwBp/XnwbIcDSuQVqK2Jld8dTHfFEurvJAl6tmXSBTUoE/bqkn90E8NP1myynBls7Fs4QKg3X3od42dFSS7Pv8r3ssdjicfS7ZzygnKUjnvuoDX9mzC6LVr8NgP3+NRH+lX36/GqNWrrMTxp7esw1HX6YtPY0OEDwW2nTqPRUfO2jmhoU+WBYfPYmN2Lk7nXXS7A2GNsuwoTJWN12bc7nzcrkSsV+14pKzfjO+On7BLCrPu5En8Ln0TOla/GvcqQeSTG902Squ5gxLQTaeyremSoLllfXXHL7zcq+9uT6vsJtxiTxeQdRafIRbNzYfN8XG469xxLDikhCj7nLpzxMH0depVjVXLHcUKe/oS4rWVqNKttohm7cCrVW3rsFc9rEmPTDEriuDv0VW7of9P1dB0ZZULu+BroP2Absq2C4ETC/De37ag32Mj0eVqO6+8oI0pNXS73EGlgkexHq/u4rqCgC5g6/nzcPu3X+HB1QvtXLqD9kgQsA2PPLfxW9y59Gt0+mo+juYGLnjHzp+3nqKa6KbJ7rXi8dtrmlsu6qeOhw2zDhzEBxn78HirZuivrD9CneN7gppGar2n1PpLhuYYVmB9OajbDsPa2OPecIgZ6lZBJ3vUokoV1LNHLSiG9mjAxNbDVF0/VZ8nlIXpyzqMZEJwSCqiS6+h6v+LrmzWknnKhU3G4O6hSF0uVr0/BfNbjMbIXj5c3CsUfvVwc+V6uK9ec/ysfnOMqN8i5DSgRiPE5EcHLXgf7T1ljxVmXuYZK80/VHTifP9Vw5n7v7OXhnIzPU9pk7+Zbw0DITf/gtevIzTN1IX/csc2SMs6gQmbtlhfWEzctA1fH8nCSx3a4BplFfqC680zHvBEFA7BbFZVudqnT190Xc9lopF2fT/egXF2dqQRUutLxRt64Y7K2pXNwtKvlwF9+qO356YbHNtS8cpHlTBy7B1oXo5e4HYrq6xafhwmJ7TD/3a8HuM6XI9nO1wXcprctT1aVKqqPFrbFAqQ8Zu+tccKM/qHRVZ6fE3RifM9qoaaxb37YkI7ZwNV0VR0ReOM3c7mi/mZhxEXHY1alWJV3behTqUKiK9QQVl33p5/XuTU+TxEl8VvZc+dRYY9anHoNNbYoxamKBHL9Q0zyvLbp13fe1vieTs70gjt7KjYBYN/pqw4urIHVmHZcqBfn2QEb5cdwKw33sT+n47GL9oV7wP3skgF5WYFJ03+Kepzs9Lita3HMXVH8A9O+JH/gbOF2w21eJ+9cEGtdydWHT+BMa2a4+EWTfFC+9YY1aIZfnttS+w4fUZZe1txPMf5GoCHzNycQm2BZQLLJT2HXYfsaUIxi62B3nXt9jmHGFrtePG1kGhPB4RDMDOycy51j4XCYtewVuBydW3yYDTAF1j2j1XKhR2K/t2Dl7qjn/8VLy9Pxu9+nqzc4vKH9y9Pr3w+V+7s1G3Kmg8SfsO65VR2wdcOlDmGrdqlLtbnNmxB48p8Sfha1KjkORsY9YTQRX1SCV7nGtXxvLL20n/80QqXpeGDivSTJ3FdFd9u7mXBaj/LwYh03X52HB9tO4m76jX0CFGbVpgeexKvFryKsgvvZuTg+QZBvpGg3NR39QOJS54ACxrXqpXL8MlsnrgVcVXVICSndTcMbpCLTz6dhYr39EKXENRq6/p0XPfEaAwOxf29AqDUmY3oxSWMq7os9KpTGyfO51piRSopwVp85Che2rIDt9WrjYH16uBYTo4VA9CZmN+zVk3c36wR3tm5B//ad7DgVZqdSiz3njmDnrVrW9NlicRbPe/WedrLPO/cfVLwsKMGht3hebdOt6fxnbun/T3w8EZsNWCb3Sa3MBOd2nfHsIA+N/a88BwpLzJHde7cWd1gq6L9Q5Pwf79s77Cw+EXDAExACuZOHgxnK82uf47A/7yageFvLcHojnamhl9QPJSK5GfmYtIgx5L8gmLQBCxrMBzvfDwa7c2N2ssNfyvt0nVeIXT69zc4VeEc6rqr4MtbuqFqhfC4V3ctWoH1OcdQOa8i1g641c71z7UhhnQKhq39b7PH/MMwTfevWo2mlSvj1Q7tcSI3FxM2b0WsKxpXVYxG7oWiHzBUjOaDCDcOKffvkZYt0LrqVZi4aQuWHDuK1C5dULOS4z24co71MnNmDey7o12x3VYJ8eSHre/fhRFfDMb0f40s9NVEpFMgdlBi17tsit03Pfuioku5gPa0PywLVf2NWXsYq44Val63CFTsyOcHDuC1rVvxUvsOSIyvaeeGzsbsbOudxPubNMOo5r6/zimviNgFRvFCPJ1ZhXlfHED7n/UToXNQEJ4pzISy1sT4Qm91FdAoLhp1KkWjXgCprkp1KrnQMLb4on17vXq4/uqrMXHzZhw8d87ODY2T589j/MZNqF8pzvrCQhD8EbTYHVjyHt58awrGPTQWqSf6YXifkF4jLtcUPDTNLxnRC4bJHWtj+S39sLJPPyu8uiYUc15///9Rwi3W+tJU+rb3xXUGAkOpP33ddVYg0afWrQtZ8Ch0T69fjwPKnX2ubZuI7ZeiXkJ35IXBqosEgha7Srm78K+/p2LByS4Y/X/PoHehb2cFoi27KCV2IbcR+CGYddasGI145a9Wr+Aq1I8Ev6ygixtootDpz7O4Hq6vhkq0DoOFLw8zwvDh3Fw88v33WHksuAZyPuD49Zo1WK+GE9q2Q5uq5etldKFkkLDsJUC/b5Zie94J1M+rhv/2TQpbr2B3L1qB9JxjiM2riPQA2+xM+GnW9fOL/8BigbIQG4ahA56dZ85g4qbN2HrqR/SqXQdDGjZE22rV4G3NFNqtp07hswMH8OXBg0pw45DSpjXaK5dYCA/ygEIImtfW7cTr+zejsrsiPkjoglZXVylo5NcU1axnG1HKivO8dnv83HmMWLEK+/KzcWe1plZPY6HAz7/4VUSo/KplEsa0qh7St7Xe4Dt3n+7fjxn79lmuaYPYWKvbRIpZVXWTOH0hX7m6Z7Hh5EkrJFRcdAyGNGiA/2nS2O+nZ0LwiNgJQZOTn49J6TvwaeZeROdFo2ZUrCV0Wh8CeX6hxY5w9Mf8XJyKzsGtNevh6RuuKXjxNhTOKZ+0w389He8ESzBPXoOBQrfkaJb13t0mZen9qKYvqOMYHeXCVRVirGgp3WvVtgIG1Iqw10tKCxE7QbhMZGR4PqRq1izyXim5HMirJ4JwGaDQuVwuK2nRE4TiIGInlDm00DVv3txKInhCOCizbqzbbLQSIgYtdC1atLBzPOzcuRP5+fni0pYgZdmNLe435mXCjaWoeUtC5OFL6AjzxMKLXLxpBFMwRCF1XukqS5AVFCKEo4fwXLtW+N8+3ewM7/zv10vxp/XbgVoBhfUQgiD/PvYuc2XjywIs1aexvlQ4WHUWyh+01uhCebPovEGXlievuLTh5Up8GutL3Jz5pSZ2TkEralqIHCh0MTExAQudhoKnzl0RvDBypYmdU9D8TZeK2PkSNjNfxC8y2b17tyV0LVu2tHOCY8eOHZbgNW3a1M4RikNZFzt/YqbHfc1T4mLnTdCKGmqc00L5gkJXoUIFtGrVys4Jje3bt+P8+fMieGHgSnoa6xQ3X0PC8RIVO1OsTEHT499//32haY1zWih/HDx4EE2aNEFCQoKdUzzS0tKwZ88e1K9f384RQoFPu8s6pogRTjN17ty50LQe1/C1pRIRO1Ow9LgWNp0odt26+X/yJgiCUBTLly+3xE4LnTfBo2VXKlLuFDomQRCEcBGIxoRd7MyNODeuE01KKq0gCEJxoZZQU7xpDZOmxCw7cyNEb5iV0hUTBEEoLk5dcWqLni5RN1Zv2Ey6UkyCIAjFxdQUb5qjKdU2O7MyInaCIIQDp67ocSdhFTu9AXND5oY5ZGV0hQRBEIqLN13h0NQYjpdom51zYzrpigmCIBQXU+h00pjTrvTXE6yXO8fOzrIywo1ZAWcSBEEoLt60RScT16jtKZibloZJg+LtrJKhqIoIgiCEQqDa4ho+cjBKVuY8ldEUVSFBEIRg8KYp3vTF1bujPWaTNXus5dZaacwsFDi3a6cUnkY6piSMxazD9iSnExORqFJSUhKmrlMbPDQbT978BjbYc7jdWZj39E/w9noRO0EQwoMpdE5dMadd7e0RCyVoA8Y3xzvKrU1Lm4sUTMCA19PtQn9k4Ysxo5CR8m+sWLECy794GhkPP4E5SELPhI+wSK3C2uiRNCz5bgi6tbUXEwRBCBNOwXMKn8uUsvQlqcCI3vAIYDwGjxwOTF+gbLYiOLwUC5cno1eC7RDXGYRXl7+KgXXikdw7ETOWemy7Y6uXYOU93XG9qoSzIoIgCKFALQlET1yjCiy3LOzaDiQ3bWBPe2G5svS0i5swCkoaPRzMwDI0Q/M69rRBza49kfjhIsuVzdybhiFJrT0FgiAIpYgL09+1293i0bwVsGz3AavAK0meJ7eMH5aW9g6U3eehfjMkIwO7CtrvDGonK1d2Bhanb8DiGUPRPUwu7Llz5/DMM8+gS5culySGj9JMnTrVSsKVza5du/DAAw9YwxMnTuDnP/95od9ZEIg/C8+VkrQME/7pse7adzfd1izMes90a/1Qpxt6qfUsTNOPL9IxNSkJr6/jeE0kKVf2n6Mfwyc3NUE9q5z8aA+Lx1tvvYVVq1YVJE4/99xz1kVBHn/8cSsJVzbsLPuDDz6whoIQCq7BT6cgefooTFmrpjqOxtxndmGU5aYOwAQoS+6xIqVOEY/Bk95Gswm3209jH0JGyhw81sFTWvOmnmBM2q49E1DDytmEL8aMs8bCDTtuMTtvcVp2s2bN8mkJeiujBUFLgnA9M2bMKLAoBw0aVCCqhOPM08ua5c4yJrNeznqyTpx/8+bNfi1Y1pnltHSJ3o4vq8e5Hc6vLSbC5cxtmPvvDef85na5HW/Hi/l6ftZf4zxGen5dZtbTF9rq0+vQydyOWWdzG8Ssm07m8XWu3zyW3AanzXU4fwd/x8tb3fW2dZk5v/nbO48Ph+axdNYjEnGhzmBMUm7paPsVlPhBk2w3VaXJxjt4SggLTSt7b3TaJAwuaKdT0ytWeJ7GLl+OVwcab+/VboamSu66d6lpZ7TGHZMn2+Phhb1OsV8DfxbAuHHjLCvwq6++Qrt27excD/3798e3335rlX/yySeoVq2aXeLhlVdewd13322V/+lPf8Lo0aOtE4uJ48xjGdfRsWNH/P3vfy+4UCjC3Kbe9urVq72ehJx/5syZ1nilSpUwfvx4axlarWb9brzxRmsekzlz5lhhz0OBdaFVzP3WdSTTp0+3hk44/5QpUwr2icv99a9/LbjgSGpqKn75y19a5X379sXQoUOt/iL0/nA/eSEHcvyCwbT4KQIa5z6av6GG8+tluR4N6zlmzBhrfpaxjocOHSokpLQ+9f5xG9yW/o0DOV6NGjUqKOd5GgqsJ/frwQcf9LmdSKRUop4gfRH+2bUHEmrZ02HkoYceKnQn5DRPwFAukEDghaBFpk2bNtYFmZ6ebonr7NmzC8piY2PRtWtXazxY/vOf/2Dv3r2oWVPfHAKDFxNP7lD7YmDduQ/6RlG9evWC2P5OtCDzwud8hMv99Kc/tQRXQ4HT62MYft5cevToYU1T/HkzOX78eFiPny90nSkCuk7cHuto1tkXixcvto6HWUcK+ddff20JDOHNiOsj3AbHly5dGvDxCge84RN9nLkdXhvh3s6VRomL3fq/dUePRzPwuycHILhLNzDMO7i+i61duxYbN2605ygMe7Xi3TNUzF6seLLXrVvXWqdGuxs8uZ5//nk71wNPwltvvdUq49C8cDRcfuXKlfjNb35j5wQGLyaKJJeLj/f/TQytD31zoKV17Ngxu8QDLQDtAnFeb3B7+/btu+Rm49xnJzz2PG6+8Hf8iouus/P3D7RnMv7O5rFj4vE7efKkPQes88HcP66bN1/OU9TxouhfddVVfo+Pubzz+PB3ZH04j/M463rwGEQqJS527R5Zou6IL2FAbTujhDHvpk74Q58+fRo1anhaDsOJvkgpYtrNdbohphvrzQUitB5o0QRbxw0bNqBKlSqF2it9YbppvDloC1KLHC8Y7U6aLqA3nDcbplAeCAVy/MoC5rHT6f333y+w1orC3/Gi2PE39Cd25vLO48Pfkb9nWTxuZYHScWMvA97u1hS7U6dOFUvsTCuO66NgcVu02ng3pYgNHjzYnsM3PKEpaub6uC5addr9CJTs7Gx8+eWXGDhwoJ0TGnTHeaPgheS0OJ2w/txfWivhINjjFwq+6mz+Bv4IxDpylnPdtPborhd1vFjm7bwNlvbt21vnhLd6+BPS8k65EztaJ7xY+YM7odXEHzzQu7A36Crqhl66yjxBtThxXJ9gbD/z54ZxPgqbeXLPmzfPsmqCrR+tWAqnbocqDubFSqvTlxvLi4Z1ffvttwuOB5fj00GntRoowRy/UPBWZ26Hv2kgNwr+zqwj59eYT0QJf0PdhKLPRa67qONFy5Ztf97O22Bhm23VqlWt852Y9Yhkrnixc7aB0AVju5XzwucJxYvHbHOhy7R+/XprHTzpA4EPJOjicXk+aWOiONESYhucbpNjYzSfgLH9UD8dNdvsbr75ZitPN2YTNm7zoUewmI3+xUHXhXVjHWkN0CXiU2NejE64z2zs5zHX+0TRDcUyC+T4hQNuh7+frjN/Pz4hDeRGwd+Z81OwuCwTb1gULG0x8SGMPsec56Kv48Xfjk95edPSZUw8XymefBqfk5NjrSMQWJcnn3zSOobe6hGphK2TbPPNZf2tmo4gysTuztS2CoZr1qzB7bffbi9R8lDsePE625N4EevXCXgy+kO/UyUvKQve4DnmFL9A4DlIEeV56O0mHco6Iwk24fDajYmJQXR0dMHQ5XIVJGpQuW2zEwRBMIkYsaNr5c0io2vCp2lFWXWCUFLwHKTL7s3N5HlLN1asuuITMW6sIAjlE3FjBUEQDETsBEGICETsBEGICETsBEGICETsBEGICETsBEGICETsygF8y978PjOS0dFTAv38T4gc5D07QRCuaAJ+zy79dU/XiGNnX+zr/0rAvIPr6BGc1h+sO/sSMPsKYBQIMz6/TrSQiO5HwBtcljHNONR14LYnTZpUaBkzogVx1ofJX32ZtHXitNyc6zbLnfNyWq/P3J4TvS/m9r1t0yzX2+ey/NCcsfr0cdXLch/MZXTS5c7t6nVqzPpz3Tzu/tbJqC1cnzfLzts+MpnbNNett2di/k7m8fR3TpnnjIbb0cub+8jkPPeKWl4IDNeo7Z7uEScN8h/dtiyjQ+q8+eab1qc3PFl40jM2GkPbMOAhI1GYF4AOdMhypqKCVHpDh+nm5zw9e/YsFB2EkToYU8yMRmIGfuS2df8WrBfDBun6sN6MgFJcuF5G6NDrZYgh9qGhBcwJ62PWgbBenJ/7yPBYuv6MhmKGK2Ik3n/84x9WfxUs57xchlFc9Pq4Tzr4JMu4Xn78znoxj2LJSB1afFh/TuuAp4xWwsQApb7WyT47isIMgGn+7tweP8jXx4DbMvunYL3M88p5PH2dUwy51LhxYyteoIYRTrg8z1dinhvOzxoDWV4oGtfwkWYnOlcm+ofX3w/yZOGJr6d5cTg71ikuZ8+etURWxwjTEYJ1/H+emOz4J9CTkaGjQu07whc8LgzbpL+51PHYfIWs9wWPI4+neREy7pqzjwyzfwUeF/aj4S88E28WDGipQ0txWa6DAkdR4dC8oOmqBBMVOBgoWNyer/4peBPT9dHnVaDfrbKcoZwYvYTb4bq2b98ecOy64i4veHD1tnsV02TNHmv3+K/SmFkocG7XTik8jXRMSRhrd7BN1HRiot2VYhKmss/Yw3Pwu+5vYINnBsUxzEvpi3eCu9b8wlh0DIDp7UN+7R7ouHXBYMa9c7oLjPV///33FxISXoC08igmhOGkGNssECiUtALDFbeNMdAYK437YAYH5UXjL1ourTMz1hrRQqTRbhznM/uuoFVoRoDmeFRUlBVq3BfeoudyOa6LFzXryfqWBr62p48f94Pt0KFGuaYw6ejBXBdvbMHc3Iq7vKDErtC9QQnagPHN8Y7VleJcpGACBrx+0XT2TRZmjX0QGSn/9nSl+MXTyHj4CcxBEnomzMAivYqjafj2uyHoFnx8Sp8wWgTveNr1IVrktAvEFKxlZ7oVvJs73RW6Qgz6aLrGFDfWJTMz07JMAukPglAoX3zxRavbQC00FKxQoWvHfQ7WFTbdWCYKEV1VokVOu3Gcz2nZCb6hMDF6MC1/Wv1074uyCE2Ku7ygxM6UsvQlqcCI3vAIYDwGjxwOTF+gbLYiOLwUC5cno1eC7RDXGYRXl7+KgXXikdw7ETOWemy7Y6uWYOU93dHamgoPcXFxlhhR2Gh9UZAoOBSjcLk85l1Vwzu83q7O1xbawoULgw7/zrYxWhYUKd0WVRy060PrScN6BmMtUbwpbkx0myhwvtw2WoWmFReIJUSries2jyuX47q4DX9WaLjxtT19/AKxVP2hfw/+zmxGCNYFLe7yAh9QFFhuWdi1HUhu2sCe9sJyZelpFzdhFJQ0ejiYgWVohuYFHWZfpGbXnkj8cJHlymbuXYkhSeGUOg+8y/FE1TH3iT5peSHRKgvWjTXhnZR3VedF7mwDo7ixnY7bC9SFJbo9yGzzCge8IGih6QZ23UYWaOh3tvlRtNnob4oZ68vGe2cXjKbws52LlqC3GG0affx4AROul9YybyLcrnkTI96eSoYL/rbcnvnQRT84YvsjfxfnzY3lwTwR5e/BY8pOn0JxQYu7fKTjwvR37Xa3eDRvBSzbfcAq8EqS58ltmpXegbL7PNRvhmRkYFdB+51B7WTLlV2cvgFLPh6K7m3t/DBinqhs92LHxRzXLuFtt91mWUo8Uejisr2JT7f8nTBmmx3XxXU6xU5fALxA9QlPkaPLrF1Y5vOC4Pp8CSCfYBYlQrodTu8Tp9lHgelGO6HQ8JUQ3Q7HC5V9Ezj3Q2O22THx6fKIESOs/aQQ6/4+mMdp9k9rPiGkQOk60mJjY78/uN7Jkydb9eIybFvl8dR9WLAdltO6XwrWrST7UuD2/PVPwXqZ+8hyJt5EAjmnWMYHUbTQfP0G/iju8hHPzMc6uztPXuPmy8V5q19zd+78mnsNx/MOuS8pe2ym+5BVxrTG/Vrnx90zD3jm/VTN+/jMTPf58+fdubmr3a/ceKP75bSz7tOnT7t3f/yIu1OnTu4bHpzu3nzokHv//v3uOXM+VF5O+UMJhFtdIPZUyaGsLLeycqztXW7KUl3KMmfPnnW/8MIL7p07d9o5wVHc5csrc+fOdWdmZrqPHj1qnYvZ2dnuM2fOuJUFrrQo19IrDl2Dn05B8vRRmLJWKV/H0Zj7zC6MstzUAZgAZck9FkjbQDwGT3obzSbcbj+NfQgZKXPwWAdPac2beiJBDbv2TICnBWcTvhhTPjvypfUYjAsrRA76aXuoLmhxl494PFZa8RMtOp2oojk5OdadiJZddvYK9wudfuWevvmoW7k3tmU3x9bl8gHvtgMHDiwVq46IZXdlwfOC50eoVllxly/PBGrZlc63sWtfR48PGuPjCX1RTb6NFQQhjJSZPijW/607ejyagd89OQDyVpYgCJeLEhe7do8sweLFL2FAbTtDEAThMiDx7ARBiAhE7ARBiAhE7ARBiAhE7ARBiAjKjdjxe0VGqvX3+VRZhZ+w6ci9xUV/nqaPg57m503h2oYgXImIZVcGCDQIZCjs3LnT+u6WkVRKahuCcCVwRYsdo1PouP+///3vrfBK/FyL00zOWP60dnSZs38BzjtjxgzL+nGWa+vIaRnp9ZnbMbfBpKNi6Bh7zsRl/Vl2LOM8THoZp/VqrpsRVzTM58f7OoiAczlBiCRc1jexjEJcELrpYrLKGJhzjJk/pSC+HTvrKdRRj1pP4lhGM87C7N8m4XVGK7Y59uUfcOvb4QtRTGFgsEtG1mAYoz59+lhCt3r16oKAnRzXFziH/voXIBQKRtnwVb527dpC0YS5PRPnNlgHwqgmtN50Hr+d1fM4+xvwho44zPm5HLeh94uCxqghXC/LGZVDh7PiNhnXjxFfaNl5i+YsCJGCa9dDYzGr/mgjbFMyUmZ7wjiN7sgw7eMxodU7dvlcpCSl4t0ieyKLR/ItyfjoWx1D7hhWLEzD0KTwhShmDDnGQtMd2nDI0EoUK4YOMuOP0bLi0Ff/AhrGStOCwHBLDKdjhjDi/Hqa62QYIzPIJpedPXt2wTZYB4ZqLy7chg6PznVznEJLwWegUr3PhOGXwt3fhiCUB1yT0iZhsJegm5r4QZOQVhD55AAyltujRRDftReSUhfCkrsjy7F45T3oHsZrkELHtijdBsUhp5k0HOd8jNOm5zcx+2cgzv4aaCWZkX5bt25tTVNk2BbGciYnpntNq6y4cBtmW5uO8Ottv/RxEAShMEW32RVycd/FriQ732bZ+AFWGUM7JT78oZ2rqJOMXokfYRFd2czdSPufHghj1xOXBYaAP336tOXK0rJyiqUWOQZypBtMt5LWoiAIl58ixC4Ls95LRfIzc2039hn0tks0uowd7ayYdp+dS+KRdEsSZixdjw1LZ+Ce5PCGKNZWm27U55DTTBpt9bAjGT2/iWm1EWd/DbSeTEGj2NG95f5S9Jz9ANDFpYtJkQtn+xjrofeTsJ609rztlz4OgiAUxjVFWWWeBxG+KQjVvjYVEwJ0Y0n8Tb2Q+OEjeOTDRDStZ2eGCWe/E3Qr2TBv9q3JdjrdnsWhr/4FNJzW5c42QQ0FLjU11Wc/AKYw8eFBONxYPk3V/VywfhRT1psuq9kuSfgwpDj9bQhCecW1S1lmfBDhHd3D2CiPG7ukN94ZUUQ/FSZ12JWiGib0RGKYo57wQmd/CrzQddsYn3LS4uFrFro/A21hceivfwHCBxKcR5cz6YZ/jb9+APRDBN1HAS0w9pzPp8JajEKB+8X94zqd/TBwv7ifup+GKlWqyAMKQfBCiQfvXPdGN7zf+DO80K+aFbTzQgkF76Q1xZdmTYELBv2uXCCvgpQmtA5prfI9PKe4CoJQZoJ3rsci5cL2vEnCdgqCcHkpObFbN1W5Xw8j4w9/xO0SuFMQhMtM6fRBoZJ2X0vKjRUEITIpM31QCIIglAVE7ARBiAhE7ARBiAhE7ARBiAhE7ARBiAhE7ARBiAhKVeyioqLsMUEQhPDjT2PEshMEISJw8QN/M+pJ1uyxF+PXjWGIdRuvodsvhmjH4Vn4LWPaqZSU9FvMPmznH5mDp3r0QO9pG+wMqu8JpL011p4SBEEIHVpzgXiNrhQzGKcStAHjm+MdHYIdEzDg9YthyZGUgrlWmUqzU5BsZ0NJ3tTBE9Fs2gorrt2cFGDiHVOtKMWeSiQiYecSMEiRNX10JdZu4nKCIAjhQQuec6gp5MamL0kFRvSGJySlDu+04KL15ou1C5CK4ehth4qKHzgS9+FDLErXG2uGHr0ysGSDZ/rEmqWI6uMMAyoIghA8FDVfAmdOR818rLM7YyQ712EvYgOwoM9cTBoU7yml6/oQlKU3Gu05/l4zzJ08WMmgQrmtYwdl4BeqrIFyfQd83Rv/njTIKnO712FK4oPAm8vw67qz8OSdGfjZJ43wwb+aYPwva+Pff3wZOzs1wA+TDuLW1wahyY4v8MTr+fj1i7ejcX6+Wv5HfPfeRGxo/0c80Bn47v0XcKTXBNxmBw3OXv0B/rK+Lf7wQBdUtXL24MuUacBDap7qq/DBS59hq5UPXHv3H9Q6PHN55luA2k89gC7V7CwnJ+3luz+MCf2b2Jne2TMvBdOg5+O6N6DthNtQsNTuL5GysLZRT4W3PItsrPrgL579hJpnU1vv27fqdwS9n6qNBcvr4IH+NdRyM4FebbHhLZVvbt8Hhet9ETP/0nk89ftMH1jz+Og6TbgZh1mXO+8GPrf3Rf1m1rqWeGYt4Nq7vBwD4XLCb0jLEoWEyhY01pFD89tXjvPbWA7NpMs5P7+NjbHXpYhH81bABCswpy12ARLfpDmwPAP+loyqk4weOz/CpqxGWIruGNM9H/umuXBN+/a4pu4BdPv7MsQ2aId21Sl2x3E4Pg6ZTVujbVulq2o8ppUqu86zLndMR8R9qbalCq+xcirih7g4oGVbtK19GPFxQ/HyR8NRZ+GL+NWBeLUOz1ye+dahwfVqPp9RpyqiY1wmbht5m595PFRcG4c4tPKsf8sPGJ/YGQ+qOhXoaMwPiFvXAK2NvJNH5iCuZpNCeZpGA5JUfSviDqzG0IFPoq29v4U4xv2LQavkgYhdPAcV68cis+Zt+FUikDld5RccE98UqreBmV94nm1IHbYITd74HC/PG4aZDd7E7+vPwbDPYvHmH3qjml2n2COLkDkgBb9PBhYsVr8Zfw+1D1xX0hi1TC97j7ekqmULHxfh8kOBuJyY4qbReRwyaQHTIsfED/91uU7eKCTl7bubbqun/4mLbq0fOvZWTmwqFtgPOrLmvKec2PvQq4OqpPqz/kXFI6n3bqS+9i3QMxE1WSn1Z1W6TgKSb1yDleuyPTuw7d+YtvZGJN5QU02rHVPLu1yGkrdJxCDMwXfbPTubvfgzNTUIiW04rZSc61X5NTslotPsz7DopDHfDYnoUtsz7S1Z89wxBLcWmmcHPhw2DC8ttuvHdHIRPpsNDOp6vTW9Y80cdErugpoFyzBxx1WdjTwXd6ZZE8d8nuSp7ziMm90JjepdWu5Jev9qokvyfnz29neIsrZ7cb+9L3cxqUPIA+o33xzfMWMcov78tHVMmB/F/Db3463k7zDNOibc9hy8Na0xhvS5+JtFGeu1lrGnvR0XSZKcIqbzzGkzT8/vFDozmbjYp0Qq+47l09OOozH3mV0YZT1pHYAJSMHcgm4U/dEeo2enIONhz9PYgROAlFnK9TU2xg3HN26GtJVAj5viVSU9lfFUuib6/eklZTn8AkOGDMGQZ2bhjonPom8dO1SLmo8XBhXck9pg5NuP4sC4e3Hvvffi4TddePTtkWjDMmt+e946ffHsxKaY9oieryn+Mq4vahWs52I6tfjFi/M80MZRrrY3810kpz1szWOlR6ah6cSZGNk2Bjs/uhfPzorCD28a5Uzj5iBqrXIGP9ppr+cU1qb9gDsTnOu3U52uSvTVcbkxGV3Vvnudx9i/Wo2b4oe1LrVMrcL7rbaz6C/34sPtjmV14rF3FZGvx7d/iGf3Poq71H7qfFe0Z7zWT+5F0zenYVG25ze6c6L9G6gUreaLtuczl7GSqmuUunkVTEuSZCQtakzOaZ2cgucUPY05HZWXt8Y9JeFdNJvtv//YQNFx7XRMO2dcO50Y184cMpnL6HQlsOWDO/HPRu/j2T6F+6sgJ77+M36+7x58/oDy57K+wp9/uQ/3fP5zePNQib91CUJJQvEoi5gippMWOF/Cp5Oen/pCZ6XEMStojjOxkkzeFN1XMucrC0nthrJULu5L4TJ1V7HLfly3AlG/uRttHPNcTNuw4rMu6NY53kuZJEnlO3m71nVyzqfHnaJmjjsJW6RijbbGzCGTtty0Feec1vPppJctNxydj3F/Bcb+uR9q2FmF2PgObnviU9w09kM839frHIJQolA8yiJauLSI6WQKnR43p/V8hBpTYmJHTPEyk1PsnOV6WUEQSo+yKnZEi5YWMJ2cYucs14nNZWEXO2IKlSlizhSo0DmnBUEIP2VN7ChSJnraFDEmfyLHREpN7PTQW3KWacxxQRBKnivBsiNOITOnzaTLSImJHfEmXKag6XFz2hwKglC6lGWx0zhFTAubc1qPa0qkzc7EFC5fouYcapzTgiCULFeKZUecguZrSDheopadxpeImfkidIJw+Snrlp0pYMQpaOZQo6dLRexIUWIm4iYIl58rwY018Sd+xJwuNbEjvgRNhE4QygZXmtgRp8BpnPmlKnYaETdBKJtciWLnxJf4UexK5XMxE1bGTIIgCKESjJ6Uutg5cVZWJ0EQBI03jWAKhlJ3YwVBKJuUBzfWF5fFjRUEQbgciNgJghARiNgJghARiNgJghARRCF1njygEAQB7vv62WPlj8vyUrEgCGUTeRorCIJQDhCxEwQhIhCxEwQhIhCxEwQhAgD+H/HB3HIatvi3AAAAAElFTkSuQmCC;" vertex="1" parent="wcw3lpg_Nm0PKdcRu7sU-43">
          <mxGeometry x="684" y="570" width="272" height="150.25" as="geometry" />
        </mxCell>
        <mxCell id="wcw3lpg_Nm0PKdcRu7sU-83" value="End" style="ellipse;whiteSpace=wrap;html=1;" vertex="1" parent="wcw3lpg_Nm0PKdcRu7sU-43">
          <mxGeometry x="1080" y="330" width="120" height="80" as="geometry" />
        </mxCell>
        <mxCell id="wcw3lpg_Nm0PKdcRu7sU-92" style="edgeStyle=orthogonalEdgeStyle;rounded=0;orthogonalLoop=1;jettySize=auto;html=1;exitX=1;exitY=0.5;exitDx=0;exitDy=0;entryX=0.5;entryY=1;entryDx=0;entryDy=0;" edge="1" parent="wcw3lpg_Nm0PKdcRu7sU-43" source="wcw3lpg_Nm0PKdcRu7sU-85" target="wcw3lpg_Nm0PKdcRu7sU-83">
          <mxGeometry relative="1" as="geometry" />
        </mxCell>
        <mxCell id="wcw3lpg_Nm0PKdcRu7sU-85" value="Написать код по отправлению пдф файла на почту" style="rounded=0;whiteSpace=wrap;html=1;" vertex="1" parent="wcw3lpg_Nm0PKdcRu7sU-43">
          <mxGeometry x="760" y="460" width="120" height="60" as="geometry" />
        </mxCell>
        <mxCell id="wcw3lpg_Nm0PKdcRu7sU-87" value="ДА" style="text;html=1;align=center;verticalAlign=middle;resizable=0;points=[];autosize=1;strokeColor=none;fillColor=none;" vertex="1" parent="wcw3lpg_Nm0PKdcRu7sU-43">
          <mxGeometry x="770" y="390" width="40" height="30" as="geometry" />
        </mxCell>
        <mxCell id="wcw3lpg_Nm0PKdcRu7sU-88" value="" style="edgeStyle=orthogonalEdgeStyle;rounded=0;orthogonalLoop=1;jettySize=auto;html=1;dashed=1;entryX=0.5;entryY=1;entryDx=0;entryDy=0;exitX=0.5;exitY=0;exitDx=0;exitDy=0;" edge="1" parent="wcw3lpg_Nm0PKdcRu7sU-43" source="wcw3lpg_Nm0PKdcRu7sU-42" target="wcw3lpg_Nm0PKdcRu7sU-85">
          <mxGeometry relative="1" as="geometry">
            <mxPoint x="789.86" y="186" as="sourcePoint" />
            <mxPoint x="575.86" y="290" as="targetPoint" />
          </mxGeometry>
        </mxCell>
        <mxCell id="wcw3lpg_Nm0PKdcRu7sU-90" value="" style="edgeStyle=orthogonalEdgeStyle;rounded=0;orthogonalLoop=1;jettySize=auto;html=1;exitX=1;exitY=0.5;exitDx=0;exitDy=0;entryX=0;entryY=0.5;entryDx=0;entryDy=0;" edge="1" parent="wcw3lpg_Nm0PKdcRu7sU-43" source="wcw3lpg_Nm0PKdcRu7sU-54" target="wcw3lpg_Nm0PKdcRu7sU-89">
          <mxGeometry relative="1" as="geometry">
            <mxPoint x="-20" y="760" as="sourcePoint" />
            <mxPoint x="280" y="800" as="targetPoint" />
          </mxGeometry>
        </mxCell>
        <mxCell id="wcw3lpg_Nm0PKdcRu7sU-91" style="edgeStyle=orthogonalEdgeStyle;rounded=0;orthogonalLoop=1;jettySize=auto;html=1;exitX=1;exitY=0.5;exitDx=0;exitDy=0;entryX=0.5;entryY=0;entryDx=0;entryDy=0;" edge="1" parent="wcw3lpg_Nm0PKdcRu7sU-43" source="wcw3lpg_Nm0PKdcRu7sU-89" target="wcw3lpg_Nm0PKdcRu7sU-85">
          <mxGeometry relative="1" as="geometry" />
        </mxCell>
        <mxCell id="wcw3lpg_Nm0PKdcRu7sU-89" value="Отправка на email," style="rhombus;whiteSpace=wrap;html=1;" vertex="1" parent="wcw3lpg_Nm0PKdcRu7sU-43">
          <mxGeometry x="660" y="270" width="110" height="120" as="geometry" />
        </mxCell>
      </root>
    </mxGraphModel>
  </diagram>
</mxfile>
